<?xml version="1.0" encoding="UTF-8"?>
<svg width="904px" height="243px" viewBox="0 0 904 243" version="1.1" xmlns="http://www.w3.org/2000/svg" xmlns:xlink="http://www.w3.org/1999/xlink">
    <!-- Generator: Sketch 62 (91390) - https://sketch.com -->
    <title>First Bank</title>
    <desc>Created with Sketch.</desc>
    <g id="Page-1" stroke="none" stroke-width="1" fill="none" fill-rule="evenodd">
        <g id="Desktop-HD" transform="translate(-269.000000, -392.000000)">
            <g id="First-Bank" transform="translate(268.000000, 390.000000)">
                <g id="elephant" transform="translate(675.910247, 2.662660)">
                    <path d="M208.870667,124.531867 C206.077667,124.531867 203.225867,124.531867 201.249533,124.277067 L227.7226,-7.10542736e-15 L51.3454667,-7.10542736e-15 L45.8705333,25.7642 C39.5789333,24.7613333 35.1787333,27.3322 33.8394,31.4449333 C32.5294667,35.5544 27.8026,53.0768 27.8026,64.6081333 C27.8026,82.7022 32.3563333,89.3335333 32.3563333,89.3335333 L5.68434189e-14,241.641867 L176.357533,241.641867 L197.659467,141.4434 C221.7936,140.613667 228.562133,133.084 228.562133,128.6838 C228.562133,122.565333 216.485267,124.531867 208.870667,124.531867" id="Fill-10" fill="#F0BD2D"></path>
                    <path d="M129.72162,110.852047 C129.72162,110.852047 161.176353,142.34598 205.119553,136.972313 C221.03802,134.98618 224.569287,130.788513 224.069487,128.864447 C223.589287,127.015513 218.140487,127.799513 212.832153,128.01838 C209.754953,128.191513 183.30802,131.63458 148.080287,104.867513 C134.373353,101.300313 129.72162,110.852047 129.72162,110.852047 L129.72162,110.852047 Z M27.6121533,178.00818 L62.2061533,166.006447 L110.10202,199.93078 L91.5636867,211.540513 L118.954687,234.31898 L119.349953,226.276447 L127.62442,205.931647 L126.980887,188.392913 L109.566287,160.10358 L112.937487,147.817647 L111.78762,134.038847 C66.7598867,134.140113 47.4473533,114.442113 36.8012867,98.3113133 L20.2719533,176.917113 L27.6121533,178.00818 Z M127.16382,72.60918 L117.269087,63.1391133 L102.53642,76.0261133 L127.16382,72.60918 Z M169.91142,92.2908467 C172.88082,97.76578 173.916353,105.324847 174.78202,116.901913 C164.475687,112.19138 147.208087,98.29498 147.208087,98.29498 C127.552553,94.3684467 120.787287,110.10398 120.787287,110.10398 L125.229953,114.050113 C123.554153,121.743113 118.09882,125.623913 118.09882,125.623913 C30.3528867,125.623913 32.2736867,70.9072467 32.2736867,64.6058467 C32.2736867,53.07778 36.8012867,36.2381133 38.23862,32.5500467 C39.6857533,28.8946467 46.2909533,30.1000467 46.2909533,30.1000467 L89.2116867,36.3557133 L98.24402,31.40998 C98.24402,31.40998 111.460953,30.4267133 125.866953,34.48718 C125.866953,34.48718 148.01822,53.0320467 156.576887,66.55278 L155.923553,73.55978 C155.923553,73.55978 167.19682,87.2079133 169.91142,92.2908467 L169.91142,92.2908467 Z M161.205753,200.048545 C164.59982,200.048545 166.94202,197.99038 166.94202,197.99038 C167.288287,192.94338 166.122087,190.330047 166.122087,190.330047 C162.058353,191.39498 158.745953,189.957647 158.301687,185.805713 C157.743087,180.229513 170.345887,155.824247 173.570087,147.683713 C174.837553,144.505247 174.945353,139.967847 174.945353,139.967847 C161.49322,138.099313 149.867153,130.906113 149.867153,130.906113 L151.177087,139.438647 C151.71282,144.675113 144.92142,172.415647 146.31302,186.096447 C146.31302,186.096447 147.48902,200.103913 161.205753,200.048545 L161.205753,200.048545 Z M61.6736867,196.31458 L61.57242,171.97138 L87.84622,190.411713 L80.2152867,227.942447 L83.74982,235.227113 L52.05662,235.227113 L48.46002,228.00778 L61.6736867,196.31458 Z" id="Fill-12" fill="#003B65"></path>
                </g>
                <path d="M605.50868,182.346313 C609.817413,182.346313 612.78028,184.067847 614.53448,187.60238 C616.282147,191.127113 616.43568,196.419113 615.027747,203.44898 C614.253547,207.110913 613.234347,210.315513 611.921147,213.039913 C610.647147,215.754513 609.16408,218.028113 607.46868,219.759447 C605.79288,221.582247 603.97988,222.91178 602.003547,223.748047 C600.00108,224.649647 597.969213,225.041647 595.901413,225.041647 C594.71888,225.041647 593.559213,224.894647 592.36688,224.669247 C591.164747,224.394847 590.07368,224.130247 589.126347,223.748047 C588.126747,223.395247 587.37868,223.02938 586.784147,222.64718 C586.21248,222.248647 585.93808,221.908913 585.993613,221.63778 C586.06548,221.516913 586.081813,221.37318 586.166747,221.22618 C586.166747,221.072647 586.268013,220.899513 586.42808,220.752513 L587.842547,218.348247 C587.99608,218.103247 588.23128,218.028113 588.51548,218.028113 C588.443613,218.028113 588.66248,218.103247 589.16228,218.24698 C589.747013,218.400513 590.380747,218.593247 591.233347,218.78598 C592.059813,219.05058 592.977747,219.230247 593.92508,219.341313 C594.911613,219.504647 595.81648,219.586313 596.685413,219.586313 C597.90388,219.586313 599.11908,219.321713 600.308147,218.821913 C601.503747,218.348247 602.604613,217.456447 603.614013,216.21838 C604.63648,215.03258 605.564213,213.438447 606.456013,211.41638 C607.285747,209.394313 608.053413,206.892047 608.670813,203.903047 C608.053413,205.314247 607.32168,206.40858 606.56708,207.31018 C605.79288,208.17258 604.992547,208.874913 604.179147,209.394313 C603.359213,209.89738 602.457613,210.243647 601.54948,210.452713 C600.61848,210.687913 599.661347,210.727113 598.700947,210.727113 C596.348947,210.727113 594.490213,210.344913 593.02348,209.63278 C591.556747,208.874913 590.501613,207.894913 589.773147,206.588247 C588.998947,205.353447 588.626547,203.867113 588.51548,202.210913 C588.443613,200.48938 588.561213,198.702513 588.982613,196.76538 C589.390947,194.759647 590.018147,192.920513 590.844613,191.143447 C591.742947,189.39578 592.804613,187.84738 594.137413,186.58318 C595.49308,185.253647 597.093747,184.24098 599.017813,183.492913 C600.87328,182.676247 603.08808,182.346313 605.50868,182.346313 Z M572.213833,182.300907 C574.409033,182.300907 576.277567,182.539373 577.741033,183.084907 C579.2241,183.594507 580.393567,184.30664 581.220033,185.253973 C582.0857,186.181707 582.6051,187.311973 582.814167,188.595773 C583.059167,189.915507 582.980767,191.39204 582.667167,192.92084 C582.278433,194.916773 581.367033,196.63504 579.9199,198.039707 C578.5087,199.49664 576.532367,200.67264 574.190167,201.626507 C576.7055,202.629373 578.5087,204.001373 579.580167,205.860107 C580.648367,207.646973 580.9391,209.897707 580.373967,212.51104 C579.580167,216.591107 577.6953,219.648707 574.7455,221.817773 C571.723833,223.96724 567.967167,224.99624 563.433033,224.99624 C558.725767,224.99624 555.374167,223.921507 553.3521,221.77204 C551.339833,219.602973 550.820433,216.496373 551.604433,212.445707 C552.143433,209.897707 553.306367,207.692707 555.1553,205.860107 C556.935633,204.001373 559.307233,202.57384 562.306033,201.54484 C560.293767,200.705307 558.872767,199.552173 558.0071,198.186707 C557.157767,196.765707 556.906233,195.014773 557.3603,192.94044 C557.706567,191.39204 558.2619,189.967773 559.009967,188.612107 C559.784167,187.311973 560.793567,186.181707 561.9859,185.253973 C563.243567,184.30664 564.664567,183.594507 566.3763,183.084907 C568.045567,182.519773 570.0023,182.300907 572.213833,182.300907 Z M476.63476,193.64996 C477.64416,193.64996 478.58496,193.74796 479.43756,193.940693 C480.342427,194.12036 481.14276,194.352293 481.851627,194.66916 C482.55396,194.917427 483.19096,195.253893 483.71036,195.58056 C484.23956,195.917027 484.63156,196.22736 484.87656,196.46256 C485.059493,196.671627 485.157493,196.85456 485.14116,197.047293 C485.10196,197.282493 484.948427,197.60916 484.62176,197.968493 L482.972093,199.778227 C482.756493,199.97096 482.527827,200.095093 482.253427,200.033027 C481.988827,200.033027 481.734027,199.97096 481.443293,199.93176 C480.953293,199.742293 480.179093,199.415627 479.293827,199.043227 C478.392227,198.651227 477.288093,198.494427 475.99776,198.494427 C474.560427,198.494427 473.30276,198.768827 472.21496,199.396027 C471.143493,200.016693 470.20596,200.83336 469.42196,201.780693 C468.65756,202.777027 468.036893,203.93996 467.53056,205.23356 C467.02096,206.553293 466.606093,207.90896 466.361093,209.32996 C466.05076,210.76076 465.907027,212.126227 465.851493,213.48516 C465.769827,214.75916 465.969093,215.90576 466.32516,216.889027 C466.71716,217.901693 467.282293,218.675893 468.13816,219.26716 C468.938493,219.822493 470.104693,220.152427 471.46036,220.152427 C472.610227,220.152427 473.65556,219.949893 474.668227,219.64936 C475.641693,219.322693 476.61516,219.00256 477.601693,218.721627 C477.92836,218.548493 478.274627,218.528893 478.503293,218.528893 C478.82016,218.528893 478.97696,218.62036 479.101093,218.819627 L479.894893,220.642427 C480.179093,221.20756 480.048427,221.69756 479.59436,222.125493 C478.901827,222.72656 477.745427,223.39296 475.98796,224.003827 C474.276227,224.650627 472.172493,224.977293 469.680027,224.977293 C467.02096,224.977293 464.89436,224.513427 463.319827,223.66736 C461.771427,222.791893 460.624827,221.635493 459.870227,220.214493 C459.148293,218.78696 458.785693,217.10136 458.70076,215.187093 C458.70076,213.32836 458.903293,211.306293 459.350827,209.27116 C459.78856,207.15436 460.432093,205.178027 461.242227,203.286627 C462.04256,201.38216 463.146693,199.70636 464.538293,198.311493 C465.851493,196.85456 467.53056,195.760227 469.51996,194.917427 C471.46036,194.087693 473.848293,193.64996 476.63476,193.64996 Z M503.344007,193.66858 C505.081873,193.684913 506.669473,193.92338 508.100273,194.42318 C509.547407,194.916447 510.723407,195.680847 511.62174,196.719647 C512.53314,197.729047 513.153807,199.042247 513.45434,200.58738 C513.800607,202.16518 513.71894,203.93898 513.30734,206.01658 C513.08194,207.107647 512.78794,208.06478 512.428607,208.767113 C512.079073,209.49558 511.585807,210.080313 511.00434,210.50498 C510.403273,210.952513 509.668273,211.305313 508.854873,211.491513 C507.989207,211.674447 506.960207,211.762647 505.807073,211.762647 L493.828207,211.762647 C493.655073,212.990913 493.62894,214.078713 493.71714,215.124047 C493.792273,216.143247 494.04054,216.999113 494.49134,217.74718 C494.90294,218.495247 495.52034,219.122447 496.31414,219.504647 C497.12754,219.948913 498.199007,220.151447 499.466473,220.151447 C500.593473,220.151447 501.759673,220.014247 502.906273,219.730047 C504.092073,219.42298 505.36934,219.122447 506.61394,218.720647 C507.27054,218.53118 507.65274,218.456047 507.796473,218.53118 C507.943473,218.622647 508.100273,218.720647 508.100273,218.821913 L508.92674,220.644713 C509.246873,221.20658 509.10314,221.719447 508.616407,222.12778 C508.283207,222.49038 507.763807,222.79418 507.03534,223.11758 C506.313407,223.483447 505.48694,223.78398 504.510207,224.05838 C503.520407,224.31318 502.47834,224.512447 501.286007,224.701913 C500.16554,224.894647 498.973207,224.976313 497.699207,224.976313 C495.04014,224.976313 492.87434,224.512447 491.290007,223.702313 C489.705673,222.866047 488.519873,221.719447 487.791407,220.30498 C487.04334,218.89378 486.65134,217.273513 486.605607,215.42458 C486.55334,213.569113 486.75914,211.654847 487.134807,209.63278 C487.54314,207.382047 488.225873,205.353447 489.11114,203.386913 C489.957207,201.462847 491.097273,199.777247 492.417007,198.375847 C493.71714,196.87318 495.29494,195.762513 497.072007,194.916447 C498.91114,194.086713 500.985473,193.66858 503.344007,193.66858 Z M393.058727,182.145413 C394.332727,182.145413 395.616527,182.282613 396.844793,182.48188 C398.13186,182.674613 399.324193,182.919613 400.353193,183.26588 C401.418127,183.576213 402.309927,183.847347 403.018793,184.17728 C403.792993,184.484347 404.250327,184.768547 404.459393,184.997213 C404.625993,185.124613 404.723993,185.297747 404.68806,185.506813 C404.661927,185.689747 404.55086,186.036013 404.250327,186.49988 L402.793393,188.894347 C402.685593,189.113213 402.456927,189.240613 402.146593,189.178547 C401.872193,189.132813 401.555327,189.07728 401.290727,188.985813 C400.95426,188.894347 400.460993,188.766947 399.76846,188.57748 C399.11186,188.43048 398.34746,188.29328 397.49486,188.16588 C396.655327,188.02868 395.77006,187.884947 394.881527,187.767347 C393.960327,187.65628 393.09466,187.604013 392.294327,187.604013 C390.755727,187.604013 389.406593,187.80328 388.377593,188.18548 C387.29306,188.57748 386.40126,189.07728 385.698927,189.668547 C385.006393,190.279413 384.44126,190.877213 384.08846,191.573013 C383.742193,192.239413 383.487393,192.922147 383.366527,193.549347 C383.101927,194.588147 383.222793,195.53548 383.742193,196.414213 C384.20606,197.31908 385.408193,198.184747 387.201593,198.913213 L392.392327,201.016947 C393.911327,201.627813 395.28006,202.372613 396.29926,203.284013 C397.383793,204.175813 398.21026,205.17868 398.860327,206.273013 C399.448327,207.36408 399.80766,208.49108 399.967727,209.732413 C400.153927,210.954147 400.144127,212.188947 399.850127,213.482547 C399.52346,215.25308 398.840727,216.808013 397.821527,218.18328 C396.746793,219.58468 395.489127,220.79008 393.950527,221.815813 C392.42826,222.792547 390.670793,223.547147 388.69446,224.056747 C386.727927,224.65128 384.633993,224.89628 382.40286,224.89628 C381.154993,224.89628 379.94306,224.77868 378.685393,224.585947 C377.421193,224.393213 376.290927,224.148213 375.206393,223.903213 C374.115327,223.609213 373.167993,223.256413 372.403593,222.96568 C371.609793,222.648813 371.07406,222.29928 370.753927,222.080413 C370.57426,221.855013 370.499127,221.65248 370.508927,221.459747 C370.57426,221.28988 370.737593,220.969747 370.972793,220.561413 L372.410127,218.157147 C372.537527,217.92848 372.795593,217.827213 373.086327,217.882747 C373.412993,217.89908 373.687393,217.92848 373.968327,218.05588 C374.340727,218.157147 374.860127,218.33028 375.598393,218.45768 C376.310527,218.621013 377.136993,218.784347 378.04186,218.875813 C378.897727,219.048947 379.82546,219.156747 380.753193,219.23188 C381.729927,219.33968 382.602127,219.405013 383.487393,219.405013 C386.02886,219.405013 388.178327,218.921547 389.89006,217.990547 C391.66386,217.000747 392.666727,215.677747 392.97706,214.07708 C393.228593,212.711613 392.95746,211.48988 392.101593,210.47068 C391.219593,209.43188 390.099127,208.611947 388.779393,208.082747 L383.54946,205.881013 C382.27546,205.351813 381.13866,204.705013 380.116193,203.966747 C379.096993,203.254613 378.250927,202.392213 377.62046,201.46448 C376.967127,200.491013 376.555527,199.41628 376.310527,198.246813 C376.055727,197.047947 376.137393,195.708613 376.437927,194.21248 C376.839727,192.327613 377.538793,190.671413 378.557993,189.178547 C379.606593,187.65628 380.900193,186.40188 382.40286,185.359813 C383.925127,184.33408 385.571527,183.53048 387.384527,182.994747 C389.22366,182.436147 391.092193,182.145413 393.058727,182.145413 Z M648.23374,183.083273 C648.95894,183.083273 649.298673,183.41974 649.132073,184.177607 L643.915207,209.33094 L647.583673,209.33094 C648.357873,209.33094 648.687807,209.73274 648.47874,210.50694 L647.903807,213.32934 C647.83194,214.11334 647.358273,214.479207 646.54814,214.479207 L642.886207,214.479207 L641.063407,223.211007 C640.838007,224.004807 640.436207,224.37394 639.681607,224.37394 L634.664007,224.37394 C633.840807,224.37394 633.52394,223.985207 633.677473,223.211007 L635.519873,214.479207 L618.69654,214.479207 C617.94194,214.479207 617.625073,214.07414 617.713273,213.32934 L617.847207,212.774007 C617.987673,212.346073 618.095473,212.009607 618.213073,211.65354 C618.350273,211.307273 618.57894,211.00674 618.935007,210.689873 L642.30474,183.975073 C642.928673,183.357673 643.614673,183.083273 644.35294,183.083273 L648.23374,183.083273 Z M548.47072,183.32174 L540.202787,223.11954 C540.049253,223.90354 539.59192,224.31514 538.86672,224.31514 L533.901387,224.31514 C533.081453,224.31514 532.754787,223.90354 532.924653,223.11954 L539.48412,191.45574 L531.533053,194.722407 C530.739253,195.016407 530.44852,194.75834 530.621653,194.029873 L531.314187,190.815473 C531.43832,190.00534 531.931587,189.440207 532.699253,189.129873 L547.533187,182.67494 C548.317187,182.348273 548.60792,182.53774 548.47072,183.32174 Z M416.702533,194.35066 C417.476733,194.35066 417.800133,194.74266 417.6368,195.513593 L413.5208,215.423927 C413.220267,216.854727 413.1778,217.867393 413.3934,218.455393 C413.612267,219.121793 413.886667,219.383127 414.3048,219.383127 L414.4322,219.383127 C415.180267,219.383127 415.487333,219.758793 415.3534,220.52646 L414.8438,223.028727 C414.680467,223.845393 414.223133,224.23086 413.468533,224.23086 L413.102667,224.23086 C407.4938,224.23086 405.252867,221.38886 406.4452,215.815927 L410.636333,195.513593 C410.789867,194.72306 411.283133,194.35066 412.034467,194.35066 L416.702533,194.35066 Z M443.82338,193.683933 C445.34238,193.683933 446.789513,193.9224 448.04718,194.4222 C449.376713,194.915467 450.45798,195.643933 451.28118,196.6174 C452.117447,197.554933 452.70218,198.750533 453.048447,200.151933 C453.365313,201.543533 453.375113,203.137667 453.02558,204.960467 L450.823847,215.469333 C450.523313,216.870733 450.513513,217.903 450.72258,218.494267 C450.951247,219.1378 451.28118,219.405667 451.64378,219.405667 L451.715647,219.405667 C452.55518,219.405667 452.80998,219.8042 452.656447,220.562067 L452.117447,223.090467 C451.990047,223.884267 451.51638,224.230533 450.823847,224.230533 L450.45798,224.230533 C444.82298,224.230533 442.601647,221.4604 443.748247,215.8352 L445.60698,206.891067 C445.816047,205.8 445.923847,204.705667 445.972847,203.7322 C445.995713,202.6836 445.923847,201.782 445.669047,201.053533 C445.424047,200.269533 444.996113,199.658667 444.365647,199.1948 C443.78418,198.750533 443.00998,198.512067 442.026713,198.512067 C437.966247,198.512067 435.29738,201.481467 434.039713,207.501933 L430.795913,223.090467 C430.65218,223.848333 430.204647,224.230533 429.459847,224.230533 L424.785247,224.230533 C423.97838,224.230533 423.648447,223.848333 423.815047,223.0284 L428.07478,202.5366 C428.31978,201.3802 428.31978,200.4884 428.100913,199.952667 C427.836313,199.4496 427.539047,199.1948 427.117647,199.1948 L427.03598,199.1948 C426.278113,199.1948 425.925313,198.8028 426.101713,198.0384 L426.637447,195.516533 C426.78118,194.742333 427.235247,194.350333 428.07478,194.350333 L428.401447,194.350333 C429.577447,194.350333 430.596647,194.477733 431.380647,194.7064 C432.20058,194.915467 432.85718,195.1964 433.291647,195.5786 C433.784913,196.035933 434.095247,196.4802 434.284713,197.064933 C434.477447,197.692133 434.549313,198.374867 434.549313,199.0968 L434.666913,199.0968 C436.025847,197.228267 437.391313,195.918333 438.730647,195.016733 C440.132047,194.121667 441.791513,193.683933 443.82338,193.683933 Z M567.6503,204.586107 C566.6605,204.586107 565.683767,204.785373 564.782167,205.105507 C563.8381,205.468107 562.962633,205.997307 562.194967,206.683307 C561.404433,207.32684 560.747833,208.11084 560.166367,209.084307 C559.581633,210.005507 559.1733,211.044307 558.934833,212.252973 C558.474233,214.55924 558.817233,216.36244 559.911567,217.66584 C561.0647,218.985573 562.577167,219.622573 564.556767,219.622573 C565.540033,219.622573 566.438367,219.45924 567.379167,219.158707 C568.3069,218.82224 569.172567,218.348573 569.9729,217.727907 C570.704633,217.045173 571.4331,216.24484 571.968833,215.42164 C572.5307,214.477573 572.9325,213.484507 573.161167,212.34444 C573.399633,211.135773 573.415967,210.06104 573.2069,209.084307 C573.0403,208.11084 572.733233,207.310507 572.213833,206.66044 C571.6781,205.997307 571.0411,205.481173 570.2669,205.105507 C569.4535,204.785373 568.607433,204.586107 567.6503,204.586107 Z M639.681607,194.350007 L639.544407,194.350007 L626.984073,209.33094 L636.575007,209.33094 L639.681607,194.350007 Z M502.726607,198.493447 C501.661673,198.493447 500.74374,198.702513 499.878073,199.19578 C499.002607,199.623713 498.300273,200.23458 497.62734,201.034913 C497.006673,201.78298 496.45134,202.64538 495.997273,203.70378 C495.52034,204.706647 495.131607,205.797713 494.837607,206.91818 L503.81114,206.954113 C504.729073,206.954113 505.32034,206.872447 505.676407,206.607847 C506.058607,206.40858 506.326473,205.87938 506.46694,204.99738 C506.64334,204.141513 506.705407,203.32158 506.64334,202.53758 C506.581273,201.78298 506.326473,201.070847 506.003073,200.48938 C505.676407,199.878513 505.25174,199.414647 504.729073,199.042247 C504.121473,198.68618 503.481207,198.493447 502.726607,198.493447 Z M604.946813,187.765713 C603.496413,187.765713 602.258347,188.030313 601.229347,188.559513 C600.229747,189.078913 599.36408,189.706113 598.671547,190.617513 C597.94308,191.48318 597.39428,192.446847 596.976147,193.567313 C596.51228,194.704113 596.156213,195.798447 595.986347,196.964647 C595.70868,198.065513 595.535547,199.19578 595.535547,200.21498 C595.49308,201.208047 595.676013,202.109647 595.986347,202.80218 C596.319547,203.59598 596.897747,204.19378 597.622947,204.60538 C598.380813,205.088847 599.426147,205.288113 600.791613,205.288113 C602.075413,205.288113 603.20568,205.013713 604.081147,204.461647 C604.992547,203.903047 605.79288,203.138647 606.456013,202.210913 C607.09628,201.289713 607.622213,200.21498 608.053413,198.96058 C608.481347,197.80418 608.788413,196.46158 609.098747,195.06018 C609.288213,193.812313 609.324147,192.73758 609.180413,191.84578 C609.02688,190.898447 608.716547,190.16998 608.295147,189.559113 C607.857413,188.938447 607.396813,188.48438 606.766347,188.223047 C606.168547,187.912713 605.564213,187.765713 604.946813,187.765713 Z M566.9153,189.20664 C565.654367,190.23564 564.938967,191.454107 564.664567,192.90124 C564.491433,193.701573 564.481633,194.45944 564.5927,195.197707 C564.736433,195.916373 564.971633,196.481507 565.3571,197.04664 C565.7197,197.608507 566.232567,198.039707 566.794433,198.34024 C567.369367,198.650573 568.045567,198.82044 568.8361,198.82044 C569.505767,198.82044 570.2277,198.68324 570.946367,198.392507 C571.655233,198.039707 572.3053,197.65424 572.916167,197.128307 C573.536833,196.63504 574.026833,196.03724 574.454767,195.308773 C574.908833,194.570507 575.173433,193.747307 575.3727,192.92084 C575.709167,191.326707 575.4119,190.062507 574.562567,189.115173 C573.7263,188.16784 572.5307,187.710507 571.0411,187.710507 C569.505767,187.65824 568.117433,188.203773 566.9153,189.20664 Z M419.3322,181.71846 C420.1064,181.71846 420.416733,182.13006 420.224,182.900993 L419.260333,187.484127 C419.061067,188.219127 418.623333,188.575193 417.872,188.575193 L413.239867,188.575193 C412.4036,188.575193 412.103067,188.219127 412.230467,187.484127 L413.239867,182.85526 C413.3934,182.09086 413.867067,181.71846 414.680467,181.71846 L419.3322,181.71846 Z" id="Since-1894" fill="#003B65"></path>
                <path d="M112.320087,86.5049267 C114.515287,86.5049267 115.351553,87.57966 114.887687,89.73566 L102.275087,147.630793 C101.455153,151.60306 101.347353,154.42546 102.000687,156.127393 C102.559287,157.87506 103.421687,158.704793 104.512753,158.704793 L104.832887,158.704793 C106.992153,158.704793 107.85782,159.799127 107.384153,161.919193 L105.972953,168.942527 C105.509087,171.101793 104.25142,172.18306 102.18362,172.18306 L101.219953,172.18306 C85.5007533,172.137327 79.2875533,164.33326 82.5476867,148.747993 L95.39222,89.71606 C95.8005533,87.57966 97.12682,86.5049267 99.3252867,86.5049267 L112.320087,86.5049267 Z M444.651807,83.97228 C450.231273,83.97228 454.974473,84.9261467 458.832407,86.91228 C462.71974,88.8167467 465.751207,91.9135467 468.01174,96.09488 L468.348207,96.09488 L471.017073,89.3263467 C471.44174,88.1438133 471.895807,87.32388 472.425007,86.8502133 C472.973807,86.3373467 473.829673,86.1021467 475.031807,86.1021467 L486.517407,86.1021467 C488.68974,86.1021467 489.575007,87.2226133 489.09154,89.36228 L477.436073,146.983013 C476.64554,150.44568 476.599807,152.87608 477.298873,154.362413 C477.965273,155.780147 478.827673,156.518413 479.941607,156.518413 L480.265007,156.518413 C482.453673,156.518413 483.31934,157.63888 482.826073,159.742613 L481.37894,166.847613 C480.970607,169.003613 479.647607,170.097947 477.609207,170.097947 L476.599807,170.097947 C469.801873,170.078347 465.18934,168.902347 462.654407,166.52748 C460.148873,164.19508 458.950007,160.97088 459.077407,156.838547 L458.74094,156.838547 C454.249273,162.212213 449.349273,166.11588 444.01154,168.533213 C438.673807,170.924413 432.855873,172.18208 426.61654,172.18208 C421.935407,172.136347 417.636473,171.41768 413.75894,169.960747 C409.816073,168.513613 406.647407,166.01788 404.21374,162.581347 C401.727807,159.151347 400.143473,154.597613 399.395407,148.949547 C398.68654,143.278613 399.16674,136.238947 400.924207,127.73908 C402.649007,119.425413 405.050007,112.477213 408.058607,106.86508 C411.07374,101.275813 414.54294,96.7384133 418.410673,93.4064133 C422.301273,90.00908 426.472807,87.57868 430.915473,86.1021467 C435.39734,84.6909467 439.977207,83.97228 444.651807,83.97228 Z M222.55506,83.8089467 C229.539193,83.8089467 235.468193,84.6713467 240.257127,86.38308 C245.04606,88.1242133 248.19186,89.87188 249.58346,91.7208133 C249.776193,92.0507467 249.910127,92.5244133 250.086527,93.2071467 C250.20086,93.8343467 249.727193,94.7359467 248.66226,95.91848 L244.092193,101.09288 C243.598927,101.840947 242.942327,102.157813 242.151793,101.99448 C241.357993,101.821347 240.54786,101.65148 239.799793,101.409747 C237.023127,100.30888 234.164793,99.38768 231.28686,98.5873467 C228.408927,97.7772133 225.20106,97.36888 221.686127,97.36888 C216.799193,97.36888 213.035993,98.3325467 210.55006,100.256613 C207.97266,102.213347 206.332793,104.745013 205.63046,107.887547 C205.284193,109.68748 205.486727,111.320813 206.17926,112.69608 C206.959993,114.10728 208.37446,115.12648 210.514127,115.789613 L228.519993,121.284147 C235.183993,123.342147 239.437193,126.34748 241.357993,130.34588 C243.216727,134.31488 243.51726,139.453347 242.23346,145.689413 C241.305727,150.105947 239.554793,153.931213 237.023127,157.12928 C234.448993,160.37308 231.39466,163.110547 227.79806,165.315547 C224.18186,167.510747 220.248793,169.176747 215.93026,170.235147 C211.59866,171.30008 207.18866,171.826013 202.726393,171.826013 C199.247393,171.826013 195.915393,171.610413 192.834927,171.16288 C189.738127,170.744747 186.95166,170.160013 184.410193,169.451147 C181.862193,168.748813 179.813993,167.941947 178.183927,166.965213 C176.55386,165.99828 175.433393,164.97908 174.84866,163.894547 C174.08426,162.483347 174.257393,161.08848 175.443193,159.67728 L180.049193,154.54208 C180.604527,154.01288 181.30686,153.712347 182.162727,153.794013 C182.97286,153.849547 183.65886,154.01288 184.321993,154.186013 C187.307727,155.290147 190.414327,156.20808 193.66466,157.028013 C196.88886,157.877347 200.51486,158.249747 204.585127,158.269347 C207.95306,158.269347 210.79506,157.939413 213.035993,157.312213 C215.31286,156.665413 217.181393,155.83568 218.563193,154.79688 C219.93846,153.75808 220.941327,152.64088 221.640393,151.281947 C222.306793,150.050413 222.816393,148.733947 223.100593,147.43708 C223.600393,144.990347 223.03526,143.069547 221.441127,141.730213 C219.81106,140.354947 216.825327,138.943747 212.425127,137.41168 L199.08406,133.214013 C193.41966,131.348747 189.649927,128.369547 187.791193,124.15228 C185.90306,119.935013 185.566593,115.162413 186.624993,109.772413 C187.444927,106.10068 188.77446,102.722947 190.740993,99.5281467 C192.681393,96.34968 195.186927,93.57628 198.218393,91.2275467 C201.26946,88.8363467 204.830127,87.0135467 208.900393,85.7395467 C212.996793,84.45248 217.514593,83.8089467 222.55506,83.8089467 Z M179.85842,84.5704067 C180.933153,84.5704067 181.664887,84.6716733 182.03402,84.8742067 C182.399887,85.1290067 182.471753,85.81174 182.16142,87.0138733 L179.567687,99.1168733 C179.293287,100.191607 178.930687,100.920073 178.45702,101.292473 C177.973553,101.66814 177.42802,101.90334 176.77142,101.94254 C176.118087,101.994807 175.412487,101.94254 174.657887,101.78574 C173.90982,101.622407 173.16502,101.53094 172.416953,101.53094 C162.035487,101.53094 155.704687,106.728207 153.529087,117.184807 L142.592287,167.138673 C142.11862,169.353473 140.85442,170.398807 138.77682,170.398807 L125.680753,170.372673 C123.377753,170.372673 122.472887,169.314273 122.92042,167.138673 L135.506887,108.943007 C136.281087,105.49014 136.29742,103.023807 135.68002,101.583207 C134.997287,100.13934 134.095687,99.4076067 133.001353,99.4076067 L132.664887,99.4076067 C130.499087,99.3880067 129.61382,98.3328733 130.097287,96.1736067 L131.518287,89.02614 C132.001753,86.9126067 133.301887,85.81174 135.506887,85.81174 L136.470553,85.81174 C143.248887,85.83134 147.975753,86.6414733 150.61522,88.2878733 C153.20242,89.8722067 154.541753,92.2046067 154.577687,95.22954 L154.914153,95.22954 C158.429087,91.4402067 162.035487,88.7354067 165.769287,87.0498067 C169.467153,85.41974 174.158087,84.5704067 179.85842,84.5704067 Z M630.451313,53.9441 L616.228247,123.0145 L650.68178,88.8157667 C652.449047,87.0517667 654.42538,86.2024333 656.607513,86.2024333 L656.607513,86.2024333 L670.206647,86.2481667 C672.72198,86.2481667 672.931047,87.1040333 670.846913,88.8157667 L670.846913,88.8157667 L630.428447,126.7581 L656.509513,167.627367 C657.62998,169.352167 657.028913,170.214567 654.725913,170.214567 L654.725913,170.214567 L638.660447,170.214567 C636.37378,170.214567 634.763313,169.352167 633.871513,167.627367 L633.871513,167.627367 L613.925247,133.507033 L607.048913,166.964233 C606.58178,169.1235 605.301247,170.1623 603.223647,170.1623 L603.223647,170.1623 L590.30398,170.1623 C587.978113,170.1623 587.066713,169.097367 587.55998,166.964233 L587.55998,166.964233 L608.633247,64.9919667 L630.451313,53.9441 Z M552.73568,84.1989867 C557.103213,84.1989867 561.091813,84.89152 564.727613,86.32232 C568.343813,87.69432 571.401413,89.7555867 573.753413,92.4603867 C576.141347,95.1292533 577.777947,98.4677867 578.71548,102.39432 C579.610547,106.337187 579.564813,110.845187 578.60768,115.872587 L572.44348,145.43592 C571.66928,149.440853 571.577813,152.302453 572.14948,154.014187 C572.760347,155.73572 573.59008,156.585053 574.720347,156.585053 L575.037213,156.585053 C577.17688,156.585053 578.08828,157.68592 577.60808,159.86152 L576.193613,166.963253 C575.719947,169.096387 574.455747,170.144987 572.352013,170.144987 L571.401413,170.144987 C555.52868,170.144987 549.27628,162.275587 552.542947,146.556387 L557.769613,121.344253 C558.406613,118.22132 558.74308,115.264987 558.818213,112.393587 C558.916213,109.554853 558.589547,107.01992 557.897013,104.899853 C557.22408,102.720987 556.06768,101.019053 554.35268,99.7254533 C552.73568,98.42532 550.484947,97.77852 547.616813,97.77852 C536.121413,97.7621867 528.699547,106.173853 525.328347,122.951453 L516.168613,166.881587 C515.704747,169.02452 514.42748,170.115587 512.333547,170.115587 L499.24728,170.099253 C496.941013,170.099253 496.03288,169.00492 496.477147,166.865253 L508.325347,109.198787 C509.119147,105.781853 509.15508,103.31552 508.452747,101.838987 C507.779813,100.391853 506.923947,99.6633867 505.81328,99.6633867 L505.486613,99.6633867 C503.317547,99.6633867 502.46168,98.6049867 502.879813,96.4293867 L504.346547,89.3243867 C504.820213,87.18472 506.094213,86.1034533 508.325347,86.1034533 L509.295547,86.1034533 C512.705947,86.1034533 515.512013,86.43992 517.782347,86.9854533 C520.020013,87.6126533 521.823213,88.4619867 523.19848,89.5987867 C524.528013,90.7192533 525.459013,92.1500533 525.949013,93.8160533 C526.43248,95.4297867 526.67748,97.3113867 526.631747,99.3726533 L527.007413,99.3726533 C530.796747,94.1884533 534.648147,90.39912 538.444013,87.9327867 C542.27908,85.4174533 547.05168,84.1989867 552.73568,84.1989867 Z M331.748293,53.65206 L356.009827,53.7173933 C368.80536,53.7173933 378.402827,56.3405267 384.723827,61.6227267 C391.064427,66.8951267 393.194293,74.4901267 391.155893,84.4175267 C389.92436,90.2289267 387.556027,95.1289267 384.077027,99.1175267 C380.617627,103.076727 376.119427,106.25846 370.602027,108.613727 L370.543227,108.94366 C378.268893,110.145793 383.649093,113.29486 386.683827,118.397393 C389.770827,123.542393 390.518893,129.68046 388.977027,136.938993 C388.02316,141.629927 386.20036,146.00726 383.449827,149.989327 C380.77116,153.968127 377.43916,157.466727 373.45056,160.46226 C369.504427,163.483927 365.06176,165.86206 360.135627,167.492127 C355.235627,169.19406 350.071027,169.97806 344.772493,169.97806 L307.84936,169.961727 C305.520227,169.961727 304.628427,168.87066 305.128227,166.727727 L327.789093,56.89586 C328.25296,54.7561933 329.572693,53.65206 331.748293,53.65206 Z M299.142387,60.2651 L293.981053,85.9476333 L304.62712,85.9476333 C306.81252,85.9672333 307.71412,87.0321667 307.20452,89.1914333 L307.20452,89.1914333 L305.829253,95.4830333 C305.39152,97.6586333 304.026053,98.7431667 301.847187,98.7431667 L301.847187,98.7431667 L291.21092,98.7431667 L281.69512,145.244167 C280.88172,149.242567 281.149587,152.064967 282.45952,153.7963 C283.78252,155.527633 285.347253,156.3835 287.23212,156.3835 L287.23212,156.3835 L289.95652,156.409633 C292.158253,156.409633 293.04352,157.464767 292.560053,159.6077 L292.560053,159.6077 L291.10312,166.709433 C290.665387,168.8687 289.381587,169.959767 287.313787,169.959767 L287.313787,169.959767 L279.61752,169.959767 C272.195653,169.959767 266.968987,167.885433 263.953853,163.7041 C260.932187,159.561967 260.32132,153.2671 262.052653,144.734567 L262.052653,144.734567 L271.51292,98.7072333 L262.98692,98.7072333 C260.804787,98.7072333 259.93912,97.6390333 260.422587,95.4275 L260.422587,95.4275 L261.788053,89.1424333 C262.21272,87.0125667 263.581453,85.9476333 265.776653,85.9476333 L265.776653,85.9476333 L274.289587,85.9476333 L277.105453,71.4305667 L299.142387,60.2651 Z M28.6908067,53.4348267 L86.55654,53.50016 C88.7582733,53.50016 89.5978067,54.5356933 89.1764067,56.7308933 L87.4842733,64.7832267 C87.02694,66.9424933 85.6908733,68.0172267 83.5250733,68.0172267 L43.00534,68.0172267 L35.65534,103.708827 L67.98554,103.708827 C70.1546067,103.708827 71.0006733,104.829293 70.56294,106.955893 L68.89694,115.027827 C68.4428733,117.183827 67.08394,118.25856 64.9344733,118.25856 L32.6140733,118.222627 L22.66054,166.526827 C22.21324,168.590077 21.0278275,169.705627 19.0896574,169.741671 L4.76574,169.741227 C2.47907333,169.741227 1.53174,168.666493 2.00540667,166.490893 L24.71854,56.6982267 C25.1660733,54.51936 26.51194,53.4348267 28.6908067,53.4348267 Z M445.468473,97.50608 C442.528473,97.50608 439.78774,97.9601467 437.246273,98.8160133 C434.72114,99.66208 432.47694,101.226813 430.49734,103.506947 C428.485073,105.783813 426.642673,108.82508 424.986473,112.692813 C423.300873,116.573613 421.87334,121.581413 420.60914,127.73908 C419.331873,133.978413 418.64914,139.07768 418.62954,143.06628 C418.603407,147.048347 419.16854,150.207213 420.259607,152.52328 C421.347407,154.832813 422.984007,156.410613 425.113873,157.312213 C427.266607,158.14848 429.768873,158.56008 432.748073,158.56008 C440.06214,158.605813 446.151207,156.211347 451.090407,151.419147 C455.931607,146.656347 459.521673,138.751013 461.752807,127.73908 C463.957807,116.985213 463.595207,109.259547 460.75974,104.57188 C457.875273,99.8809467 452.746607,97.50608 445.468473,97.50608 Z M350.00896,117.495793 L335.919827,117.495793 L327.896893,156.408327 L341.98276,156.408327 C346.467893,156.408327 350.26376,155.85626 353.416093,154.716193 C356.548827,153.62186 359.13276,152.164927 361.174427,150.381327 C363.176893,148.597727 364.735093,146.55606 365.898027,144.22366 C367.00216,141.904327 367.822093,139.535993 368.30556,137.072927 C368.79556,134.70786 368.896827,132.329727 368.65836,130.016927 C368.439493,127.74006 367.63916,125.600393 366.273693,123.715527 C364.93436,121.856793 362.948227,120.363927 360.334893,119.207527 C357.73136,118.06746 354.288293,117.495793 350.00896,117.495793 Z M353.040427,67.21526 L346.320893,67.21526 L338.75856,103.899927 L348.594493,103.92606 C351.00856,103.92606 353.36056,103.507927 355.719093,102.65206 C358.077627,101.783127 360.217293,100.509127 362.203427,98.8169933 C364.15036,97.19346 365.83596,95.15506 367.319027,92.7769267 C368.79556,90.40206 369.860493,87.7527933 370.47136,84.73766 C371.562427,79.43586 370.771893,75.2185933 368.067093,72.0401267 C365.381893,68.86166 360.334893,67.2675267 353.040427,67.21526 Z M119.013487,54.5013933 C121.162953,54.5013933 122.044953,55.5565267 121.564753,57.6961933 L118.81422,70.52766 C118.330753,72.6509933 117.092687,73.7257267 115.034687,73.7257267 L102.02682,73.7061267 C99.7793533,73.7061267 98.84182,72.6509933 99.2893533,70.5113267 L102.07582,57.66026 C102.539687,55.5565267 103.83982,54.5013933 106.018687,54.5013933 L119.013487,54.5013933 Z" fill="#003B65"></path>
            </g>
        </g>
    </g>
</svg>