<?xml version="1.0" encoding="utf-8"?>
<!-- Generator: Adobe Illustrator 17.1.0, SVG Export Plug-In . SVG Version: 6.00 Build 0)  -->
<!DOCTYPE svg PUBLIC "-//W3C//DTD SVG 1.1//EN" "http://www.w3.org/Graphics/SVG/1.1/DTD/svg11.dtd">
<svg version="1.1" id="Layer_1" xmlns="http://www.w3.org/2000/svg" xmlns:xlink="http://www.w3.org/1999/xlink" x="0px" y="0px"
	 viewBox="0 0 576 103.8" enable-background="new 0 0 576 103.8" xml:space="preserve">
<g>
	<g>
		<g>
			<path fill="#1893D2" d="M112.1,26.8L95.4,51.5l-7.3-24.7h-8.5c0.6,0.5,1.2,1,1.7,1.6c2.5,3.1,3.2,7.6,2.1,13.7l-1.2,6.5
				c-0.1,0.5-0.2,1-0.3,1.6l4.6,14.1l-2.6,13.5H97l2.6-13.5l26.4-37.5H112.1z"/>
			<polygon fill="#1893D2" points="22.1,8.4 13.6,60.3 24.8,45.7 29.5,17.3 117.6,17.3 116.6,23.4 125.5,23.4 128,8.4 			"/>
		</g>
		<g>
			<path d="M78.8,30.4c-1.9-2.3-5.3-3.4-10.4-3.4H37.9l-4,21.5H47l2.1-11.4h14.5c2.9,0,4.1,1.4,3.5,4.4L65.9,48
				c-0.5,2.9-2.3,4.4-5.2,4.4H24l-7.8,10.2h15.2l-2.8,15.2h13.1l2.8-15.2h10.2l5.5,15.2h14.1l-6.1-16c3-0.7,5.4-2.2,7.2-4.4
				c1.7-2.2,3-5.3,3.7-9.4l1.2-6.5C81.1,36.4,80.6,32.7,78.8,30.4z"/>
			<polygon points="111.9,52.3 106.3,87 18.2,87 21.7,65.7 12.8,65.7 7.9,95.9 113.7,95.9 123.4,35.9 			"/>
		</g>
	</g>
	<g>
		<path fill="#1893D2" d="M391.6,26.9h13.8l12,24.7l12-24.7h13.8l-19.2,37.4v13.4h-13.1V64.3L391.6,26.9z M443.5,40
			c8.9-1,16.8-1.5,24-1.5c3.3,0,5.9,1,7.9,3c2,2,3,4.6,3,7.9v28.3h-11.3l-0.7-3.6c-2.3,1.5-4.6,2.6-7,3.3c-2.4,0.7-4.4,1.1-6.1,1.1
			h-2.5c-3.3,0-5.9-1-7.9-3c-2-2-3-4.6-3-7.9v-3.3c0-3.3,1-5.9,3-7.9c2-2,4.6-3,7.9-3h14.9v-2.9c0-0.7-0.2-1.3-0.7-1.8
			c-0.5-0.5-1.1-0.7-1.8-0.7c-3.1,0-6.6,0.1-10.4,0.4c-3.8,0.3-6.9,0.5-9.2,0.7V40z M457,68.3c2.6,0,5.5-0.5,8.7-1.5v-4.4h-10.5
			c-0.7,0-1.3,0.2-1.8,0.7c-0.5,0.5-0.7,1.1-0.7,1.8v0.7c0,0.7,0.2,1.3,0.7,1.8c0.5,0.5,1.1,0.7,1.8,0.7H457z M507.1,49.8
			c-3,0-6.2,0.7-9.4,2.2v25.8h-12.7V39.2h11.3l0.7,4.7c4.2-3.6,8.5-5.4,13.1-5.4h7.8l-8.6,11.3H507.1z M544.1,77.7l-0.7-3.6
			c-2.3,1.5-4.6,2.6-7,3.3c-2.4,0.7-4.4,1.1-6.1,1.1H527c-3.3,0-5.9-1-7.9-3c-2-2-3-4.6-3-7.9V50.9c0-3.6,1-6.5,3.1-8.5
			c2.1-2.1,4.9-3.1,8.5-3.1h14.9V26.9h12.7v50.8H544.1z M533.9,67.9c2.6,0,5.5-0.5,8.7-1.5V49h-10.9c-1.9,0-2.9,1-2.9,2.9v13.4
			c0,0.7,0.2,1.3,0.7,1.8c0.5,0.5,1.1,0.7,1.8,0.7H533.9z"/>
		<g>
			<path d="M239.4,77c-9.5,1-18.1,1.5-25.7,1.5c-3.3,0-5.7-1-7.4-3s-2.1-4.6-1.5-7.9l3.2-17.4c0.7-3.6,2.2-6.5,4.7-8.5
				c2.4-2.1,5.5-3.1,9.1-3.1h14.5c3.6,0,6.3,1,8,3.1c1.7,2.1,2.2,4.9,1.5,8.5l-2.5,13.4h-25.1l-0.5,2.9c-0.1,0.7,0,1.3,0.4,1.8
				c0.4,0.5,1,0.7,1.7,0.7c4.8,0,11.9-0.4,21.3-1.1L239.4,77z M224.2,47.6c-1.9,0-3.1,1-3.4,2.9l-0.7,4h12.3l0.7-4
				c0.4-1.9-0.4-2.9-2.4-2.9H224.2z M274,49c-2.6,0-5.6,0.5-9,1.5l-5,27.2h-12.7l7.1-38.5h11.3l0.1,3.6c2.6-1.5,5.1-2.6,7.6-3.3
				c2.5-0.7,4.6-1.1,6.3-1.1h3.3c3.3,0,5.7,1,7.4,3c1.6,2,2.1,4.6,1.5,7.9l-5.2,28.3h-12.7l4.8-26.1c0.1-0.7,0-1.3-0.4-1.8
				c-0.4-0.5-1-0.7-1.7-0.7H274z M319.9,77.7c-4.8,0.5-9.4,0.7-13.9,0.7c-3.3,0-5.7-1-7.4-3c-1.6-2-2.1-4.6-1.5-7.9l3.4-18.5h-4.4
				l1.8-9.8h4.4l3.1-8.7h11.3l-1.6,8.7h9.1l-1.8,9.8h-9.1l-3.1,16.7c-0.1,0.7,0,1.3,0.4,1.8s1,0.7,1.7,0.7h9.4L319.9,77.7z
				 M334.2,40c9-1,17.1-1.5,24.2-1.5c3.3,0,5.7,1,7.4,3c1.6,2,2.1,4.6,1.5,7.9l-5.2,28.3h-11.3l-0.1-3.6c-2.6,1.5-5.1,2.6-7.6,3.3
				c-2.5,0.7-4.6,1.1-6.3,1.1h-2.5c-3.3,0-5.7-1-7.4-3c-1.6-2-2.1-4.6-1.5-7.9l0.6-3.3c0.6-3.3,2.1-5.9,4.4-7.9c2.3-2,5.2-3,8.5-3
				h14.9l0.5-2.9c0.1-0.7,0-1.3-0.4-1.8c-0.4-0.5-1-0.7-1.7-0.7c-3.1,0-6.6,0.1-10.5,0.4c-3.9,0.3-7,0.5-9.3,0.7L334.2,40z
				 M342.4,68.3c2.6,0,5.6-0.5,9-1.5l0.8-4.4h-10.5c-0.7,0-1.4,0.2-1.9,0.7c-0.6,0.5-0.9,1.1-1.1,1.8l-0.1,0.7
				c-0.1,0.7,0,1.3,0.4,1.8c0.4,0.5,1,0.7,1.7,0.7H342.4z M388.3,77.7c-3.3,0.5-6.5,0.7-9.4,0.7s-5.2-1-6.8-3
				c-1.6-2-2.1-4.6-1.5-7.9l7.5-40.7h12.7l-7.2,38.8c-0.1,0.7,0,1.3,0.4,1.8c0.4,0.5,1,0.7,1.7,0.7h4.4L388.3,77.7z M202.5,30.3
				c-1.9-2.3-5.4-3.4-10.4-3.4h-30.5l-4,21.6h13.1l2.1-11.4h14.5c2.9,0,4.1,1.5,3.6,4.4l-1.2,6.5c-0.5,2.9-2.3,4.4-5.2,4.4h-42.7
				L134,62.5h21l-2.8,15.2h13.1l2.8-15.2h10.2l5.5,15.2h14.2l-6.1-16c3-0.7,5.4-2.2,7.2-4.4c1.7-2.2,3-5.3,3.7-9.4l1.2-6.5
				C204.8,36.3,204.3,32.6,202.5,30.3z"/>
			<g>
				<path d="M566.5,30.7c0,2.1-1.7,3.8-3.9,3.8c-2.2,0-3.9-1.7-3.9-3.8c0-2.1,1.7-3.8,3.9-3.8C564.7,26.9,566.5,28.6,566.5,30.7z
					 M559.6,30.7c0,1.7,1.3,3,3,3c1.6,0,2.9-1.3,2.9-3c0-1.7-1.2-3-2.9-3C560.9,27.7,559.6,29,559.6,30.7z M562,32.6h-0.9v-3.8
					c0.3,0,0.8-0.1,1.5-0.1c0.7,0,1,0.1,1.3,0.3c0.2,0.2,0.4,0.4,0.4,0.8c0,0.5-0.3,0.8-0.8,0.9v0c0.4,0.1,0.6,0.4,0.7,0.9
					c0.1,0.6,0.2,0.8,0.3,0.9h-0.9c-0.1-0.1-0.2-0.5-0.3-0.9c-0.1-0.4-0.3-0.6-0.8-0.6H562V32.6z M562,30.5h0.4
					c0.5,0,0.9-0.2,0.9-0.6c0-0.3-0.3-0.6-0.8-0.6c-0.2,0-0.4,0-0.5,0V30.5z"/>
			</g>
		</g>
	</g>
</g>
</svg>
