<?xml version="1.0" encoding="utf-8"?>
<!-- Generator: Adobe Illustrator 23.0.1, SVG Export Plug-In . SVG Version: 6.00 Build 0)  -->
<svg version="1.1" id="Layer_1" xmlns="http://www.w3.org/2000/svg" xmlns:xlink="http://www.w3.org/1999/xlink" x="0px" y="0px"
	 viewBox="0 0 240 128" style="enable-background:new 0 0 240 128;" xml:space="preserve">
<style type="text/css">
	.st0{fill-rule:evenodd;clip-rule:evenodd;fill:#FFFFFF;}
</style>
<path id="logo.svg" class="st0" d="M38.6,115.7h-3.8v-1.3h9v1.3h-3.8v8.9h-1.4V115.7z M45,114.4h1.3v4.3c0.5-0.6,1.3-0.9,2.1-0.9
	c1.2-0.1,2.3,0.8,2.4,2c0,0.1,0,0.2,0,0.4v4.5h-1.4v-4.1c0-1.1-0.4-1.6-1.4-1.6c-0.7,0-1.3,0.3-1.7,0.9v4.9H45L45,114.4L45,114.4z
	 M57.3,120.5c0-0.9-0.8-1.6-1.7-1.6c-1-0.1-1.8,0.7-1.9,1.6H57.3L57.3,120.5z M55.8,124.7c-1.8,0.1-3.4-1.3-3.5-3.2
	c0-0.2,0-0.3,0-0.5c-0.1-1.8,1.2-3.3,3-3.4c0.1,0,0.2,0,0.3,0c1.9,0,3.2,1.3,3.2,3.5v0.2h-5.1c0,1.1,0.8,2,1.9,2c0.1,0,0.1,0,0.2,0
	c1,0,2-0.4,2.8-1v1.3C57.8,124.4,56.8,124.7,55.8,124.7 M64.4,114.4h5.8v1.3h-4.4v3h4.2v1.3h-4.2v4.6h-1.4V114.4L64.4,114.4z
	 M75.3,121.3c-1.6,0.5-2.4,0.9-2.4,1.6c0,0.5,0.4,0.9,0.8,0.9c0.1,0,0.1,0,0.2,0c0.5,0,1-0.2,1.4-0.5V121.3L75.3,121.3z M73.4,124.7
	c-0.9,0.2-1.8-0.5-1.9-1.4c0-0.1,0-0.2,0-0.3c0-1,0.7-1.7,2.2-2.2l1.6-0.5c0-0.1,0-0.2,0-0.3c0.1-0.6-0.3-1.1-0.9-1.2
	c-0.1,0-0.3,0-0.4,0c-0.9,0-1.7,0.4-2.4,0.9v-1.3c0.7-0.6,1.6-0.9,2.5-0.9c1.8,0,2.5,0.8,2.5,2.4v2.9c0,0.4,0.1,0.7,0.3,0.7
	c0.3,0,0.5-0.2,0.7-0.4v0.8c-0.4,0.4-0.9,0.6-1.5,0.6c-0.4,0.1-0.7-0.2-0.8-0.5c0,0,0-0.1,0-0.1C74.8,124.5,74.1,124.7,73.4,124.7
	 M78.7,117.9H80v1.5c0.7-1.1,1.2-1.6,2-1.6c0.6,0,1.1,0.3,1.5,0.7l-0.7,1.2c-0.3-0.3-0.8-0.5-1.3-0.5c-0.7,0-1.3,0.6-1.5,1.7v3.8
	h-1.3L78.7,117.9L78.7,117.9z M84.5,117.9h1.3v0.8c0.5-0.6,1.3-0.9,2.1-0.9c0.9-0.1,1.7,0.4,2.1,1.1c0.6-0.7,1.4-1.1,2.3-1.1
	c1.2-0.1,2.3,0.8,2.4,2c0,0.1,0,0.2,0,0.4v4.5h-1.4v-4.1c0-1.1-0.4-1.6-1.4-1.6c-0.7,0-1.3,0.3-1.7,0.9v4.9h-1.3v-4.1
	c0.2-0.7-0.3-1.4-1-1.6c-0.1,0-0.3,0-0.4,0c-0.7,0-1.3,0.3-1.7,0.9v4.9h-1.3L84.5,117.9L84.5,117.9z M101.1,120.5
	c0-0.9-0.8-1.6-1.7-1.6c-1-0.1-1.8,0.7-1.9,1.6H101.1L101.1,120.5z M99.6,124.7c-1.8,0.1-3.4-1.3-3.5-3.2c0-0.2,0-0.3,0-0.5
	c-0.1-1.8,1.2-3.3,3-3.4c0.1,0,0.2,0,0.3,0c1.9,0,3.2,1.3,3.2,3.5v0.2h-5.1c0,1.1,0.8,2,1.9,2c0.1,0,0.1,0,0.2,0c1,0,2-0.4,2.8-1
	v1.3C101.6,124.4,100.6,124.7,99.6,124.7 M104.1,117.9h1.3v1.5c0.7-1.1,1.2-1.6,2-1.6c0.6,0,1.1,0.3,1.6,0.7l-0.7,1.2
	c-0.3-0.3-0.8-0.5-1.3-0.5c-0.7,0-1.3,0.6-1.5,1.7v3.8h-1.3L104.1,117.9L104.1,117.9z M109.5,122.7c0.6,0.5,1.4,0.8,2.2,0.8
	c0.7,0,1.1-0.3,1.1-0.7c0-0.5-0.6-0.7-1.6-1.2c-1.1-0.6-1.6-1-1.6-2c0-1.1,0.8-1.8,2.3-1.8c0.7,0,1.5,0.2,2.1,0.6v1.3
	c-0.6-0.4-1.4-0.6-2.1-0.7c-0.6,0-0.9,0.2-0.9,0.6c0,0.5,0.5,0.8,1.5,1.3c1.1,0.6,1.8,1,1.8,2c0,1.2-0.9,2-2.4,2
	c-0.8,0-1.6-0.2-2.3-0.6L109.5,122.7L109.5,122.7z M121.4,123.3h1.9c1.4,0,2-0.4,2-1.6c0-1.1-0.7-1.6-2.3-1.6h-1.7L121.4,123.3
	L121.4,123.3z M122.4,118.8c1.5,0,2.2-0.5,2.2-1.6c0-1-0.6-1.4-1.8-1.4h-1.4v3.1H122.4L122.4,118.8z M120,114.4h3
	c2.1,0,3.2,1,3.2,2.7c0.1,1-0.6,1.9-1.5,2.1c1.3,0.2,2.3,1.3,2.3,2.6c0,1.7-1.3,2.8-3.5,2.8H120L120,114.4L120,114.4z M131,124.7
	c-1.2,0.1-2.3-0.8-2.4-2c0-0.1,0-0.2,0-0.4v-4.5h1.4v4.1c-0.2,0.7,0.3,1.4,1,1.6c0.1,0,0.3,0,0.4,0c0.7,0,1.3-0.3,1.7-0.9v-4.9h1.3
	v6.7H133v-0.8C132.5,124.4,131.8,124.7,131,124.7 M135.3,117.9h1.5l2.1,3.9l1.9-3.9h1.5l-5,10.1h-1.5l2.3-4.7L135.3,117.9z
	 M143.2,117.9h1.4v6.7h-1.3L143.2,117.9L143.2,117.9z M143.9,115.1c0.4,0,0.8,0.3,0.8,0.8c0,0.4-0.3,0.8-0.8,0.8s-0.8-0.3-0.8-0.8
	C143.1,115.5,143.5,115.1,143.9,115.1C143.9,115.1,143.9,115.1,143.9,115.1 M146.6,117.9h1.3v0.8c0.5-0.6,1.3-0.9,2.1-0.9
	c1.2-0.1,2.3,0.8,2.4,2c0,0.1,0,0.3,0,0.4v4.5H151v-4.1c0.2-0.7-0.3-1.4-1-1.6c-0.1,0-0.3,0-0.4,0c-0.7,0-1.3,0.3-1.7,0.9v4.9h-1.3
	L146.6,117.9L146.6,117.9z M155.2,120.3c0,0.7,0.5,1.2,1.2,1.3c0.1,0,0.2,0,0.2,0c0.7,0.1,1.3-0.4,1.4-1.1c0-0.1,0-0.1,0-0.2
	c0-0.7-0.6-1.3-1.3-1.3c0,0,0,0-0.1,0c-0.7-0.1-1.3,0.5-1.4,1.2C155.2,120.2,155.2,120.2,155.2,120.3 M156.6,126.9
	c1.3,0,2-0.4,2-0.9c0-0.6-0.8-1-2.4-1c-1,0-1.6,0.4-1.6,0.9C154.7,126.5,155.3,126.9,156.6,126.9 M153.9,120.3
	c0-1.6,1.1-2.5,3.4-2.5h2.7v1.1h-1.1c0.4,0.4,0.5,0.9,0.5,1.4c0,1.1-0.8,2.1-1.9,2.2c-1,0.2-1.6,0.2-1.6,0.6c0,0.4,0.7,0.5,2.2,0.8
	c1.3,0.3,2,0.9,2,1.9c0,1.4-1.2,2.1-3.3,2.1c-2.2,0-3.3-0.7-3.3-2c0-0.9,0.7-1.6,1.9-1.8c-0.4-0.1-0.7-0.4-0.7-0.8
	c0.1-0.5,0.5-0.8,0.9-0.9C154.5,122.2,153.9,121.3,153.9,120.3 M174.1,123.9c-1.1,0.5-2.4,0.8-3.6,0.9c-1.1,0-2.3-0.3-3.2-0.9
	c-2.4-1.5-3.1-4.7-1.6-7.1c0.2-0.4,0.5-0.7,0.8-1c1.1-1,2.6-1.6,4.1-1.5c1.2,0,2.4,0.3,3.5,0.8v1.6c-1.1-0.6-2.3-1-3.5-1
	c-2.1-0.1-4,1.5-4.1,3.7c-0.1,2.1,1.5,4,3.7,4.1c0.1,0,0.2,0,0.4,0c0.7,0,1.5-0.2,2.1-0.5v-2h-1.9v-1.4h3.4L174.1,123.9L174.1,123.9
	z M176,117.9h1.3v1.5c0.7-1.1,1.2-1.6,2-1.6c0.6,0,1.1,0.3,1.5,0.7l-0.7,1.2c-0.3-0.3-0.8-0.5-1.3-0.5c-0.7,0-1.3,0.6-1.5,1.7v3.8
	H176L176,117.9L176,117.9z M185,123.5c1.2,0,2.3-0.9,2.3-2.2c0-1.2-0.9-2.3-2.2-2.3c-1.2,0-2.3,0.9-2.3,2.2c0,0,0,0,0,0.1
	C182.8,122.4,183.7,123.4,185,123.5C185,123.5,185,123.5,185,123.5 M185,117.7c0.9,0,1.8,0.4,2.5,1c0.7,0.6,1.1,1.5,1.1,2.5
	c0,2-1.5,3.6-3.5,3.6c-2,0-3.6-1.5-3.6-3.5C181.3,119.4,182.9,117.8,185,117.7C184.9,117.7,184.9,117.7,185,117.7 M192.4,124.7
	c-1.2,0.1-2.3-0.8-2.4-2c0-0.1,0-0.2,0-0.4v-4.5h1.4v4.1c-0.2,0.7,0.3,1.4,1,1.6c0.1,0,0.3,0,0.4,0c0.7,0,1.3-0.3,1.7-0.9v-4.9h1.3
	v6.7h-1.3v-0.8C193.9,124.4,193.2,124.7,192.4,124.7 M199.1,123.1c0.4,0.3,0.9,0.5,1.4,0.5c1.3-0.1,2.3-1.2,2.2-2.5
	c-0.1-1.2-1-2.1-2.2-2.2c-0.5,0-1,0.2-1.4,0.5V123.1L199.1,123.1z M197.8,117.9h1.4v0.4c0.5-0.4,1.1-0.5,1.7-0.5
	c1.9,0.1,3.4,1.8,3.3,3.7c-0.1,1.8-1.5,3.2-3.3,3.3c-0.6,0-1.2-0.2-1.7-0.5v3.8h-1.4V117.9L197.8,117.9z M0,70.8h3.9l6.4,17.9
	l7.1-17.9h2.4l7,17.9l6.5-17.9H37l-9.9,26.4h-0.8L18.5,77l-7.9,20.2H9.7L0,70.8z M45.4,91c3.9,3.9,10.2,4,14.1,0.2
	c3.9-3.9,4-10.2,0.2-14.1c-0.1-0.1-0.1-0.1-0.2-0.2c-1.9-1.9-4.4-3-7.1-3c-2.7,0-5.2,1.1-7.1,3C41.6,80.8,41.6,87.1,45.4,91
	 M42.6,74.3c5.5-5.3,14.2-5.3,19.8,0c5.3,5.1,5.5,13.5,0.4,18.8c-0.1,0.1-0.3,0.3-0.4,0.4c-5.5,5.3-14.3,5.3-19.8,0
	c-5.3-5-5.5-13.4-0.5-18.7C42.3,74.6,42.5,74.5,42.6,74.3 M71.6,70.8h3.7v22.8h12.5V97H71.6L71.6,70.8L71.6,70.8z M94.6,74.4v19.1
	h5.9c6.7,0,10.4-3.8,10.4-9.5s-3.7-9.5-10.4-9.5H94.6z M109.3,73.1c6,4.3,7.4,12.6,3.1,18.6c-0.8,1.2-1.9,2.2-3.1,3.1
	c-2.5,1.7-5.3,2.3-8.8,2.3h-9.6V70.8h9.6C104,70.8,106.8,71.3,109.3,73.1 M119.3,70.8h3.3l9.4,11l9.4-11h3.3V97h-3.6V76.6L132,87.1
	l-9.1-10.5V97h-3.6L119.3,70.8L119.3,70.8z M164.2,85.9l-4.1-9.4l-4,9.4H164.2L164.2,85.9z M158.8,70.8h2.7L173,97h-3.9l-3.4-7.7
	h-11.2l-3.3,7.7h-3.8L158.8,70.8z M183.4,82.2c3.5,0,5.2-1.3,5.2-4.1c0-3-1.7-4.1-5.2-4.1h-3.1v8.2
	C180.2,82.2,183.4,82.2,183.4,82.2z M176.5,70.8h7.7c5.4,0,8.3,2.6,8.3,7.2c0,3.4-1.5,5.4-4.9,6.5c1.1,0.7,2.1,1.7,2.7,2.9l6.4,9.6
	h-4.5l-4.5-6.9c-2-3.1-3.3-4.8-6.3-4.8h-1.1V97h-3.8L176.5,70.8L176.5,70.8z M198.4,90c2.3,2.6,4.3,3.8,6.9,3.8
	c2.6,0,4.2-1.3,4.2-3.4c0-2.2-1.5-3.2-4.4-5c-4.4-2.8-6.7-4.4-6.7-8.2c0-4,3.1-7,7.8-7c2.1,0,4.2,0.7,6,1.8v4.3
	c-2.2-1.7-4-2.6-6.1-2.6c-2.4,0-4,1.3-4,3.1c0,2.1,2,3.2,5.2,5.2c3.8,2.4,6.1,4.1,6.1,8.6c0,3.9-3.1,6.9-7.8,6.9
	c-2.6,0.1-5.1-0.8-7.1-2.5L198.4,90L198.4,90z M217.4,70.8h3.7v11.3h15.1V70.8h3.7V97h-3.7V85.6h-15.1V97h-3.7L217.4,70.8
	L217.4,70.8z M131.7,59.4c-0.4,0.2-0.9,0.3-1.3,0.5C130.8,59.7,131.3,59.6,131.7,59.4z M131.8,59.3L131.8,59.3L131.8,59.3
	C131.7,59.4,131.8,59.4,131.8,59.3L131.8,59.3z M132.9,58.9c0.4-0.2,0.9-0.4,1.3-0.6C133.7,58.5,133.3,58.7,132.9,58.9L132.9,58.9z
	 M132.9,58.9L132.9,58.9L132.9,58.9C132.8,58.9,132.8,58.9,132.9,58.9L132.9,58.9z M140.6,53.1c1-1.8,0.7-5.6,0-8
	c0-0.4,0.2,0,0.1,0.2c0.9,2.4,1.3,4.9,1.2,7.4c12.1-12,12.1-31.6,0.1-43.6S110.3-3.1,98.3,9c-12.1,12-12.1,31.6-0.1,43.6
	c8.4,8.4,20.8,11.3,32,7.4c-0.5,0.2-1,0.3-1.5,0.5c-2.2-0.6-4.3-1.6-6.1-3.1c-1-1-1.9-2-2.7-3.1c0.9,1,2,2,3,2.9
	c0.8,0.6,1.8,1,2.8,1.2c0.4-0.1,0.8-0.3,1.1-0.5c1.8-0.5,3.7,0.1,4.9,1.5c0.3-0.1,0.7-0.3,1-0.4c-3.1-1.7-6.7-7.2-7.4-11.5
	c-0.1-0.1-0.2-0.6,0-0.2c0.7,2.5,2.5,5.8,4.2,6.8c2.2-0.1,4.3,0.9,5.6,2.8c0.1,0.2,0.3,0.5,0.4,0.7c0.8-0.5,1.6-1,2.4-1.5
	C138.4,54.7,139.4,53.7,140.6,53.1L140.6,53.1z M136.3,41.2c-0.6,1.9-1.6,3.9-3.7,4.1c-1.5-2.3,0.2-5.3,1.7-6.5
	c0.3-0.3,1-0.4,1.4-0.7c1.5-1.4,1.1-5.9,0.7-8.2C137.6,33,137.4,37.8,136.3,41.2L136.3,41.2z M119.6,25.4c0.6,2.5,2.4,5.9,4.3,7
	c1.5-0.1,3,0.3,4.2,1.2c0.8,0.6,2.7,3,1.8,3.9c-0.8,0.7-2.6,0-3.2-0.4c-2.9-1.8-6.7-7.3-7.1-11.5C119.4,25.4,119.5,25.1,119.6,25.4z
	 M118.6,21.7c-0.1-0.4-0.4-1.6-0.2-1.3c0.6,2.2,1.7,4.2,3.2,5.9c0.4,0.1,0.7,0.3,0.9,0.6c0.7,0,1.5,0,2.2,0.2
	c1.5,0.7,4.4,2.5,3.9,4.9c-1,0.4-2.2,0.3-3.1-0.4C122.8,30.1,119.7,25.6,118.6,21.7z M125.3,37.8c0.4,0.1,1.1,0,1.5,0
	c1.9,0.4,4.8,2.3,4.5,5c-2,0.8-3.8-0.6-5.2-2c-2.5-2.5-4.8-6.8-5.2-10.2C121.6,33.1,123.3,37.2,125.3,37.8L125.3,37.8z M122.3,36.6
	c0.6,2.3,2.5,5.8,4.3,6.7c0.6,0,1.1,0,1.7,0.1c1.9,0.5,4.8,2.5,4.4,5c-1,0.5-2.2,0.4-3.1-0.3c-3.4-2-6.6-7.6-7.3-11.9
	C122.2,35.7,122.3,36.5,122.3,36.6L122.3,36.6z M135.2,24.5c1.4,4,0.5,10.6-1.2,13.5c-0.4,0.6-1.6,2.1-2.6,1.8
	c-1.2-0.3-0.6-3.3-0.2-4.3c0.7-1.3,1.8-2.4,3.2-3C135.7,30.7,135.7,26.9,135.2,24.5C135.1,24.1,135.3,24.3,135.2,24.5z M134,19.4
	c0.1-0.3,0.4,0.9,0.5,1.3c0.8,4,0,9.4-1.7,12.1c-0.5,1-1.5,1.6-2.6,1.7c-1.6-1.9,0.3-4.8,1.3-6.2c0.6-0.5,1.2-0.9,1.9-1.2
	c0.1-0.4,0.3-0.7,0.5-1C134.3,23.9,134.4,21.6,134,19.4z M131.9,21.7c1.2-1.7,1.3-5.3,0.8-7.9c0-0.3,0.2-0.1,0.1,0.1
	c1.4,3.9,0.4,10.4-1.3,13.2c-0.6,0.9-3,3.1-3.4,0.6C127.7,24.9,130.2,22.4,131.9,21.7z M125.2,7.1c0.3-0.4-0.1,0.3-0.2,0.6
	c-0.6,2.6-1.1,6.9,0.5,9c2.4,0.6,4.8,3.8,3.4,6.7c-1.2,0.5-2.3-0.4-2.8-1.2C123.6,18.9,123.4,11.2,125.2,7.1z M117,14.9
	c0.7,2.5,2.5,5.7,4.3,6.7c1.8-0.2,5.1,1,6.1,3.7c0.8,2.4-2.4,1.5-3.3,0.9c-2.8-1.8-6.5-7.1-7.1-11.2C116.8,14.8,116.9,14.6,117,14.9
	L117,14.9z M115.5,29.9c2.9,3.6,7.3,7.6,7.8,13.5c0.1,1.4,0,3.7-1.3,3.7c-1.5,0-1.8-3.1-1.2-4.9c0.3-0.8,0.9-1.1,0.9-2.2
	c0-2.4-2-4.8-3.2-6.2c1.1,2,1.8,4.2,2,6.4c0,1.1-0.3,3.3-1.4,3.4c-2,0.1-1.7-5.7-0.4-6.3c0-2.7-1.2-5.2-3.2-7.1c1,1.9,2.3,4.8,2,7.8
	c-0.1,0.8-0.6,2.1-1.3,2.1c-1.9,0.1-1.9-5.5-0.4-6.2c0.1-3.4-1.7-5.6-3.4-7.5C113.8,27.4,114.8,28.5,115.5,29.9L115.5,29.9z
	 M123.9,45.1c0.2,1.8,0.7,3.7,1.3,5.4C122.8,50.7,123.1,46.7,123.9,45.1L123.9,45.1z M109.7,32.3c2.6-0.2,4.7,1.3,4.7,3.6
	c-0.5,0.9-1.7,0.5-2.3,0.2c-3.3-1.6-5.2-6.1-6-10.3C106.9,28.5,107.7,31,109.7,32.3z M102.4,33.1c1.4,1.1,2.9,3.5,5.3,4.1
	c1.2,0.3,2-0.6,3.7-0.5c1.4,0.1,3.2,0.9,3.2,2c-0.1,1.6-3.6,0.8-4.6,0.5C106.7,38.1,104.1,35.4,102.4,33.1L102.4,33.1z M105.2,36.5
	c1,1,2.8,3.5,5.1,4.2c1,0.3,1.6-0.4,2.7-0.5c1.4-0.1,4.4,0.7,4.4,2.1c-0.1,1.5-3.5,0.8-4.5,0.5C109.7,41.5,107.1,39.3,105.2,36.5
	L105.2,36.5z M108,40.1c1.3,1.1,2.8,3.4,5.2,4.1c1,0.3,1.5-0.3,2.4-0.5c1.8-0.2,4.7,0.7,4.5,2.2c-0.3,0.5-0.8,0.9-1.5,0.9
	c-3.2,0.3-6.4-2.5-8-3.6C109.7,42.3,108.8,41.2,108,40.1L108,40.1z M110.7,43.5c1,1.1,2,2.1,3.1,3.1c0.8,0.7,1.8,1.1,2.9,1.3
	c0.4-0.1,0.8-0.3,1.2-0.5c2-0.6,4,0.2,5.2,1.9c-0.3,1-1.3,1.1-2.5,1c-2.6-0.5-5.1-1.7-7.1-3.5C112.5,45.7,111.6,44.6,110.7,43.5
	L110.7,43.5z M128.6,55.9c-0.2,0.9-1.1,1.1-2.2,1c-2.4-0.3-4.7-1.3-6.5-2.9c-0.9-0.9-1.8-1.8-2.6-2.8c0.9,0.9,1.9,1.8,2.9,2.6
	c0.8,0.6,1.7,0.9,2.7,1c0.4-0.1,0.7-0.3,1-0.5C125.6,53.9,127.5,54.5,128.6,55.9z M125.7,52c-0.2,0.9-1.1,1.1-2.2,1.1
	c-2.4-0.2-4.7-1.1-6.7-2.5c-1-0.8-1.9-1.7-2.7-2.7c1,0.9,2,1.7,3,2.5c0.8,0.5,1.7,0.8,2.7,0.9c0.4-0.1,0.7-0.3,1-0.5
	C122.6,50.1,124.5,50.6,125.7,52L125.7,52z M131.9,53.9c-3.2-1.1-7.4-7.1-8.2-11.8c-0.1-0.1-0.2-0.6,0-0.2c0.7,2.5,2.5,5.8,4.2,6.8
	c2.2-0.1,4.3,0.9,5.6,2.8C134.9,53.6,133.5,54.4,131.9,53.9L131.9,53.9z M133.9,50.7c-1.5-2,0.1-5.2,1.6-6.4
	c0.5-0.3,0.9-0.6,1.5-0.8c1.2-1.6,1.3-5.5,0.8-7.9c0-0.1-0.3-0.8-0.1-0.5c1.3,4.2,1,10.7-1.2,14C136,50.1,135,50.7,133.9,50.7
	L133.9,50.7z M134.5,53.9c0.2-2.2,1.7-4.1,3.7-5c1.1-1.7,1.3-5.5,0.7-8c0-0.4,0.2,0,0.1,0.2c1.4,4.5,0.4,11.8-2,14.2
	C135.9,56.5,134.2,56.4,134.5,53.9L134.5,53.9z M139.2,55c0.2-0.1,0.4-0.3,0.6-0.4C139.5,54.7,139.3,54.9,139.2,55L139.2,55z
	 M130.4,59.9c-0.1,0-0.1,0-0.2,0.1C130.3,59.9,130.3,59.9,130.4,59.9L130.4,59.9z M140.2,54.2l0.3-0.3
	C140.4,54,140.3,54.1,140.2,54.2L140.2,54.2z M137.9,55.9c0.3-0.2,0.6-0.4,0.9-0.7C138.6,55.5,138.2,55.7,137.9,55.9L137.9,55.9z
	 M0.1,54.1h92.8v-1.8H0.1V54.1L0.1,54.1z M147.1,54.1h92.8v-1.8h-92.8L147.1,54.1L147.1,54.1z"/>
</svg>
