<?xml version="1.0" encoding="UTF-8" standalone="no"?>
<svg
   xmlns:dc="http://purl.org/dc/elements/1.1/"
   xmlns:cc="http://creativecommons.org/ns#"
   xmlns:rdf="http://www.w3.org/1999/02/22-rdf-syntax-ns#"
   xmlns:svg="http://www.w3.org/2000/svg"
   xmlns="http://www.w3.org/2000/svg"
   xmlns:sodipodi="http://sodipodi.sourceforge.net/DTD/sodipodi-0.dtd"
   xmlns:inkscape="http://www.inkscape.org/namespaces/inkscape"
   width="238.53065"
   height="61.994797"
   viewBox="0 0 238.53065 61.994797"
   version="1.1"
   id="svg60"
   sodipodi:docname="logo.svg"
   inkscape:version="0.92.5 (2060ec1f9f, 2020-04-08)">
  <metadata
     id="metadata64">
    <rdf:RDF>
      <cc:Work
         rdf:about="">
        <dc:format>image/svg+xml</dc:format>
        <dc:type
           rdf:resource="http://purl.org/dc/dcmitype/StillImage" />
        <dc:title>Logo</dc:title>
      </cc:Work>
    </rdf:RDF>
  </metadata>
  <sodipodi:namedview
     pagecolor="#ffffff"
     bordercolor="#666666"
     borderopacity="1"
     objecttolerance="10"
     gridtolerance="10"
     guidetolerance="10"
     inkscape:pageopacity="0"
     inkscape:pageshadow="2"
     inkscape:window-width="1848"
     inkscape:window-height="1009"
     id="namedview62"
     showgrid="true"
     inkscape:zoom="5.6568542"
     inkscape:cx="140.38611"
     inkscape:cy="7.1200983"
     inkscape:window-x="72"
     inkscape:window-y="34"
     inkscape:window-maximized="1"
     inkscape:current-layer="svg60"
     fit-margin-top="0"
     fit-margin-left="0"
     fit-margin-right="0"
     fit-margin-bottom="0">
    <inkscape:grid
       type="xygrid"
       id="grid4643"
       originx="11.750481"
       originy="-3.0052048" />
  </sodipodi:namedview>
  <!-- Generator: Sketch 50 (54983) - http://www.bohemiancoding.com/sketch -->
  <title
     id="title2">Logo</title>
  <desc
     id="desc4">Created with Sketch.</desc>
  <defs
     id="defs6" />
  <g
     transform="matrix(0.04255111,0,0,0.04255111,172.79293,3.7492638)"
     id="#ffffffff"
     style="stroke-width:6.25554705" />
  <g
     transform="matrix(0.03756395,0,0,0.04095794,197.59346,2.8698982)"
     id="#377a2aff"
     style="stroke-width:6.78612041">
    <path
       style="opacity:1;fill:#377a2a;stroke-width:6.78612041"
       inkscape:connector-curvature="0"
       d="m 537.42,4.51 c 6.24,-3.84 15.09,-3.61 20.63,1.41 4.93,4.16 6.7,10.83 6.64,17.06 0.11,61.05 -0.12,122.11 0.12,183.15 4.29,8.19 9.4,15.96 14.13,23.92 7.29,10.98 13.24,22.76 19.79,34.18 7.9,14.53 15.88,29.87 16.54,46.75 0.52,15.82 -6.6,30.8 -16.16,43.02 -7.74,10.22 -17.42,18.7 -26.33,27.85 -8.56,8.69 -17.38,17.13 -25.79,25.97 -14.33,-13.25 -28.4,-26.83 -41.7,-41.13 -8.85,-10.42 -18.37,-20.9 -22.92,-34.05 -4.25,-11.42 -3.9,-24.16 -0.28,-35.69 6.35,-20.12 16.73,-38.6 26.91,-56.97 6.29,-11.39 13.01,-22.56 19.36,-33.91 0.49,-45.01 -0.21,-90.04 -0.07,-135.06 -0.04,-16.34 0.09,-32.68 -0.08,-49.02 -0.08,-6.84 3.15,-13.99 9.21,-17.48 m -23.15,291.65 c -4.31,11.56 -5.41,24.9 -0.01,36.3 6.43,13.82 19.35,23.18 32.41,30.24 10.6,-8.58 22.29,-16.49 29.83,-28.1 5.83,-8.81 6.47,-20.08 3.72,-30.07 -4.17,-15.91 -12.64,-30.24 -21.06,-44.22 -1.02,-1.13 -0.37,-2.64 -0.5,-3.96 -0.61,0.29 -1.21,0.6 -1.79,0.92 -2.76,-5.81 -6.89,-10.81 -10.17,-16.32 -11.22,18.13 -25.03,34.98 -32.43,55.21 z"
       id="path3" />
    <path
       style="opacity:1;fill:#377a2a;stroke-width:6.78612041"
       inkscape:connector-curvature="0"
       d="m 673.04,120.07 c 8.6,-4.02 20.08,-1.56 25.64,6.33 2.88,3.91 2.81,9.02 2.83,13.65 -0.18,19 0.39,37.99 0.19,56.99 0.7,13.62 0.26,27.26 0.38,40.89 0.36,12.01 0.12,24.04 0.19,36.06 0.28,53.34 0.48,106.69 -0.19,160.02 -0.15,9 -1.14,17.97 -0.99,26.98 0.22,10.77 1.25,22.2 -3.79,32.15 -6.56,13.35 -19.49,21.87 -31.88,29.26 -21.75,12.74 -45,22.73 -68.6,31.49 -10.41,3.7 -20.77,7.75 -31.53,10.31 -0.34,-20.73 -0.64,-41.47 -0.99,-62.2 -0.04,-14.81 -2.04,-29.77 0.43,-44.49 2.38,-14.64 10.98,-27.29 20.6,-38.19 19.29,-21.39 41.74,-39.63 61.32,-60.73 6.1,-6.52 11.59,-13.93 14.25,-22.56 4,-12.61 3.47,-25.98 3.83,-39.03 -0.02,-54.33 0.01,-108.66 -0.01,-162.99 -0.16,-5.71 3.04,-11.53 8.32,-13.94 m -54.35,315.57 c -9.69,9.21 -17.55,20.93 -19.67,34.34 -2.23,14.95 -0.64,30.11 0.28,45.11 7.03,-1.73 13.51,-5.15 20.33,-7.55 11.32,-4.69 23.36,-8.85 32.52,-17.32 7.88,-7.15 11.11,-17.87 12.26,-28.14 2.07,-19.55 0.17,-39.21 -1.21,-58.74 -15.57,9.67 -31.16,19.63 -44.51,32.3 z"
       id="path5" />
    <path
       style="opacity:1;fill:#377a2a;stroke-width:6.78612041"
       inkscape:connector-curvature="0"
       d="m 400.08,120.18 c 6.59,-2.95 15.07,-2.88 20.95,1.66 3.63,2.88 5.57,7.57 5.48,12.16 -0.03,34.32 0,68.65 -0.01,102.98 0.11,24.69 -0.26,49.37 0.23,74.05 0.55,10.3 1.27,20.95 5.74,30.42 4.84,10.54 13.47,18.54 21.36,26.78 15.76,15.52 32.32,30.22 47.63,46.2 9.01,9.65 17.61,20.19 22.27,32.69 3.66,9.84 4.34,20.5 3.86,30.9 -0.72,28.82 -1.38,57.63 -1.51,86.45 -21.62,-6.33 -42.73,-14.37 -63.38,-23.34 -15.94,-7.18 -31.7,-14.93 -46.29,-24.61 -10.2,-6.91 -20.18,-15.6 -24.22,-27.63 -4.49,-13.22 -0.53,-27.26 -2.48,-40.79 -1.42,-36.36 -0.86,-72.76 -0.98,-109.14 -0.13,-30.98 0.33,-61.95 0.19,-92.93 0.84,-15.99 -0.02,-32.02 0.55,-48.02 -0.06,-20.67 0.31,-41.34 0.3,-62.01 -0.23,-6.82 4.15,-13.12 10.31,-15.82 m 28.19,283.15 c -1.35,10.84 -1.76,21.79 -2.15,32.71 -0.13,14.84 -0.84,30.51 5.65,44.28 5.22,11 16.38,17.31 27.12,21.93 10.81,4.85 22.05,8.66 32.89,13.42 1.15,-14.44 2.57,-29.08 0.77,-43.53 -1.53,-12.78 -8.13,-24.45 -17.07,-33.52 -13.77,-14.17 -30.68,-24.68 -47.21,-35.29 z"
       id="path7" />
    <path
       style="opacity:1;fill:#377a2a;stroke-width:6.78612041"
       inkscape:connector-curvature="0"
       d="m 1053.03,463.28 c 13.25,-7.23 25.64,-16 36.77,-26.18 -11.04,36.6 -28.04,71.69 -52.08,101.56 -23,28.95 -52.24,52.71 -84.71,70.3 -24.6,13.46 -50.98,23.51 -77.99,30.93 -23.43,6.38 -47.36,10.67 -71.14,15.48 -36.27,7.05 -72.65,13.51 -108.69,21.62 -36.18,8.35 -72.55,18.09 -105.5,35.64 -8.77,4.49 -16.74,10.28 -25.01,15.58 2.27,-19.34 0.8,-38.82 0.23,-58.21 0.25,-17.14 0.06,-34.81 6.18,-51.09 5.51,-15.48 16.82,-28.25 29.87,-37.93 17.51,-12.87 37.6,-21.71 57.96,-29.02 39.44,-13.57 80.93,-19.58 122.11,-25.16 34.3,-4.48 68.71,-8.25 102.81,-14.14 31.56,-5.23 63.05,-11.26 93.87,-19.92 25.95,-7.4 51.61,-16.45 75.32,-29.46 m -57.09,64.2 c -11.69,4.61 -23.71,8.31 -35.77,11.79 -61.76,17.25 -125.41,26.08 -188.64,36.02 -34.59,5.49 -69.42,10.48 -103.12,20.27 -18.81,5.85 -38.25,13.19 -51.99,27.92 -11.18,11.73 -16.35,27.68 -19.14,43.31 23.68,-9.17 48.06,-16.5 72.8,-22.21 34.1,-7.89 68.55,-14.16 102.85,-21.13 32.87,-6.55 65.79,-13.21 97.94,-22.8 25.12,-7.5 49.73,-17.15 72.31,-30.57 19.41,-11.7 37.32,-25.98 52.76,-42.6 z"
       id="path9" />
    <path
       style="opacity:1;fill:#377a2a;stroke-width:6.78612041"
       inkscape:connector-curvature="0"
       d="m 0.93,437.45 c 16.6,15.22 36.2,26.78 56.72,35.89 40.27,17.67 83.41,27.52 126.51,35.47 25.45,4.48 50.96,8.7 76.62,11.85 45.29,5.87 90.87,10.58 135.39,21.1 23.47,5.53 46.48,13.26 68.1,24 14.72,7.45 29.02,16.43 40.15,28.77 9.54,10.43 15.97,23.57 18.52,37.47 5.74,31.89 -1.08,64.33 2.76,96.36 -13,-9.2 -26.74,-17.33 -41.34,-23.72 -25.19,-11.19 -51.81,-18.69 -78.53,-25.18 -44.26,-10.5 -89.16,-18.01 -133.75,-26.93 -20.66,-4.22 -41.42,-8.12 -61.68,-14.02 C 170.48,627.07 131.98,609.46 98.97,584.06 69.44,561.51 44.82,532.67 26.87,500.16 16,480.29 7.03,459.28 0.93,437.45 m 93.92,90.42 c 9.99,10.89 21.27,20.6 33.12,29.42 28.99,21.54 62.91,35.28 97.45,45.11 46.45,13.12 94.1,21.19 141.34,30.84 42.72,8.42 85.6,17.44 126.2,33.54 -2.55,-15.8 -8.09,-31.73 -19.22,-43.59 -11.49,-12.14 -27.06,-19.24 -42.6,-24.68 -19.92,-6.73 -40.57,-11.02 -61.22,-14.83 -45.33,-8.07 -91,-14.06 -136.36,-22 -46.9,-8.16 -93.84,-17.59 -138.71,-33.81 z"
       id="path11" />
    <path
       style="opacity:1;fill:#377a2a;stroke-width:6.78612041"
       inkscape:connector-curvature="0"
       d="m 44.03,574.7 c 13.67,14.51 28.23,28.32 44.72,39.62 32.29,22.58 70.46,34.15 107.87,45.08 66,19.68 134.25,29.97 201.32,45.16 22.25,5.27 44.63,10.67 65.71,19.7 15.26,6.59 29.9,15.78 40.05,29.19 10.08,13.02 15.06,29.3 16.68,45.52 2.06,18.93 -0.63,38.03 1.61,56.96 0.43,27.11 -0.69,54.21 -0.71,81.32 -39.63,0.09 -79.26,-0.06 -118.89,0.07 -0.26,-21.45 0.01,-42.9 -0.13,-64.35 -0.42,-10.62 -2.2,-21.8 -8.93,-30.39 -8.2,-10.67 -20.97,-16.38 -33.4,-20.57 -22.99,-7.46 -47.04,-10.78 -70.44,-16.65 C 266.41,799.3 243.84,791.51 221.3,783.71 167.77,766.32 118.57,733.3 85.79,687.13 62.26,654.22 47.69,614.98 44.03,574.7 m 76.3,98.59 c 6.77,11.33 15.18,21.69 24.91,30.61 25.03,23.07 56.51,37.58 88.3,48.81 41.14,14.09 83.44,24.31 125.49,35.22 19.61,5.49 39.88,10.57 57.13,21.84 11.04,7.08 18.9,19.01 20.19,32.16 1.64,18.85 2.69,37.83 1.89,56.75 16.07,0.11 32.13,-0.02 48.2,0.07 0.14,-21.58 0.03,-43.17 0.06,-64.76 -0.2,-18.33 -2.87,-37.59 -13.38,-53.09 -7.88,-11.97 -20.16,-20.35 -33.26,-25.74 -11.95,-5.05 -24.82,-7.14 -37.44,-9.84 C 350.46,734.56 298.47,723.93 246.51,713.18 203.3,703.99 160.79,691.13 120.33,673.29 Z"
       id="path13" />
    <path
       style="opacity:1;fill:#377a2a;stroke-width:6.78612041"
       inkscape:connector-curvature="0"
       d="m 988.51,621.56 c 20.9,-12.5 39.08,-28.99 55.73,-46.64 -3.76,39.07 -17.41,77.22 -39.81,109.49 -30.96,45.03 -77.53,78.11 -128.72,96.41 -21.97,7.67 -43.96,15.35 -66.34,21.78 -26.74,7.95 -54.69,11.01 -81.25,19.65 -11.89,4.06 -24.07,9.41 -32.3,19.28 -6.9,8.1 -9.35,18.99 -9.69,29.39 -0.26,22.21 0.29,44.43 -0.28,66.62 -39.58,-0.07 -79.16,-0.06 -118.73,0 -0.64,-15.84 -0.43,-31.69 -0.84,-47.53 0.26,-15.03 -0.61,-30.09 0.76,-45.07 0.95,-12.64 -0.88,-25.29 0.2,-37.92 0.73,-18.46 5.33,-37.38 16.5,-52.41 9.23,-12.67 22.54,-21.71 36.6,-28.28 21.03,-9.7 43.63,-15.24 66.05,-20.68 59.62,-13.77 120.19,-23.26 179.4,-38.85 20.2,-5.37 40.22,-11.37 60.13,-17.72 21.66,-7.16 43.07,-15.58 62.59,-27.52 m -118.43,85.18 c -25.76,6.6 -51.94,11.34 -77.95,16.85 -36.77,7.53 -73.54,15.1 -110.29,22.75 -13.03,2.57 -26.21,5.29 -38.25,11.09 -14.17,6.52 -26.46,17.56 -33.2,31.75 -7.45,15.44 -8.85,32.93 -8.68,49.83 -0.03,19.86 0.1,39.73 -0.06,59.59 16.02,0.27 32.05,0.08 48.08,0.1 -0.25,-17.56 0.25,-35.12 1.73,-52.63 0.51,-10.07 3.92,-20.26 10.86,-27.73 9.03,-9.89 21.55,-15.6 33.9,-20.18 15.08,-5.48 30.65,-9.44 46.16,-13.49 28.5,-7.16 56.93,-14.6 85.09,-23 35.89,-10.87 71.97,-23.96 102.28,-46.61 15.19,-11.31 28.46,-25.33 38.12,-41.66 -31.52,14 -64.37,24.89 -97.79,33.34 z"
       id="path15" />
    <path
       style="opacity:1;fill:#377a2a;stroke-width:6.78612041"
       inkscape:connector-curvature="0"
       d="m 213.95,1061.11 c 22.61,-2.77 46.07,-0.7 67.38,7.61 -1.19,11.73 -2.05,23.48 -3.05,35.23 -8.92,-4.38 -18.17,-8.39 -28.11,-9.7 -13.37,-1.77 -27.35,-2 -40.27,2.39 -15.07,4.84 -28.07,15.6 -35.83,29.37 -7.89,13.51 -11.07,29.41 -10.66,44.95 0.34,20.45 7.88,41.54 23.56,55.23 13.56,12.01 32.15,17.09 50.01,16.32 14.51,-0.54 29.33,-2.56 42.66,-8.6 0.77,11.58 1.31,23.19 1.82,34.79 -4.11,1.93 -9.02,2.17 -13.46,3.3 -26.07,5.36 -53.45,5.03 -79.1,-2.29 -16.37,-4.86 -32.05,-13.17 -43.81,-25.74 -15.77,-16.24 -23.53,-38.76 -25.12,-61.02 -1.82,-25.86 1.86,-53.02 15.4,-75.54 7.97,-13.3 19.51,-24.39 32.97,-32.06 13.97,-7.93 29.71,-12.39 45.61,-14.24 z"
       id="path17" />
    <path
       style="opacity:1;fill:#377a2a;stroke-width:6.78612041"
       inkscape:connector-curvature="0"
       d="m 377.44,1064.61 c 16.46,-4.29 33.63,-5.3 50.57,-4.36 16.79,0.67 33.5,3.49 49.57,8.4 -0.89,11.81 -1.87,23.61 -2.66,35.44 -12.97,-5.67 -26.88,-8.98 -40.94,-10.42 -13.04,-1.14 -26.44,-0.89 -39.04,3.02 -14.8,4.34 -28.16,13.78 -36.66,26.71 -12.84,19.57 -15.34,44.68 -9.98,67.14 4.39,18.64 16.51,35.78 33.88,44.33 18.83,9.66 41.12,9.09 61.33,4.8 -0.03,-18.06 -0.02,-36.11 0,-54.17 -14.66,-0.01 -29.32,0.03 -43.98,-0.03 -0.05,-10.99 -0.03,-21.99 -0.01,-32.98 28.05,0.01 56.11,0.01 84.17,0 0.05,37.5 0.04,75 0,112.51 -21.15,5.54 -42.73,10.29 -64.68,10.64 -20.46,0.3 -41.27,-2.42 -60.25,-10.36 -17.12,-7.11 -32.35,-19.22 -42.04,-35.13 -12.35,-19.93 -15.89,-44.13 -14.65,-67.22 1.09,-23.27 7.67,-47.02 22.5,-65.38 13.16,-16.67 32.44,-27.77 52.87,-32.94 z"
       id="path19" />
    <path
       style="opacity:1;fill:#377a2a;stroke-width:6.78612041"
       inkscape:connector-curvature="0"
       d="m 523.71,1063.58 c 13.99,-0.15 27.98,0.01 41.97,-0.08 0.1,69.47 -0.04,138.94 0.07,208.41 -14,0.27 -28.02,0.23 -42.02,0.02 -0.02,-69.45 0.02,-138.9 -0.02,-208.35 z"
       id="path21" />
    <path
       style="opacity:1;fill:#377a2a;stroke-width:6.78612041"
       inkscape:connector-curvature="0"
       d="m 670.37,1063.59 c 15.66,-0.15 31.34,-0.05 47.01,-0.05 27.37,69.41 54.53,138.91 81.85,208.34 -15.58,0.23 -31.2,0.47 -46.77,-0.13 -5.63,-15.91 -11.83,-31.63 -17.64,-47.48 -28.08,0.02 -56.16,-0.09 -84.23,0.05 -5.92,15.88 -12.2,31.62 -18.01,47.54 -14.57,0.36 -29.17,0.3 -43.74,0.03 24.94,-63.81 49.75,-127.67 74.66,-191.49 2.36,-5.56 4.07,-11.51 6.87,-16.81 m 22.41,42.08 c -3.94,10.3 -7.35,20.8 -11.08,31.18 -6.19,18.16 -13.04,36.11 -18.79,54.41 20.04,0.05 40.07,0.06 60.11,-0.01 -3.44,-10.16 -7.08,-20.24 -10.59,-30.36 -6.65,-18.37 -12.64,-37 -19.65,-55.22 z"
       id="path23" />
    <path
       style="opacity:1;fill:#377a2a;stroke-width:6.78612041"
       inkscape:connector-curvature="0"
       d="m 822.31,1063.52 c 15.9,0 31.8,0.01 47.7,0 19.41,0.08 39.19,-0.3 58.09,4.82 9.41,2.61 18.61,7.06 25.25,14.39 5.72,5.95 9.11,13.77 10.86,21.76 2.59,12.91 2.23,26.94 -3.98,38.81 -7.17,14.17 -22,23.31 -37.53,25.29 5.55,1.07 10.75,3.92 14.22,8.44 6.46,7.75 9.43,17.53 13.35,26.65 9.32,22.8 18.74,45.55 28,68.37 -15.68,-0.1 -31.37,0.3 -47.04,-0.21 -7.78,-20.81 -15.92,-41.49 -23.87,-62.23 -3.02,-7.83 -6.12,-16.76 -13.94,-21.02 -9,-4.53 -19.4,-2.64 -29.08,-3.12 -0.14,28.81 -0.04,57.63 -0.05,86.45 -14.01,0.25 -28.03,0.24 -42.03,-0.02 0.09,-69.46 -0.03,-138.92 0.05,-208.38 m 41.98,32.97 c 0,18.68 -0.08,37.36 0.03,56.05 11.76,-0.22 23.72,0.62 35.27,-2.1 6.43,-1.57 12.97,-4.38 17.1,-9.77 5.52,-7.18 6.18,-17.1 4.05,-25.63 -2.14,-8.4 -9.94,-13.94 -18.01,-15.95 -12.53,-3.27 -25.63,-2.4 -38.44,-2.6 z"
       id="path25" />
  </g>
  <path
     style="fill:#00f03c;fill-opacity:1"
     d="m 166.75048,25 v 3.230447"
     id="path4653"
     inkscape:connector-curvature="0" />
  <path
     style="fill:#00703c;fill-opacity:1"
     d="M 166.75048,0 V 61.994796"
     id="path4655"
     inkscape:connector-curvature="0" />
  <path
     style="fill:#00703c;fill-opacity:1;stroke:#00703c;stroke-width:1;stroke-miterlimit:4;stroke-dasharray:none;stroke-opacity:1"
     d="M 188.45078,1.9947963 V 22.22004 36.892506 44.14035 55.000003 Z"
     id="path4661"
     inkscape:connector-curvature="0"
     sodipodi:nodetypes="cccccc" />
  <g
     id="Designs"
     style="fill:none;fill-rule:evenodd;stroke:none;stroke-width:1.81847751"
     transform="matrix(0.54991057,0.00199638,0,0.54991057,0.48274475,2.7303492)">
    <g
       id="Group"
       style="stroke-width:2.11405015"
       transform="matrix(0.86018654,0,0,0.86018654,-1.8818165,-4.659144)">
      <polygon
         id="Fill-1"
         points="100,31 100,76.789 111.414,76.789 111.414,31 "
         style="fill:#00703c;stroke-width:2.11405015" />
      <path
         d="m 164.648,63.428 v 10.004 c -5.73,3.044 -11.727,4.566 -17.994,4.566 -8.135,0 -14.603,-2.249 -19.426,-6.737 C 122.405,66.763 120,61.224 120,54.644 120,48.065 122.54,42.481 127.62,37.882 132.7,33.294 139.336,31 147.527,31 c 6.535,0 12.063,1.343 16.583,4.028 v 10.206 c -5.55,-3.133 -10.809,-4.7 -15.766,-4.7 -4.879,0 -8.863,1.309 -11.951,3.916 -3.1,2.607 -4.644,5.942 -4.644,9.982 0,4.062 1.522,7.419 4.577,10.071 3.044,2.64 6.96,3.961 11.727,3.961 2.361,0 4.633,-0.313 6.814,-0.929 2.194,-0.626 5.45,-1.992 9.781,-4.107"
         id="Fill-2"
         inkscape:connector-curvature="0"
         style="fill:#00703c;stroke-width:2.11405015" />
      <path
         d="m 200.69,31 20.276,45.79 h -12.264 l -3.771,-9.064 h -20.433 l -3.413,9.064 H 169 L 187.397,31 Z m 0.918,28.736 -7.397,-17.792 -6.703,17.792 z"
         id="Fill-3"
         inkscape:connector-curvature="0"
         style="fill:#00703c;stroke-width:2.11405015" />
      <path
         d="m 226,31 h 20.422 c 4.431,0 8.034,1.287 10.809,3.85 2.764,2.573 4.152,5.684 4.152,9.332 0,5.058 -2.63,8.795 -7.878,11.224 2.316,1.018 4.51,3.827 6.58,8.403 2.07,4.588 4.073,8.919 5.998,12.981 h -12.488 c -0.75,-1.511 -2.059,-4.387 -3.928,-8.617 -1.857,-4.241 -3.458,-6.971 -4.767,-8.168 -1.32,-1.209 -2.719,-1.813 -4.23,-1.813 h -3.256 V 76.79 H 226 Z m 11.414,8.393 V 49.8 h 5.998 c 1.913,0 3.424,-0.448 4.543,-1.355 1.119,-0.906 1.678,-2.204 1.678,-3.883 0,-3.446 -2.159,-5.169 -6.479,-5.169 z"
         id="Fill-4"
         inkscape:connector-curvature="0"
         style="fill:#00703c;stroke-width:2.11405015" />
      <path
         d="m 272,31 h 20.198 c 7.811,0 13.977,2.137 18.52,6.412 4.532,4.263 6.803,9.791 6.803,16.561 0,7.106 -2.305,12.678 -6.904,16.741 -4.599,4.05 -11.168,6.076 -19.694,6.076 H 272 Z m 11.414,8.393 v 29.004 h 7.442 c 4.834,0 8.526,-1.331 11.077,-3.983 2.563,-2.653 3.839,-6.155 3.839,-10.508 0,-4.498 -1.298,-8.046 -3.883,-10.63 -2.596,-2.585 -6.311,-3.883 -11.168,-3.883 z"
         id="Fill-5"
         inkscape:connector-curvature="0"
         style="fill:#00703c;stroke-width:2.11405015" />
      <path
         d="m 348.689,31 20.277,45.79 h -12.265 l -3.771,-9.064 h -20.433 l -3.413,9.064 H 317 L 335.396,31 Z m 0.918,28.736 -7.397,-17.792 -6.702,17.792 z"
         id="Fill-6"
         inkscape:connector-curvature="0"
         style="fill:#00703c;stroke-width:2.11405015" />
      <path
         d="M 8.646,97.726 C 8.568,97.862 8.486,97.96 8.398,98.022 8.311,98.084 8.2,98.116 8.07,98.116 7.933,98.116 7.786,98.064 7.627,97.963 7.467,97.862 7.275,97.752 7.053,97.628 6.832,97.504 6.575,97.39 6.278,97.289 5.982,97.188 5.63,97.139 5.227,97.139 c -0.365,0 -0.684,0.043 -0.958,0.131 -0.273,0.088 -0.501,0.211 -0.687,0.368 -0.186,0.156 -0.326,0.342 -0.417,0.56 -0.091,0.218 -0.136,0.459 -0.136,0.72 0,0.331 0.094,0.608 0.28,0.83 0.185,0.221 0.43,0.41 0.735,0.566 0.307,0.157 0.655,0.297 1.046,0.421 0.391,0.123 0.791,0.254 1.201,0.394 0.411,0.14 0.811,0.302 1.202,0.488 0.391,0.186 0.739,0.42 1.046,0.703 0.306,0.284 0.553,0.632 0.739,1.043 0.185,0.41 0.276,0.908 0.276,1.494 0,0.638 -0.107,1.234 -0.325,1.791 -0.218,0.557 -0.537,1.042 -0.958,1.456 -0.42,0.413 -0.934,0.739 -1.54,0.977 -0.606,0.237 -1.299,0.358 -2.081,0.358 -0.449,0 -0.892,-0.046 -1.328,-0.134 C 2.885,109.217 2.468,109.094 2.068,108.931 1.667,108.768 1.29,108.573 0.938,108.345 0.586,108.117 0.274,107.863 0,107.583 l 0.772,-1.261 c 0.065,-0.091 0.15,-0.169 0.254,-0.231 C 1.13,106.029 1.241,106 1.358,106 c 0.163,0 0.339,0.065 0.528,0.199 0.188,0.133 0.413,0.283 0.674,0.446 0.26,0.163 0.566,0.309 0.915,0.443 0.348,0.133 0.765,0.202 1.253,0.202 0.749,0 1.329,-0.179 1.74,-0.534 0.41,-0.355 0.615,-0.863 0.615,-1.528 0,-0.371 -0.091,-0.674 -0.277,-0.908 -0.186,-0.235 -0.433,-0.433 -0.739,-0.593 -0.306,-0.159 -0.655,-0.293 -1.045,-0.404 -0.391,-0.11 -0.788,-0.231 -1.192,-0.361 -0.404,-0.13 -0.801,-0.287 -1.192,-0.469 -0.391,-0.182 -0.739,-0.42 -1.046,-0.713 -0.306,-0.293 -0.55,-0.661 -0.735,-1.101 -0.186,-0.439 -0.28,-0.98 -0.28,-1.625 0,-0.514 0.104,-1.016 0.309,-1.504 0.205,-0.489 0.501,-0.922 0.892,-1.3 C 2.169,95.873 2.651,95.57 3.224,95.342 3.797,95.114 4.455,95 5.197,95 c 0.834,0 1.602,0.13 2.306,0.391 0.703,0.26 1.303,0.625 1.797,1.094 l -0.654,1.241"
         id="Fill-7"
         inkscape:connector-curvature="0"
         style="fill:#00703c;stroke-width:2.11405015" />
      <path
         d="m 17.718,101.276 c -0.072,0.091 -0.14,0.163 -0.209,0.215 -0.068,0.052 -0.169,0.078 -0.299,0.078 -0.124,0 -0.244,-0.039 -0.362,-0.114 -0.117,-0.075 -0.257,-0.159 -0.42,-0.254 -0.162,-0.094 -0.355,-0.179 -0.579,-0.254 -0.225,-0.075 -0.505,-0.11 -0.837,-0.11 -0.423,0 -0.795,0.075 -1.114,0.228 -0.319,0.153 -0.583,0.374 -0.794,0.661 -0.212,0.286 -0.372,0.632 -0.476,1.039 -0.104,0.407 -0.156,0.869 -0.156,1.383 0,0.534 0.058,1.01 0.172,1.427 0.114,0.417 0.277,0.765 0.492,1.048 0.215,0.284 0.476,0.499 0.782,0.645 0.306,0.147 0.651,0.222 1.035,0.222 0.385,0 0.697,-0.049 0.935,-0.144 0.238,-0.094 0.436,-0.198 0.599,-0.312 0.163,-0.114 0.306,-0.218 0.427,-0.313 0.12,-0.094 0.254,-0.14 0.404,-0.14 0.195,0 0.341,0.075 0.439,0.225 l 0.694,0.879 c -0.267,0.313 -0.557,0.573 -0.87,0.785 -0.313,0.211 -0.635,0.381 -0.97,0.508 -0.336,0.127 -0.681,0.218 -1.036,0.27 -0.355,0.052 -0.71,0.078 -1.061,0.078 -0.619,0 -1.202,-0.117 -1.749,-0.348 -0.547,-0.231 -1.026,-0.567 -1.436,-1.01 -0.41,-0.443 -0.733,-0.986 -0.971,-1.628 C 10.121,105.698 10,104.969 10,104.148 c 0,-0.735 0.108,-1.419 0.319,-2.048 0.212,-0.628 0.521,-1.172 0.932,-1.631 0.41,-0.459 0.918,-0.818 1.524,-1.078 C 13.38,99.13 14.077,99 14.865,99 c 0.749,0 1.407,0.121 1.97,0.362 0.564,0.241 1.068,0.586 1.518,1.035 l -0.635,0.879"
         id="Fill-8"
         inkscape:connector-curvature="0"
         style="fill:#00703c;stroke-width:2.11405015" />
      <path
         d="m 20.332,109.487 h 2.423 V 99.464 h -2.423 z m 2.755,-12.944 c 0,0.209 -0.042,0.404 -0.127,0.586 -0.085,0.183 -0.195,0.342 -0.335,0.479 -0.14,0.137 -0.306,0.244 -0.495,0.326 -0.189,0.081 -0.391,0.124 -0.606,0.124 -0.208,0 -0.404,-0.043 -0.589,-0.124 C 20.749,97.852 20.586,97.745 20.449,97.608 20.313,97.471 20.205,97.312 20.124,97.129 20.042,96.947 20,96.752 20,96.543 c 0,-0.215 0.042,-0.416 0.124,-0.606 0.081,-0.188 0.189,-0.351 0.325,-0.488 0.137,-0.137 0.3,-0.247 0.486,-0.329 0.185,-0.081 0.381,-0.12 0.589,-0.12 0.215,0 0.417,0.039 0.606,0.12 0.189,0.082 0.355,0.192 0.495,0.329 0.14,0.137 0.25,0.3 0.335,0.488 0.085,0.19 0.127,0.391 0.127,0.606 z"
         id="Fill-9"
         inkscape:connector-curvature="0"
         style="fill:#00703c;stroke-width:2.11405015" />
      <path
         d="m 29.816,99 c 0.632,0 1.215,0.101 1.749,0.303 0.534,0.202 0.993,0.495 1.377,0.882 0.384,0.388 0.687,0.863 0.906,1.427 0.218,0.563 0.325,1.208 0.325,1.931 0,0.365 -0.039,0.609 -0.117,0.736 -0.078,0.127 -0.228,0.192 -0.449,0.192 h -6.204 c 0.039,0.514 0.13,0.957 0.274,1.332 0.143,0.374 0.332,0.683 0.566,0.928 0.235,0.244 0.515,0.426 0.837,0.547 0.322,0.12 0.678,0.182 1.068,0.182 0.391,0 0.73,-0.045 1.013,-0.136 0.283,-0.092 0.531,-0.193 0.742,-0.303 0.212,-0.111 0.398,-0.212 0.557,-0.303 0.16,-0.091 0.313,-0.137 0.463,-0.137 0.202,0 0.352,0.075 0.449,0.225 l 0.694,0.879 c -0.267,0.313 -0.567,0.573 -0.899,0.785 -0.332,0.211 -0.677,0.381 -1.039,0.508 -0.361,0.127 -0.729,0.218 -1.104,0.27 -0.374,0.052 -0.739,0.078 -1.091,0.078 -0.696,0 -1.345,-0.117 -1.944,-0.348 -0.599,-0.231 -1.12,-0.573 -1.563,-1.026 -0.443,-0.453 -0.791,-1.013 -1.045,-1.68 -0.254,-0.668 -0.381,-1.44 -0.381,-2.319 0,-0.684 0.111,-1.328 0.332,-1.931 0.222,-0.602 0.54,-1.127 0.954,-1.573 C 26.7,100.003 27.204,99.651 27.8,99.391 28.396,99.13 29.067,99 29.816,99 Z m 0.049,1.729 c -0.703,0 -1.254,0.199 -1.651,0.596 -0.397,0.397 -0.651,0.961 -0.762,1.69 h 4.552 c 0,-0.312 -0.042,-0.609 -0.13,-0.886 -0.088,-0.276 -0.221,-0.517 -0.397,-0.726 -0.176,-0.208 -0.397,-0.374 -0.668,-0.495 -0.27,-0.12 -0.586,-0.179 -0.944,-0.179 z"
         id="Fill-10"
         inkscape:connector-curvature="0"
         style="fill:#00703c;stroke-width:2.11405015" />
      <path
         d="M 36,109.18 V 99.156 h 1.475 c 0.313,0 0.518,0.147 0.615,0.44 l 0.166,0.791 c 0.202,-0.208 0.417,-0.397 0.642,-0.566 0.225,-0.17 0.462,-0.316 0.713,-0.44 0.251,-0.124 0.518,-0.218 0.804,-0.283 0.287,-0.066 0.6,-0.098 0.938,-0.098 0.547,0 1.033,0.091 1.456,0.277 0.423,0.185 0.778,0.446 1.061,0.781 0.284,0.336 0.499,0.736 0.645,1.202 0.147,0.466 0.218,0.98 0.218,1.54 v 6.38 h -2.412 v -6.38 c 0,-0.612 -0.141,-1.087 -0.421,-1.423 -0.28,-0.335 -0.706,-0.501 -1.279,-0.501 -0.417,0 -0.808,0.094 -1.173,0.283 -0.364,0.189 -0.71,0.446 -1.035,0.772 v 7.249 H 36"
         id="Fill-11"
         inkscape:connector-curvature="0"
         style="fill:#00703c;stroke-width:2.11405015" />
      <path
         d="m 53.718,101.276 c -0.072,0.091 -0.14,0.163 -0.209,0.215 -0.068,0.052 -0.169,0.078 -0.299,0.078 -0.124,0 -0.244,-0.039 -0.362,-0.114 -0.117,-0.075 -0.257,-0.159 -0.42,-0.254 -0.163,-0.094 -0.355,-0.179 -0.579,-0.254 -0.225,-0.075 -0.505,-0.11 -0.837,-0.11 -0.423,0 -0.795,0.075 -1.114,0.228 -0.319,0.153 -0.583,0.374 -0.795,0.661 -0.211,0.286 -0.371,0.632 -0.475,1.039 -0.104,0.407 -0.156,0.869 -0.156,1.383 0,0.534 0.058,1.01 0.172,1.427 0.114,0.417 0.277,0.765 0.492,1.048 0.215,0.284 0.475,0.499 0.782,0.645 0.306,0.147 0.651,0.222 1.035,0.222 0.384,0 0.697,-0.049 0.935,-0.144 0.237,-0.094 0.436,-0.198 0.599,-0.312 0.163,-0.114 0.306,-0.218 0.426,-0.313 0.121,-0.094 0.254,-0.14 0.404,-0.14 0.196,0 0.342,0.075 0.44,0.225 l 0.693,0.879 c -0.267,0.313 -0.556,0.573 -0.869,0.785 -0.313,0.211 -0.635,0.381 -0.97,0.508 -0.336,0.127 -0.681,0.218 -1.036,0.27 -0.355,0.052 -0.71,0.078 -1.062,0.078 -0.618,0 -1.201,-0.117 -1.748,-0.348 -0.547,-0.231 -1.026,-0.567 -1.436,-1.01 -0.411,-0.443 -0.733,-0.986 -0.971,-1.628 C 46.121,105.698 46,104.969 46,104.148 c 0,-0.735 0.108,-1.419 0.319,-2.048 0.212,-0.628 0.521,-1.172 0.931,-1.631 0.411,-0.459 0.919,-0.818 1.525,-1.078 C 49.38,99.13 50.077,99 50.865,99 c 0.749,0 1.407,0.121 1.97,0.362 0.564,0.241 1.068,0.586 1.518,1.035 l -0.635,0.879"
         id="Fill-12"
         inkscape:connector-curvature="0"
         style="fill:#00703c;stroke-width:2.11405015" />
      <path
         d="m 60.816,99 c 0.632,0 1.215,0.101 1.749,0.303 0.534,0.202 0.993,0.495 1.378,0.882 0.384,0.388 0.687,0.863 0.905,1.427 0.218,0.563 0.325,1.208 0.325,1.931 0,0.365 -0.039,0.609 -0.117,0.736 -0.078,0.127 -0.228,0.192 -0.449,0.192 h -6.204 c 0.04,0.514 0.131,0.957 0.274,1.332 0.143,0.374 0.332,0.683 0.567,0.928 0.234,0.244 0.514,0.426 0.836,0.547 0.323,0.12 0.678,0.182 1.068,0.182 0.391,0 0.73,-0.045 1.013,-0.136 0.283,-0.092 0.531,-0.193 0.743,-0.303 0.211,-0.111 0.397,-0.212 0.557,-0.303 0.159,-0.091 0.312,-0.137 0.462,-0.137 0.202,0 0.352,0.075 0.449,0.225 l 0.694,0.879 c -0.267,0.313 -0.567,0.573 -0.899,0.785 -0.332,0.211 -0.677,0.381 -1.039,0.508 -0.361,0.127 -0.729,0.218 -1.104,0.27 -0.374,0.052 -0.739,0.078 -1.09,0.078 -0.697,0 -1.345,-0.117 -1.944,-0.348 -0.6,-0.231 -1.121,-0.573 -1.564,-1.026 -0.442,-0.453 -0.791,-1.013 -1.045,-1.68 -0.254,-0.668 -0.381,-1.44 -0.381,-2.319 0,-0.684 0.111,-1.328 0.332,-1.931 0.222,-0.602 0.541,-1.127 0.954,-1.573 0.414,-0.446 0.919,-0.798 1.515,-1.058 C 59.397,99.13 60.067,99 60.816,99 Z m 0.049,1.729 c -0.703,0 -1.253,0.199 -1.651,0.596 -0.397,0.397 -0.651,0.961 -0.762,1.69 h 4.553 c 0,-0.312 -0.043,-0.609 -0.13,-0.886 -0.088,-0.276 -0.222,-0.517 -0.398,-0.726 -0.176,-0.208 -0.397,-0.374 -0.667,-0.495 -0.271,-0.12 -0.587,-0.179 -0.945,-0.179 z"
         id="Fill-13"
         inkscape:connector-curvature="0"
         style="fill:#00703c;stroke-width:2.11405015" />
      <path
         d="m 71.494,109.371 v -8.207 l -0.869,-0.136 C 70.436,100.989 70.286,100.92 70.172,100.826 70.058,100.731 70,100.598 70,100.422 v -0.987 h 1.494 v -0.742 c 0,-0.573 0.088,-1.088 0.261,-1.544 0.173,-0.456 0.42,-0.843 0.742,-1.162 0.323,-0.32 0.713,-0.564 1.176,-0.733 C 74.135,95.085 74.656,95 75.236,95 c 0.462,0 0.892,0.062 1.29,0.186 l -0.049,1.211 c -0.007,0.091 -0.033,0.163 -0.078,0.218 -0.046,0.056 -0.105,0.098 -0.18,0.127 -0.074,0.03 -0.162,0.049 -0.26,0.059 -0.098,0.01 -0.202,0.016 -0.313,0.016 -0.286,0 -0.54,0.029 -0.765,0.091 -0.225,0.062 -0.417,0.17 -0.573,0.323 -0.156,0.153 -0.273,0.355 -0.355,0.606 -0.081,0.25 -0.124,0.563 -0.124,0.934 v 0.664 h 2.609 v 1.72 h -2.531 v 8.216 h -2.413"
         id="Fill-14"
         inkscape:connector-curvature="0"
         style="fill:#00703c;stroke-width:2.11405015" />
      <path
         d="m 81.973,99 c 0.743,0 1.42,0.121 2.029,0.362 0.609,0.241 1.13,0.582 1.563,1.025 0.433,0.443 0.765,0.984 0.999,1.622 0.235,0.638 0.352,1.351 0.352,2.139 0,0.795 -0.117,1.511 -0.352,2.15 -0.234,0.638 -0.566,1.182 -0.999,1.631 -0.433,0.45 -0.954,0.795 -1.563,1.036 -0.609,0.241 -1.286,0.361 -2.029,0.361 -0.749,0 -1.43,-0.12 -2.042,-0.361 -0.612,-0.241 -1.133,-0.586 -1.566,-1.036 -0.433,-0.449 -0.769,-0.993 -1.006,-1.631 -0.238,-0.639 -0.359,-1.355 -0.359,-2.15 0,-0.788 0.121,-1.501 0.359,-2.139 0.237,-0.638 0.573,-1.179 1.006,-1.622 0.433,-0.443 0.954,-0.784 1.566,-1.025 C 80.543,99.121 81.224,99 81.973,99 Z m 0,8.47 c 0.834,0 1.452,-0.28 1.853,-0.84 0.4,-0.56 0.599,-1.381 0.599,-2.462 0,-1.081 -0.199,-1.905 -0.599,-2.472 -0.401,-0.566 -1.019,-0.85 -1.853,-0.85 -0.847,0 -1.472,0.284 -1.879,0.854 -0.407,0.569 -0.612,1.393 -0.612,2.468 0,1.075 0.205,1.892 0.612,2.455 0.407,0.564 1.032,0.847 1.879,0.847 z"
         id="Fill-15"
         inkscape:connector-curvature="0"
         style="fill:#00703c;stroke-width:2.11405015" />
      <path
         d="M 89,109.209 V 99.185 h 1.416 c 0.248,0 0.42,0.043 0.518,0.13 0.098,0.089 0.163,0.248 0.195,0.476 l 0.137,1.133 C 91.585,100.325 91.96,99.853 92.39,99.511 92.819,99.169 93.327,99 93.914,99 c 0.462,0 0.833,0.101 1.113,0.303 l -0.156,1.807 c -0.032,0.117 -0.078,0.199 -0.14,0.247 -0.062,0.049 -0.146,0.075 -0.251,0.075 -0.098,0 -0.241,-0.016 -0.433,-0.049 -0.192,-0.032 -0.381,-0.048 -0.563,-0.048 -0.267,0 -0.505,0.039 -0.713,0.117 -0.209,0.078 -0.394,0.189 -0.56,0.335 -0.167,0.147 -0.313,0.326 -0.44,0.534 -0.127,0.209 -0.248,0.447 -0.358,0.714 v 6.174 H 89"
         id="Fill-16"
         inkscape:connector-curvature="0"
         style="fill:#00703c;stroke-width:2.11405015" />
      <path
         d="M 101,109.209 V 99.185 h 1.417 c 0.247,0 0.42,0.043 0.518,0.13 0.097,0.089 0.163,0.248 0.195,0.476 l 0.137,1.133 c 0.319,-0.599 0.693,-1.071 1.123,-1.413 0.43,-0.342 0.938,-0.511 1.524,-0.511 0.463,0 0.834,0.101 1.114,0.303 l -0.156,1.807 c -0.033,0.117 -0.078,0.199 -0.14,0.247 -0.062,0.049 -0.147,0.075 -0.251,0.075 -0.098,0 -0.241,-0.016 -0.433,-0.049 -0.192,-0.032 -0.381,-0.048 -0.563,-0.048 -0.267,0 -0.505,0.039 -0.714,0.117 -0.208,0.078 -0.394,0.189 -0.56,0.335 -0.166,0.147 -0.312,0.326 -0.439,0.534 -0.127,0.209 -0.248,0.447 -0.359,0.714 v 6.174 H 101"
         id="Fill-17"
         inkscape:connector-curvature="0"
         style="fill:#00703c;stroke-width:2.11405015" />
      <path
         d="m 111.816,99 c 0.632,0 1.215,0.101 1.749,0.303 0.534,0.202 0.993,0.495 1.377,0.882 0.385,0.388 0.688,0.863 0.906,1.427 0.218,0.563 0.325,1.208 0.325,1.931 0,0.365 -0.039,0.609 -0.117,0.736 -0.078,0.127 -0.228,0.192 -0.449,0.192 h -6.204 c 0.039,0.514 0.13,0.957 0.274,1.332 0.143,0.374 0.332,0.683 0.566,0.928 0.235,0.244 0.515,0.426 0.837,0.547 0.323,0.12 0.678,0.182 1.068,0.182 0.391,0 0.73,-0.045 1.013,-0.136 0.283,-0.092 0.531,-0.193 0.743,-0.303 0.211,-0.111 0.397,-0.212 0.557,-0.303 0.159,-0.091 0.312,-0.137 0.462,-0.137 0.202,0 0.352,0.075 0.449,0.225 l 0.694,0.879 c -0.267,0.313 -0.567,0.573 -0.899,0.785 -0.332,0.211 -0.677,0.381 -1.039,0.508 -0.361,0.127 -0.729,0.218 -1.104,0.27 -0.374,0.052 -0.739,0.078 -1.091,0.078 -0.696,0 -1.345,-0.117 -1.944,-0.348 -0.599,-0.231 -1.12,-0.573 -1.563,-1.026 -0.443,-0.453 -0.791,-1.013 -1.045,-1.68 -0.254,-0.668 -0.381,-1.44 -0.381,-2.319 0,-0.684 0.111,-1.328 0.332,-1.931 0.222,-0.602 0.541,-1.127 0.954,-1.573 0.414,-0.446 0.919,-0.798 1.514,-1.058 C 110.397,99.13 111.067,99 111.816,99 Z m 0.049,1.729 c -0.703,0 -1.254,0.199 -1.651,0.596 -0.397,0.397 -0.651,0.961 -0.762,1.69 h 4.552 c 0,-0.312 -0.042,-0.609 -0.13,-0.886 -0.088,-0.276 -0.221,-0.517 -0.397,-0.726 -0.176,-0.208 -0.397,-0.374 -0.668,-0.495 -0.27,-0.12 -0.586,-0.179 -0.944,-0.179 z"
         id="Fill-18"
         inkscape:connector-curvature="0"
         style="fill:#00703c;stroke-width:2.11405015" />
      <path
         d="m 124.828,101.11 c -0.065,0.104 -0.133,0.176 -0.205,0.218 -0.071,0.043 -0.163,0.065 -0.273,0.065 -0.117,0 -0.241,-0.032 -0.375,-0.097 -0.133,-0.065 -0.29,-0.14 -0.466,-0.222 -0.175,-0.081 -0.374,-0.153 -0.599,-0.218 -0.224,-0.065 -0.491,-0.098 -0.798,-0.098 -0.475,0 -0.846,0.101 -1.116,0.303 -0.271,0.202 -0.407,0.466 -0.407,0.792 0,0.215 0.071,0.394 0.211,0.54 0.14,0.147 0.326,0.277 0.557,0.388 0.231,0.111 0.492,0.208 0.785,0.296 0.293,0.088 0.592,0.186 0.895,0.29 0.303,0.104 0.599,0.221 0.893,0.355 0.293,0.133 0.557,0.303 0.788,0.508 0.231,0.205 0.417,0.452 0.557,0.739 0.14,0.287 0.208,0.632 0.208,1.036 0,0.481 -0.085,0.925 -0.257,1.332 -0.173,0.407 -0.43,0.758 -0.769,1.055 -0.338,0.296 -0.755,0.527 -1.253,0.693 -0.499,0.166 -1.075,0.251 -1.726,0.251 -0.346,0 -0.681,-0.032 -1.01,-0.095 -0.329,-0.061 -0.645,-0.146 -0.947,-0.257 -0.304,-0.11 -0.584,-0.241 -0.841,-0.391 -0.257,-0.149 -0.485,-0.312 -0.68,-0.488 l 0.556,-0.918 c 0.072,-0.111 0.157,-0.196 0.254,-0.254 0.098,-0.059 0.222,-0.088 0.372,-0.088 0.149,0 0.293,0.042 0.426,0.127 0.134,0.085 0.287,0.176 0.463,0.273 0.175,0.098 0.384,0.189 0.622,0.274 0.237,0.085 0.537,0.127 0.902,0.127 0.286,0 0.534,-0.036 0.739,-0.104 0.205,-0.069 0.374,-0.157 0.508,-0.267 0.133,-0.111 0.231,-0.241 0.293,-0.388 0.062,-0.147 0.091,-0.296 0.091,-0.452 0,-0.235 -0.068,-0.427 -0.208,-0.577 -0.14,-0.15 -0.326,-0.28 -0.557,-0.391 -0.231,-0.11 -0.495,-0.211 -0.791,-0.299 -0.297,-0.088 -0.6,-0.183 -0.909,-0.287 -0.309,-0.104 -0.612,-0.228 -0.909,-0.368 -0.296,-0.14 -0.56,-0.316 -0.791,-0.531 -0.231,-0.215 -0.417,-0.478 -0.557,-0.791 -0.14,-0.312 -0.211,-0.69 -0.211,-1.133 0,-0.411 0.081,-0.801 0.244,-1.172 0.163,-0.372 0.404,-0.697 0.72,-0.974 0.315,-0.277 0.709,-0.499 1.182,-0.664 0.472,-0.166 1.016,-0.248 1.634,-0.248 0.691,0 1.319,0.114 1.886,0.342 0.567,0.228 1.039,0.528 1.416,0.899 l -0.547,0.869"
         id="Fill-19"
         inkscape:connector-curvature="0"
         style="fill:#00703c;stroke-width:2.11405015" />
      <path
         d="m 127.332,109.487 h 2.423 V 99.464 h -2.423 z m 2.755,-12.944 c 0,0.209 -0.042,0.404 -0.127,0.586 -0.085,0.183 -0.195,0.342 -0.335,0.479 -0.14,0.137 -0.306,0.244 -0.495,0.326 -0.189,0.081 -0.391,0.124 -0.606,0.124 -0.208,0 -0.404,-0.043 -0.589,-0.124 -0.186,-0.082 -0.349,-0.189 -0.486,-0.326 -0.136,-0.137 -0.244,-0.296 -0.325,-0.479 C 127.042,96.947 127,96.752 127,96.543 c 0,-0.215 0.042,-0.416 0.124,-0.606 0.081,-0.188 0.189,-0.351 0.325,-0.488 0.137,-0.137 0.3,-0.247 0.486,-0.329 0.185,-0.081 0.381,-0.12 0.589,-0.12 0.215,0 0.417,0.039 0.606,0.12 0.189,0.082 0.355,0.192 0.495,0.329 0.14,0.137 0.25,0.3 0.335,0.488 0.085,0.19 0.127,0.391 0.127,0.606 z"
         id="Fill-20"
         inkscape:connector-curvature="0"
         style="fill:#00703c;stroke-width:2.11405015" />
      <polygon
         id="Fill-21"
         points="132,95 132,109.517 134.413,109.517 134.413,95 "
         style="fill:#00703c;stroke-width:2.11405015" />
      <path
         d="m 136.332,109.487 h 2.423 V 99.464 h -2.423 z m 2.754,-12.944 c 0,0.209 -0.042,0.404 -0.127,0.586 -0.084,0.183 -0.195,0.342 -0.335,0.479 -0.14,0.137 -0.306,0.244 -0.495,0.326 -0.189,0.081 -0.391,0.124 -0.606,0.124 -0.208,0 -0.403,-0.043 -0.589,-0.124 -0.186,-0.082 -0.349,-0.189 -0.485,-0.326 -0.137,-0.137 -0.244,-0.296 -0.326,-0.479 C 136.042,96.947 136,96.752 136,96.543 c 0,-0.215 0.042,-0.416 0.123,-0.606 0.082,-0.188 0.189,-0.351 0.326,-0.488 0.136,-0.137 0.299,-0.247 0.485,-0.329 0.186,-0.081 0.381,-0.12 0.589,-0.12 0.215,0 0.417,0.039 0.606,0.12 0.189,0.082 0.355,0.192 0.495,0.329 0.14,0.137 0.251,0.3 0.335,0.488 0.085,0.19 0.127,0.391 0.127,0.606 z"
         id="Fill-22"
         inkscape:connector-curvature="0"
         style="fill:#00703c;stroke-width:2.11405015" />
      <path
         d="m 145.816,99 c 0.632,0 1.215,0.101 1.749,0.303 0.534,0.202 0.993,0.495 1.378,0.882 0.384,0.388 0.687,0.863 0.905,1.427 0.218,0.563 0.326,1.208 0.326,1.931 0,0.365 -0.04,0.609 -0.118,0.736 -0.078,0.127 -0.227,0.192 -0.449,0.192 h -6.203 c 0.039,0.514 0.13,0.957 0.273,1.332 0.143,0.374 0.332,0.683 0.567,0.928 0.234,0.244 0.514,0.426 0.837,0.547 0.322,0.12 0.677,0.182 1.068,0.182 0.391,0 0.729,-0.045 1.012,-0.136 0.284,-0.092 0.531,-0.193 0.743,-0.303 0.212,-0.111 0.397,-0.212 0.557,-0.303 0.159,-0.091 0.312,-0.137 0.462,-0.137 0.202,0 0.352,0.075 0.449,0.225 l 0.694,0.879 c -0.267,0.313 -0.567,0.573 -0.898,0.785 -0.333,0.211 -0.678,0.381 -1.039,0.508 -0.362,0.127 -0.73,0.218 -1.104,0.27 -0.375,0.052 -0.739,0.078 -1.091,0.078 -0.697,0 -1.345,-0.117 -1.944,-0.348 -0.599,-0.231 -1.12,-0.573 -1.564,-1.026 -0.442,-0.453 -0.791,-1.013 -1.045,-1.68 -0.254,-0.668 -0.381,-1.44 -0.381,-2.319 0,-0.684 0.111,-1.328 0.332,-1.931 0.222,-0.602 0.541,-1.127 0.954,-1.573 0.414,-0.446 0.919,-0.798 1.515,-1.058 C 144.397,99.13 145.067,99 145.816,99 Z m 0.049,1.729 c -0.703,0 -1.253,0.199 -1.651,0.596 -0.397,0.397 -0.651,0.961 -0.762,1.69 h 4.553 c 0,-0.312 -0.042,-0.609 -0.13,-0.886 -0.088,-0.276 -0.222,-0.517 -0.398,-0.726 -0.175,-0.208 -0.397,-0.374 -0.667,-0.495 -0.27,-0.12 -0.587,-0.179 -0.945,-0.179 z"
         id="Fill-23"
         inkscape:connector-curvature="0"
         style="fill:#00703c;stroke-width:2.11405015" />
      <path
         d="M 152,109.18 V 99.156 h 1.475 c 0.313,0 0.518,0.147 0.616,0.44 l 0.166,0.791 c 0.202,-0.208 0.417,-0.397 0.641,-0.566 0.225,-0.17 0.463,-0.316 0.714,-0.44 0.25,-0.124 0.517,-0.218 0.804,-0.283 0.286,-0.066 0.599,-0.098 0.938,-0.098 0.547,0 1.032,0.091 1.455,0.277 0.424,0.185 0.779,0.446 1.062,0.781 0.283,0.336 0.498,0.736 0.645,1.202 0.146,0.466 0.218,0.98 0.218,1.54 v 6.38 h -2.413 v -6.38 c 0,-0.612 -0.14,-1.087 -0.42,-1.423 -0.28,-0.335 -0.707,-0.501 -1.28,-0.501 -0.417,0 -0.808,0.094 -1.172,0.283 -0.365,0.189 -0.71,0.446 -1.036,0.772 v 7.249 H 152"
         id="Fill-24"
         inkscape:connector-curvature="0"
         style="fill:#00703c;stroke-width:2.11405015" />
      <path
         d="m 166.2,109.247 c -0.872,0 -1.54,-0.248 -2.006,-0.739 -0.465,-0.492 -0.7,-1.169 -0.7,-2.035 v -5.598 h -1.026 c -0.13,0 -0.241,-0.043 -0.332,-0.127 -0.091,-0.085 -0.136,-0.212 -0.136,-0.381 v -0.958 l 1.611,-0.263 0.508,-2.736 c 0.033,-0.13 0.095,-0.231 0.186,-0.303 0.091,-0.071 0.209,-0.107 0.352,-0.107 h 1.25 v 3.155 h 2.677 v 1.72 h -2.677 v 5.431 c 0,0.313 0.078,0.557 0.231,0.733 0.153,0.176 0.362,0.264 0.629,0.264 0.15,0 0.277,-0.02 0.378,-0.055 0.101,-0.036 0.188,-0.072 0.263,-0.111 0.075,-0.039 0.14,-0.078 0.199,-0.114 0.059,-0.036 0.117,-0.052 0.176,-0.052 0.071,0 0.13,0.016 0.176,0.052 0.045,0.036 0.094,0.091 0.146,0.163 l 0.723,1.172 c -0.352,0.293 -0.755,0.514 -1.211,0.664 -0.456,0.15 -0.928,0.225 -1.417,0.225"
         id="Fill-25"
         inkscape:connector-curvature="0"
         style="fill:#00703c;stroke-width:2.11405015" />
      <polygon
         id="Fill-26"
         points="175,95 175,109.517 177.413,109.517 177.413,95 "
         style="fill:#00703c;stroke-width:2.11405015" />
      <path
         d="m 180.332,109.487 h 2.423 V 99.464 h -2.423 z m 2.755,-12.944 c 0,0.209 -0.042,0.404 -0.127,0.586 -0.085,0.183 -0.195,0.342 -0.335,0.479 -0.14,0.137 -0.306,0.244 -0.495,0.326 -0.189,0.081 -0.391,0.124 -0.606,0.124 -0.208,0 -0.404,-0.043 -0.589,-0.124 -0.186,-0.082 -0.349,-0.189 -0.486,-0.326 -0.137,-0.137 -0.244,-0.296 -0.325,-0.479 C 180.042,96.947 180,96.752 180,96.543 c 0,-0.215 0.042,-0.416 0.124,-0.606 0.081,-0.188 0.188,-0.351 0.325,-0.488 0.137,-0.137 0.3,-0.247 0.486,-0.329 0.185,-0.081 0.381,-0.12 0.589,-0.12 0.215,0 0.417,0.039 0.606,0.12 0.189,0.082 0.355,0.192 0.495,0.329 0.14,0.137 0.25,0.3 0.335,0.488 0.085,0.19 0.127,0.391 0.127,0.606 z"
         id="Fill-27"
         inkscape:connector-curvature="0"
         style="fill:#00703c;stroke-width:2.11405015" />
      <path
         d="m 184,99 h 1.993 c 0.182,0 0.335,0.043 0.456,0.127 0.12,0.085 0.198,0.193 0.238,0.323 l 1.934,5.353 c 0.104,0.313 0.195,0.619 0.27,0.919 0.075,0.299 0.144,0.599 0.208,0.898 0.066,-0.299 0.137,-0.599 0.216,-0.898 0.078,-0.3 0.172,-0.606 0.283,-0.919 l 1.973,-5.353 c 0.046,-0.13 0.127,-0.238 0.244,-0.323 0.118,-0.084 0.258,-0.127 0.42,-0.127 h 1.906 l -3.977,10.024 h -2.188 L 184,99"
         id="Fill-28"
         inkscape:connector-curvature="0"
         style="fill:#00703c;stroke-width:2.11405015" />
      <path
         d="m 198.816,99 c 0.632,0 1.214,0.101 1.748,0.303 0.534,0.202 0.994,0.495 1.378,0.882 0.384,0.388 0.687,0.863 0.905,1.427 0.218,0.563 0.326,1.208 0.326,1.931 0,0.365 -0.039,0.609 -0.117,0.736 -0.078,0.127 -0.228,0.192 -0.45,0.192 h -6.203 c 0.039,0.514 0.13,0.957 0.273,1.332 0.144,0.374 0.333,0.683 0.567,0.928 0.234,0.244 0.515,0.426 0.837,0.547 0.322,0.12 0.677,0.182 1.068,0.182 0.391,0 0.729,-0.045 1.013,-0.136 0.283,-0.092 0.53,-0.193 0.742,-0.303 0.212,-0.111 0.398,-0.212 0.557,-0.303 0.16,-0.091 0.313,-0.137 0.462,-0.137 0.202,0 0.352,0.075 0.45,0.225 l 0.693,0.879 c -0.267,0.313 -0.566,0.573 -0.898,0.785 -0.332,0.211 -0.678,0.381 -1.039,0.508 -0.361,0.127 -0.729,0.218 -1.104,0.27 -0.375,0.052 -0.739,0.078 -1.091,0.078 -0.697,0 -1.345,-0.117 -1.944,-0.348 -0.599,-0.231 -1.12,-0.573 -1.563,-1.026 -0.443,-0.453 -0.791,-1.013 -1.045,-1.68 -0.254,-0.668 -0.381,-1.44 -0.381,-2.319 0,-0.684 0.11,-1.328 0.332,-1.931 0.221,-0.602 0.54,-1.127 0.954,-1.573 0.413,-0.446 0.918,-0.798 1.514,-1.058 C 197.396,99.13 198.067,99 198.816,99 Z m 0.049,1.729 c -0.704,0 -1.254,0.199 -1.651,0.596 -0.398,0.397 -0.652,0.961 -0.762,1.69 h 4.552 c 0,-0.312 -0.042,-0.609 -0.13,-0.886 -0.088,-0.276 -0.221,-0.517 -0.397,-0.726 -0.176,-0.208 -0.398,-0.374 -0.668,-0.495 -0.27,-0.12 -0.586,-0.179 -0.944,-0.179 z"
         id="Fill-29"
         inkscape:connector-curvature="0"
         style="fill:#00703c;stroke-width:2.11405015" />
      <polygon
         id="Fill-30"
         points="205,95 205,109.517 207.413,109.517 207.413,95 "
         style="fill:#00703c;stroke-width:2.11405015" />
      <path
         d="m 210.332,109.487 h 2.423 V 99.464 h -2.423 z m 2.755,-12.944 c 0,0.209 -0.042,0.404 -0.127,0.586 -0.085,0.183 -0.195,0.342 -0.335,0.479 -0.14,0.137 -0.307,0.244 -0.495,0.326 -0.189,0.081 -0.391,0.124 -0.606,0.124 -0.208,0 -0.404,-0.043 -0.589,-0.124 -0.186,-0.082 -0.349,-0.189 -0.486,-0.326 -0.137,-0.137 -0.244,-0.296 -0.325,-0.479 C 210.042,96.947 210,96.752 210,96.543 c 0,-0.215 0.042,-0.416 0.124,-0.606 0.081,-0.188 0.188,-0.351 0.325,-0.488 0.137,-0.137 0.3,-0.247 0.486,-0.329 0.185,-0.081 0.381,-0.12 0.589,-0.12 0.215,0 0.417,0.039 0.606,0.12 0.188,0.082 0.355,0.192 0.495,0.329 0.14,0.137 0.25,0.3 0.335,0.488 0.085,0.19 0.127,0.391 0.127,0.606 z"
         id="Fill-31"
         inkscape:connector-curvature="0"
         style="fill:#00703c;stroke-width:2.11405015" />
      <path
         d="M 215,109.518 V 95 h 2.413 v 5.579 c 0.391,-0.371 0.82,-0.671 1.289,-0.899 0.469,-0.228 1.02,-0.342 1.651,-0.342 0.547,0 1.033,0.091 1.456,0.277 0.423,0.185 0.778,0.446 1.062,0.781 0.283,0.336 0.498,0.736 0.644,1.202 0.147,0.466 0.218,0.98 0.218,1.54 v 6.38 h -2.412 v -6.38 c 0,-0.612 -0.14,-1.087 -0.421,-1.423 -0.28,-0.335 -0.706,-0.501 -1.279,-0.501 -0.417,0 -0.808,0.094 -1.173,0.283 -0.364,0.189 -0.71,0.446 -1.035,0.772 v 7.249 H 215"
         id="Fill-32"
         inkscape:connector-curvature="0"
         style="fill:#00703c;stroke-width:2.11405015" />
      <path
         d="m 230.973,99 c 0.742,0 1.419,0.121 2.028,0.362 0.61,0.241 1.131,0.582 1.564,1.025 0.433,0.443 0.765,0.984 0.999,1.622 0.235,0.638 0.352,1.351 0.352,2.139 0,0.795 -0.117,1.511 -0.352,2.15 -0.234,0.638 -0.566,1.182 -0.999,1.631 -0.433,0.45 -0.954,0.795 -1.564,1.036 -0.609,0.241 -1.286,0.361 -2.028,0.361 -0.749,0 -1.43,-0.12 -2.042,-0.361 -0.612,-0.241 -1.133,-0.586 -1.566,-1.036 -0.433,-0.449 -0.769,-0.993 -1.007,-1.631 -0.237,-0.639 -0.358,-1.355 -0.358,-2.15 0,-0.788 0.121,-1.501 0.358,-2.139 0.238,-0.638 0.574,-1.179 1.007,-1.622 0.433,-0.443 0.954,-0.784 1.566,-1.025 0.612,-0.241 1.293,-0.362 2.042,-0.362 z m 0,8.47 c 0.833,0 1.452,-0.28 1.853,-0.84 0.4,-0.56 0.599,-1.381 0.599,-2.462 0,-1.081 -0.199,-1.905 -0.599,-2.472 -0.401,-0.566 -1.02,-0.85 -1.853,-0.85 -0.847,0 -1.472,0.284 -1.879,0.854 -0.407,0.569 -0.612,1.393 -0.612,2.468 0,1.075 0.205,1.892 0.612,2.455 0.407,0.564 1.032,0.847 1.879,0.847 z"
         id="Fill-33"
         inkscape:connector-curvature="0"
         style="fill:#00703c;stroke-width:2.11405015" />
      <path
         d="m 241.973,99 c 0.742,0 1.419,0.121 2.028,0.362 0.609,0.241 1.13,0.582 1.564,1.025 0.432,0.443 0.765,0.984 0.999,1.622 0.235,0.638 0.352,1.351 0.352,2.139 0,0.795 -0.117,1.511 -0.352,2.15 -0.234,0.638 -0.567,1.182 -0.999,1.631 -0.434,0.45 -0.955,0.795 -1.564,1.036 -0.609,0.241 -1.286,0.361 -2.028,0.361 -0.749,0 -1.43,-0.12 -2.042,-0.361 -0.612,-0.241 -1.134,-0.586 -1.566,-1.036 -0.434,-0.449 -0.769,-0.993 -1.007,-1.631 -0.238,-0.639 -0.358,-1.355 -0.358,-2.15 0,-0.788 0.12,-1.501 0.358,-2.139 0.238,-0.638 0.573,-1.179 1.007,-1.622 0.432,-0.443 0.954,-0.784 1.566,-1.025 0.612,-0.241 1.293,-0.362 2.042,-0.362 z m 0,8.47 c 0.833,0 1.452,-0.28 1.853,-0.84 0.4,-0.56 0.599,-1.381 0.599,-2.462 0,-1.081 -0.199,-1.905 -0.599,-2.472 -0.401,-0.566 -1.02,-0.85 -1.853,-0.85 -0.847,0 -1.472,0.284 -1.879,0.854 -0.407,0.569 -0.613,1.393 -0.613,2.468 0,1.075 0.206,1.892 0.613,2.455 0.407,0.564 1.032,0.847 1.879,0.847 z"
         id="Fill-34"
         inkscape:connector-curvature="0"
         style="fill:#00703c;stroke-width:2.11405015" />
      <path
         d="m 255.748,109.518 c -0.32,0 -0.521,-0.147 -0.606,-0.44 l -0.205,-0.967 c -0.209,0.234 -0.427,0.446 -0.655,0.635 -0.228,0.189 -0.472,0.352 -0.736,0.488 -0.263,0.137 -0.547,0.241 -0.85,0.316 -0.303,0.075 -0.632,0.114 -0.983,0.114 -0.547,0 -1.049,-0.114 -1.505,-0.342 -0.455,-0.228 -0.846,-0.56 -1.175,-0.993 -0.329,-0.433 -0.583,-0.967 -0.762,-1.605 -0.179,-0.639 -0.271,-1.368 -0.271,-2.189 0,-0.742 0.101,-1.432 0.303,-2.071 0.202,-0.638 0.492,-1.192 0.87,-1.661 0.377,-0.468 0.83,-0.836 1.358,-1.1 0.527,-0.264 1.12,-0.394 1.778,-0.394 0.56,0 1.038,0.088 1.436,0.267 0.397,0.179 0.752,0.42 1.065,0.719 V 95 h 2.413 v 14.518 z m -3.215,-1.769 c 0.502,0 0.928,-0.104 1.28,-0.312 0.352,-0.209 0.684,-0.505 0.997,-0.889 v -4.494 c -0.274,-0.332 -0.57,-0.567 -0.892,-0.704 -0.323,-0.136 -0.671,-0.205 -1.043,-0.205 -0.364,0 -0.693,0.069 -0.986,0.205 -0.293,0.137 -0.544,0.342 -0.753,0.619 -0.208,0.277 -0.368,0.629 -0.478,1.055 -0.111,0.427 -0.166,0.932 -0.166,1.511 0,0.586 0.049,1.081 0.143,1.488 0.094,0.407 0.228,0.74 0.404,0.997 0.176,0.257 0.391,0.443 0.645,0.557 0.254,0.114 0.537,0.172 0.849,0.172 z"
         id="Fill-35"
         inkscape:connector-curvature="0"
         style="fill:#00703c;stroke-width:2.11405015" />
      <path
         d="m 265.829,101.11 c -0.065,0.104 -0.133,0.176 -0.205,0.218 -0.072,0.043 -0.163,0.065 -0.274,0.065 -0.117,0 -0.241,-0.032 -0.374,-0.097 -0.134,-0.065 -0.29,-0.14 -0.466,-0.222 -0.176,-0.081 -0.374,-0.153 -0.599,-0.218 -0.225,-0.065 -0.492,-0.098 -0.798,-0.098 -0.475,0 -0.846,0.101 -1.117,0.303 -0.27,0.202 -0.407,0.466 -0.407,0.792 0,0.215 0.072,0.394 0.212,0.54 0.14,0.147 0.325,0.277 0.557,0.388 0.231,0.111 0.492,0.208 0.784,0.296 0.294,0.088 0.593,0.186 0.896,0.29 0.303,0.104 0.599,0.221 0.892,0.355 0.293,0.133 0.557,0.303 0.788,0.508 0.232,0.205 0.417,0.452 0.557,0.739 0.14,0.287 0.209,0.632 0.209,1.036 0,0.481 -0.085,0.925 -0.257,1.332 -0.173,0.407 -0.43,0.758 -0.769,1.055 -0.339,0.296 -0.756,0.527 -1.254,0.693 -0.498,0.166 -1.074,0.251 -1.726,0.251 -0.345,0 -0.68,-0.032 -1.009,-0.095 -0.329,-0.061 -0.645,-0.146 -0.948,-0.257 -0.303,-0.11 -0.583,-0.241 -0.84,-0.391 -0.257,-0.149 -0.485,-0.312 -0.681,-0.488 l 0.557,-0.918 c 0.072,-0.111 0.157,-0.196 0.254,-0.254 0.098,-0.059 0.222,-0.088 0.372,-0.088 0.149,0 0.293,0.042 0.426,0.127 0.134,0.085 0.287,0.176 0.462,0.273 0.176,0.098 0.385,0.189 0.622,0.274 0.238,0.085 0.538,0.127 0.902,0.127 0.287,0 0.535,-0.036 0.74,-0.104 0.205,-0.069 0.374,-0.157 0.508,-0.267 0.133,-0.111 0.231,-0.241 0.293,-0.388 0.062,-0.147 0.091,-0.296 0.091,-0.452 0,-0.235 -0.068,-0.427 -0.208,-0.577 -0.14,-0.15 -0.326,-0.28 -0.557,-0.391 -0.231,-0.11 -0.495,-0.211 -0.792,-0.299 -0.296,-0.088 -0.599,-0.183 -0.908,-0.287 -0.31,-0.104 -0.612,-0.228 -0.909,-0.368 -0.296,-0.14 -0.56,-0.316 -0.791,-0.531 -0.231,-0.215 -0.417,-0.478 -0.557,-0.791 -0.14,-0.312 -0.211,-0.69 -0.211,-1.133 0,-0.411 0.081,-0.801 0.244,-1.172 0.163,-0.372 0.404,-0.697 0.719,-0.974 0.316,-0.277 0.71,-0.499 1.182,-0.664 0.473,-0.166 1.017,-0.248 1.635,-0.248 0.691,0 1.319,0.114 1.886,0.342 0.566,0.228 1.038,0.528 1.416,0.899 l -0.547,0.869"
         id="Fill-36"
         inkscape:connector-curvature="0"
         style="fill:#00703c;stroke-width:2.11405015" />
      <path
         d="m 273.332,109.487 h 2.423 V 99.464 h -2.423 z m 2.755,-12.944 c 0,0.209 -0.042,0.404 -0.127,0.586 -0.085,0.183 -0.195,0.342 -0.335,0.479 -0.14,0.137 -0.307,0.244 -0.495,0.326 -0.189,0.081 -0.391,0.124 -0.606,0.124 -0.208,0 -0.404,-0.043 -0.589,-0.124 -0.186,-0.082 -0.349,-0.189 -0.486,-0.326 -0.137,-0.137 -0.244,-0.296 -0.325,-0.479 C 273.042,96.947 273,96.752 273,96.543 c 0,-0.215 0.042,-0.416 0.124,-0.606 0.081,-0.188 0.188,-0.351 0.325,-0.488 0.137,-0.137 0.3,-0.247 0.486,-0.329 0.185,-0.081 0.381,-0.12 0.589,-0.12 0.215,0 0.417,0.039 0.606,0.12 0.188,0.082 0.355,0.192 0.495,0.329 0.14,0.137 0.25,0.3 0.335,0.488 0.085,0.19 0.127,0.391 0.127,0.606 z"
         id="Fill-37"
         inkscape:connector-curvature="0"
         style="fill:#00703c;stroke-width:2.11405015" />
      <path
         d="M 278,109.18 V 99.156 h 1.475 c 0.313,0 0.518,0.147 0.615,0.44 l 0.167,0.791 c 0.201,-0.208 0.416,-0.397 0.641,-0.566 0.225,-0.17 0.462,-0.316 0.713,-0.44 0.251,-0.124 0.518,-0.218 0.804,-0.283 0.287,-0.066 0.6,-0.098 0.938,-0.098 0.547,0 1.033,0.091 1.456,0.277 0.423,0.185 0.778,0.446 1.062,0.781 0.283,0.336 0.498,0.736 0.644,1.202 0.147,0.466 0.218,0.98 0.218,1.54 v 6.38 h -2.412 v -6.38 c 0,-0.612 -0.14,-1.087 -0.421,-1.423 -0.28,-0.335 -0.706,-0.501 -1.279,-0.501 -0.417,0 -0.808,0.094 -1.173,0.283 -0.364,0.189 -0.71,0.446 -1.035,0.772 v 7.249 H 278"
         id="Fill-38"
         inkscape:connector-curvature="0"
         style="fill:#00703c;stroke-width:2.11405015" />
      <path
         d="m 300.747,109.518 c -0.319,0 -0.521,-0.147 -0.606,-0.44 l -0.205,-0.967 c -0.209,0.234 -0.427,0.446 -0.655,0.635 -0.228,0.189 -0.472,0.352 -0.736,0.488 -0.263,0.137 -0.547,0.241 -0.849,0.316 -0.303,0.075 -0.632,0.114 -0.984,0.114 -0.547,0 -1.049,-0.114 -1.504,-0.342 -0.456,-0.228 -0.847,-0.56 -1.176,-0.993 -0.329,-0.433 -0.583,-0.967 -0.762,-1.605 -0.179,-0.639 -0.27,-1.368 -0.27,-2.189 0,-0.742 0.101,-1.432 0.302,-2.071 0.203,-0.638 0.492,-1.192 0.87,-1.661 0.378,-0.468 0.83,-0.836 1.358,-1.1 0.527,-0.264 1.12,-0.394 1.778,-0.394 0.56,0 1.039,0.088 1.436,0.267 0.397,0.179 0.752,0.42 1.065,0.719 V 95 h 2.413 v 14.518 z m -3.214,-1.769 c 0.501,0 0.928,-0.104 1.279,-0.312 0.352,-0.209 0.684,-0.505 0.997,-0.889 v -4.494 c -0.274,-0.332 -0.57,-0.567 -0.892,-0.704 -0.323,-0.136 -0.671,-0.205 -1.042,-0.205 -0.365,0 -0.694,0.069 -0.987,0.205 -0.293,0.137 -0.544,0.342 -0.752,0.619 -0.209,0.277 -0.368,0.629 -0.479,1.055 -0.111,0.427 -0.166,0.932 -0.166,1.511 0,0.586 0.049,1.081 0.143,1.488 0.095,0.407 0.228,0.74 0.404,0.997 0.176,0.257 0.391,0.443 0.645,0.557 0.254,0.114 0.537,0.172 0.85,0.172 z"
         id="Fill-39"
         inkscape:connector-curvature="0"
         style="fill:#00703c;stroke-width:2.11405015" />
      <path
         d="M 305,109.209 V 99.185 h 1.416 c 0.248,0 0.42,0.043 0.518,0.13 0.098,0.089 0.163,0.248 0.196,0.476 l 0.136,1.133 c 0.319,-0.599 0.694,-1.071 1.124,-1.413 0.43,-0.342 0.938,-0.511 1.524,-0.511 0.462,0 0.833,0.101 1.113,0.303 l -0.156,1.807 c -0.032,0.117 -0.078,0.199 -0.14,0.247 -0.062,0.049 -0.146,0.075 -0.251,0.075 -0.097,0 -0.241,-0.016 -0.433,-0.049 -0.192,-0.032 -0.381,-0.048 -0.563,-0.048 -0.267,0 -0.505,0.039 -0.713,0.117 -0.209,0.078 -0.394,0.189 -0.56,0.335 -0.166,0.147 -0.313,0.326 -0.44,0.534 -0.127,0.209 -0.247,0.447 -0.358,0.714 v 6.174 H 305"
         id="Fill-40"
         inkscape:connector-curvature="0"
         style="fill:#00703c;stroke-width:2.11405015" />
      <path
         d="m 315.778,111.779 c -0.072,0.169 -0.163,0.296 -0.277,0.384 -0.114,0.088 -0.29,0.133 -0.524,0.133 h -1.798 l 1.876,-4.015 L 311,99 h 2.12 c 0.189,0 0.339,0.046 0.446,0.137 0.108,0.091 0.186,0.196 0.238,0.313 l 2.13,5.197 c 0.13,0.358 0.238,0.713 0.322,1.065 0.052,-0.183 0.111,-0.365 0.173,-0.544 0.062,-0.179 0.127,-0.355 0.198,-0.531 l 2.013,-5.187 c 0.052,-0.13 0.14,-0.238 0.261,-0.323 0.12,-0.084 0.254,-0.127 0.403,-0.127 h 1.935 l -5.461,12.779"
         id="Fill-41"
         inkscape:connector-curvature="0"
         style="fill:#00703c;stroke-width:2.11405015" />
      <path
         d="m 333.268,109.209 c -0.228,0 -0.404,-0.036 -0.528,-0.105 -0.123,-0.068 -0.221,-0.205 -0.293,-0.413 l -0.215,-0.713 c -0.254,0.228 -0.501,0.426 -0.742,0.599 -0.241,0.172 -0.492,0.319 -0.752,0.436 -0.261,0.117 -0.538,0.205 -0.834,0.264 -0.296,0.059 -0.625,0.088 -0.984,0.088 -0.423,0 -0.814,-0.059 -1.172,-0.173 -0.358,-0.114 -0.667,-0.283 -0.928,-0.511 -0.26,-0.228 -0.462,-0.511 -0.606,-0.85 -0.143,-0.338 -0.214,-0.732 -0.214,-1.182 0,-0.378 0.101,-0.752 0.299,-1.12 0.199,-0.368 0.528,-0.7 0.99,-0.997 0.462,-0.296 1.078,-0.54 1.847,-0.736 0.768,-0.195 1.725,-0.306 2.872,-0.332 v -0.586 c 0,-0.671 -0.144,-1.169 -0.43,-1.491 -0.287,-0.323 -0.7,-0.482 -1.241,-0.482 -0.391,0 -0.713,0.045 -0.97,0.136 -0.257,0.092 -0.485,0.193 -0.681,0.307 -0.195,0.114 -0.371,0.218 -0.531,0.309 -0.159,0.091 -0.338,0.137 -0.534,0.137 -0.169,0 -0.312,-0.046 -0.43,-0.134 -0.117,-0.088 -0.211,-0.189 -0.283,-0.306 l -0.43,-0.772 c 1.153,-1.055 2.54,-1.582 4.162,-1.582 0.586,0 1.111,0.094 1.573,0.286 0.462,0.192 0.853,0.459 1.172,0.801 0.319,0.342 0.564,0.753 0.73,1.228 0.166,0.475 0.247,0.996 0.247,1.563 v 6.331 z m -3.605,-1.505 c 0.495,0 0.925,-0.091 1.286,-0.27 0.362,-0.179 0.713,-0.449 1.059,-0.814 v -1.69 c -0.704,0.032 -1.29,0.091 -1.762,0.179 -0.472,0.088 -0.853,0.202 -1.14,0.338 -0.286,0.137 -0.491,0.297 -0.615,0.479 -0.124,0.182 -0.186,0.381 -0.186,0.596 0,0.424 0.127,0.726 0.378,0.909 0.251,0.182 0.576,0.273 0.98,0.273 z"
         id="Fill-42"
         inkscape:connector-curvature="0"
         style="fill:#00703c;stroke-width:2.11405015" />
      <path
         d="M 337,109.209 V 99.185 h 1.416 c 0.248,0 0.42,0.043 0.518,0.13 0.098,0.089 0.163,0.248 0.195,0.476 l 0.137,1.133 c 0.319,-0.599 0.694,-1.071 1.124,-1.413 0.429,-0.342 0.937,-0.511 1.524,-0.511 0.462,0 0.833,0.101 1.113,0.303 l -0.156,1.807 c -0.032,0.117 -0.078,0.199 -0.14,0.247 -0.062,0.049 -0.146,0.075 -0.251,0.075 -0.098,0 -0.241,-0.016 -0.433,-0.049 -0.192,-0.032 -0.381,-0.048 -0.563,-0.048 -0.267,0 -0.505,0.039 -0.713,0.117 -0.209,0.078 -0.394,0.189 -0.56,0.335 -0.167,0.147 -0.313,0.326 -0.44,0.534 -0.127,0.209 -0.248,0.447 -0.358,0.714 v 6.174 H 337"
         id="Fill-43"
         inkscape:connector-curvature="0"
         style="fill:#00703c;stroke-width:2.11405015" />
      <path
         d="m 347.816,99 c 0.632,0 1.215,0.101 1.749,0.303 0.534,0.202 0.993,0.495 1.378,0.882 0.384,0.388 0.687,0.863 0.905,1.427 0.218,0.563 0.326,1.208 0.326,1.931 0,0.365 -0.04,0.609 -0.118,0.736 -0.078,0.127 -0.227,0.192 -0.449,0.192 h -6.203 c 0.039,0.514 0.13,0.957 0.273,1.332 0.143,0.374 0.332,0.683 0.567,0.928 0.234,0.244 0.514,0.426 0.837,0.547 0.322,0.12 0.677,0.182 1.068,0.182 0.391,0 0.729,-0.045 1.012,-0.136 0.284,-0.092 0.531,-0.193 0.743,-0.303 0.212,-0.111 0.397,-0.212 0.557,-0.303 0.159,-0.091 0.312,-0.137 0.462,-0.137 0.202,0 0.352,0.075 0.449,0.225 l 0.694,0.879 c -0.267,0.313 -0.567,0.573 -0.898,0.785 -0.333,0.211 -0.678,0.381 -1.039,0.508 -0.362,0.127 -0.73,0.218 -1.104,0.27 -0.375,0.052 -0.739,0.078 -1.091,0.078 -0.697,0 -1.345,-0.117 -1.944,-0.348 -0.6,-0.231 -1.121,-0.573 -1.564,-1.026 -0.442,-0.453 -0.791,-1.013 -1.045,-1.68 -0.254,-0.668 -0.381,-1.44 -0.381,-2.319 0,-0.684 0.111,-1.328 0.332,-1.931 0.222,-0.602 0.541,-1.127 0.954,-1.573 0.414,-0.446 0.919,-0.798 1.515,-1.058 C 346.397,99.13 347.067,99 347.816,99 Z m 0.049,1.729 c -0.703,0 -1.253,0.199 -1.651,0.596 -0.397,0.397 -0.651,0.961 -0.762,1.69 h 4.553 c 0,-0.312 -0.042,-0.609 -0.13,-0.886 -0.088,-0.276 -0.222,-0.517 -0.398,-0.726 -0.176,-0.208 -0.397,-0.374 -0.667,-0.495 -0.27,-0.12 -0.587,-0.179 -0.945,-0.179 z"
         id="Fill-44"
         inkscape:connector-curvature="0"
         style="fill:#00703c;stroke-width:2.11405015" />
      <path
         d="m 360.268,109.209 c -0.228,0 -0.404,-0.036 -0.527,-0.105 -0.124,-0.068 -0.222,-0.205 -0.293,-0.413 l -0.215,-0.713 c -0.254,0.228 -0.502,0.426 -0.743,0.599 -0.241,0.172 -0.491,0.319 -0.752,0.436 -0.26,0.117 -0.537,0.205 -0.834,0.264 -0.296,0.059 -0.625,0.088 -0.983,0.088 -0.423,0 -0.814,-0.059 -1.172,-0.173 -0.359,-0.114 -0.668,-0.283 -0.928,-0.511 -0.261,-0.228 -0.463,-0.511 -0.606,-0.85 -0.144,-0.338 -0.215,-0.732 -0.215,-1.182 0,-0.378 0.101,-0.752 0.3,-1.12 0.198,-0.368 0.527,-0.7 0.989,-0.997 0.463,-0.296 1.078,-0.54 1.847,-0.736 0.768,-0.195 1.726,-0.306 2.872,-0.332 v -0.586 c 0,-0.671 -0.143,-1.169 -0.43,-1.491 -0.286,-0.323 -0.7,-0.482 -1.24,-0.482 -0.391,0 -0.714,0.045 -0.971,0.136 -0.257,0.092 -0.485,0.193 -0.681,0.307 -0.195,0.114 -0.371,0.218 -0.53,0.309 -0.16,0.091 -0.339,0.137 -0.534,0.137 -0.17,0 -0.313,-0.046 -0.43,-0.134 -0.117,-0.088 -0.212,-0.189 -0.284,-0.306 l -0.43,-0.772 C 354.631,99.527 356.019,99 357.64,99 c 0.586,0 1.111,0.094 1.573,0.286 0.463,0.192 0.853,0.459 1.173,0.801 0.319,0.342 0.563,0.753 0.729,1.228 0.166,0.475 0.247,0.996 0.247,1.563 v 6.331 z m -3.605,-1.505 c 0.495,0 0.925,-0.091 1.287,-0.27 0.361,-0.179 0.713,-0.449 1.058,-0.814 v -1.69 c -0.703,0.032 -1.289,0.091 -1.762,0.179 -0.472,0.088 -0.853,0.202 -1.14,0.338 -0.286,0.137 -0.491,0.297 -0.615,0.479 -0.124,0.182 -0.186,0.381 -0.186,0.596 0,0.424 0.127,0.726 0.378,0.909 0.251,0.182 0.577,0.273 0.98,0.273 z"
         id="Fill-45"
         inkscape:connector-curvature="0"
         style="fill:#00703c;stroke-width:2.11405015" />
      <path
         d="m 369.828,101.11 c -0.065,0.104 -0.133,0.176 -0.205,0.218 -0.071,0.043 -0.162,0.065 -0.273,0.065 -0.117,0 -0.241,-0.032 -0.375,-0.097 -0.133,-0.065 -0.289,-0.14 -0.465,-0.222 -0.176,-0.081 -0.375,-0.153 -0.599,-0.218 -0.225,-0.065 -0.492,-0.098 -0.798,-0.098 -0.476,0 -0.847,0.101 -1.117,0.303 -0.271,0.202 -0.407,0.466 -0.407,0.792 0,0.215 0.071,0.394 0.211,0.54 0.14,0.147 0.326,0.277 0.557,0.388 0.232,0.111 0.492,0.208 0.785,0.296 0.293,0.088 0.593,0.186 0.896,0.29 0.302,0.104 0.599,0.221 0.892,0.355 0.293,0.133 0.557,0.303 0.788,0.508 0.231,0.205 0.417,0.452 0.557,0.739 0.14,0.287 0.208,0.632 0.208,1.036 0,0.481 -0.085,0.925 -0.257,1.332 -0.173,0.407 -0.43,0.758 -0.769,1.055 -0.338,0.296 -0.755,0.527 -1.253,0.693 -0.499,0.166 -1.075,0.251 -1.726,0.251 -0.346,0 -0.681,-0.032 -1.01,-0.095 -0.329,-0.061 -0.645,-0.146 -0.947,-0.257 -0.303,-0.11 -0.584,-0.241 -0.841,-0.391 -0.257,-0.149 -0.485,-0.312 -0.68,-0.488 l 0.557,-0.918 c 0.071,-0.111 0.156,-0.196 0.254,-0.254 0.097,-0.059 0.221,-0.088 0.371,-0.088 0.15,0 0.293,0.042 0.426,0.127 0.134,0.085 0.287,0.176 0.463,0.273 0.176,0.098 0.384,0.189 0.622,0.274 0.238,0.085 0.537,0.127 0.902,0.127 0.286,0 0.534,-0.036 0.739,-0.104 0.205,-0.069 0.374,-0.157 0.508,-0.267 0.133,-0.111 0.231,-0.241 0.293,-0.388 0.062,-0.147 0.091,-0.296 0.091,-0.452 0,-0.235 -0.068,-0.427 -0.208,-0.577 -0.14,-0.15 -0.326,-0.28 -0.557,-0.391 -0.231,-0.11 -0.495,-0.211 -0.791,-0.299 -0.297,-0.088 -0.599,-0.183 -0.909,-0.287 -0.309,-0.104 -0.612,-0.228 -0.908,-0.368 -0.297,-0.14 -0.561,-0.316 -0.792,-0.531 -0.231,-0.215 -0.417,-0.478 -0.557,-0.791 -0.14,-0.312 -0.211,-0.69 -0.211,-1.133 0,-0.411 0.081,-0.801 0.244,-1.172 0.163,-0.372 0.404,-0.697 0.72,-0.974 0.316,-0.277 0.71,-0.499 1.182,-0.664 0.472,-0.166 1.016,-0.248 1.635,-0.248 0.69,0 1.318,0.114 1.885,0.342 0.567,0.228 1.039,0.528 1.417,0.899 l -0.548,0.869"
         id="Fill-46"
         inkscape:connector-curvature="0"
         style="fill:#00703c;stroke-width:2.11405015" />
      <path
         d="M 85.193,51.194 H 85.191 C 85.138,62.726 75.72,73.298 64.194,74.761 v 0.001 L 64.096,74.774 43,77.355 V 65.472 L 57.799,48.864 57.798,48.863 c 3.987,-4.516 6.113,-10.367 6.369,-16.29 0.074,-0.008 0.147,-0.016 0.221,-0.024 V 32.546 L 85.193,30 v 21.194"
         id="Fill-47"
         inkscape:connector-curvature="0"
         style="fill:#f1ad2d;stroke-width:2.11405015" />
      <path
         d="m 0,51.194 h 0.002 c 0.052,11.532 9.471,22.104 20.997,23.567 v 0.001 l 0.097,0.012 21.097,2.581 V 56.259 C 42.193,44.655 32.7,34.001 21.096,32.581 20.999,32.569 20.902,32.56 20.805,32.549 V 32.546 L 0,30 v 21.194"
         id="Fill-48"
         inkscape:connector-curvature="0"
         style="fill:#e5742b;stroke-width:2.11405015" />
      <path
         d="m 57.018,15.916 -10e-4,0.002 c 7.576,8.695 7.482,22.854 -0.208,31.563 l 0.001,10e-4 -13.006,14.596 v -5.434 c 0,-11.907 -9.175,-22.897 -20.804,-25.43 0.149,-5.575 2.113,-11.112 5.885,-15.346 0.065,-0.073 0.132,-0.144 0.198,-0.216 L 29.081,15.649 43.024,0 57.018,15.916"
         id="Fill-49"
         inkscape:connector-curvature="0"
         style="fill:#00703c;stroke-width:2.11405015" />
    </g>
  </g>
</svg>
