<?xml version="1.0" encoding="utf-8"?>
<!-- Generator: Adobe Illustrator 25.4.1, SVG Export Plug-In . SVG Version: 6.00 Build 0)  -->
<svg version="1.1" id="Layer_1" xmlns="http://www.w3.org/2000/svg" xmlns:xlink="http://www.w3.org/1999/xlink" x="0px" y="0px"
	 viewBox="0 0 1350 1080" style="enable-background:new 0 0 1350 1080;" xml:space="preserve">
<style type="text/css">
	.st0{fill:#216438;}
	.st1{fill:#FCFCFC;}
	.st2{fill:#165B2E;}
</style>
<g>
	<g>
		<path class="st0" d="M674.8,0.2c222.9,0,445.8,0,668.7-0.2c5.5,0,6.5,1.3,6.5,6.6c-0.1,355.6-0.1,711.2,0,1066.8
			c0,5.1-0.6,6.7-6.4,6.7c-445.8-0.2-891.6-0.2-1337.5,0c-5.2,0-6.1-1.1-6.1-6.2C0.2,718,0.2,362.1,0,6.3c0-6.1,2.1-6.2,6.8-6.2
			C229.5,0.2,452.1,0.2,674.8,0.2z M520.9,570.2c24.1-1.3,47-4.4,68.7-13.7c29.8-12.7,50.4-33.5,57.4-66.1
			c3.8-17.3,3.6-34.8,0.8-52.1c-6.8-43.3-30.1-73.6-71.8-88.9c-23.1-8.5-47-11.4-71.4-11.4c-76-0.1-152,0-227.9,0
			c-12,0-11.8,0-11.6,12.1c0.1,4.2,1.2,5.7,5.5,5.5c8.2-0.4,16.5,0.1,24.6,1.5c18.2,3.1,27.4,13.9,27.4,32.5c0,97,0,193.9,0,290.9
			c0,24.1-12.4,38.5-36.4,42.5c-17.9,3-35.9,1.5-53.8,1.1c-8-0.2-15.7-3.3-22.5-7.6c-9-5.7-14.7-13.8-16.5-24.7
			c-1.5-9.2-1-18.4-1-27.7c-0.1-89.7-0.1-179.4,0-269.1c0-20,10.8-34.5,28.9-38.5c7.8-1.7,16-1.4,23.9-0.7c8,0.7,6.7-4.3,6.7-8.9
			c0-4.5,1.6-9.3-6.5-9c-17.7,0.6-35.5,0.2-53.2,0.2c-39.2,0-78.5,0-117.7,0.1c-2.5,0-6.1-2-7,3.1c-2.1,12.1-0.4,14.3,11.5,14.3
			c3.2,0,6.5-0.1,9.7,0c21.6,0.5,36.5,15.7,36.5,37.3c0,98.7-0.3,197.4,0.3,296.1c0.1,16.1-14.4,34.8-33.6,35.5
			c-6.2,0.2-12.5,0-18.7,0.1c-1.7,0-4.3-0.8-4.8,0.9c-1.6,5-1.3,10.5-0.2,15.5c0.7,3.1,4.8,1.5,7.3,1.5c121.5,0.1,242.9,0,364.4,0.3
			c6.9,0,8.4-2,8-8.3c-0.7-11.6,1.3-9.5-10.2-9.7c-3-0.1-6,0-9,0c-20.6-0.1-37.1-15.3-37.4-36c-0.5-37.2-0.1-74.5-0.3-111.7
			c0-4.3,1.4-5.4,5.6-5.4c20.8,0.2,39.5,7,55.5,19.7c57,45.2,110.1,94.8,161.9,145.9c3.8,3.8,7.4,5.6,12.9,5.5
			c76.7-0.2,153.5-0.2,230.2,0c6.9,0,9.2-1.2,9.3-8.7c0.1-8.2-2.6-10.4-10.1-9.4c-3.4,0.5-7,0.1-10.5,0.1
			c-21.9-0.1-37.6-15.9-37.6-37.9c0-35,0-70,0-105c0-11.7,0-11.6,11.8-9.8c21.3,3.3,40.4,11.9,56.8,25.3
			c54.1,44.3,107,90.1,156.3,139.8c3.8,3.9,7.5,5.5,13,5.5c74.5-0.2,149-0.1,223.4-0.1c12.1,0,11.9,0,11.8-12.5
			c0-4.2-1.1-5.7-5.4-5.5c-6.2,0.3-12.5,0.2-18.7,0.1c-18.9-0.3-34.9-16.1-34.9-35c-0.1-99.2-0.1-198.4,0.1-297.6
			c0-15.7,8.1-26.8,22.5-33.3c8.8-4,18.1-3.2,27.3-2.9c6.6,0.2,9.9-0.5,9.4-8.5c-0.4-6.7-0.7-9.8-9.1-9.7
			c-54.7,0.5-109.5,0.2-164.2,0.2c-11.8,0-11.5,0-11.6,12.1c0,4.7,1.4,6,6,5.8c6.5-0.2,13-0.2,19.5,0.5
			c20.2,2.3,32.8,16.6,32.8,36.9c0,99.7,0,199.4,0,299.1c0,2.2,0,4.5-0.2,6.7c-1.9,20-14.3,28.1-33.3,21.8
			c-15.7-5.2-29.3-13.9-41.3-25c-30.2-27.7-58.2-57.7-87.8-86c-15-14.4-30.6-27.9-50.5-35.4c-1.1-0.4-3.1-0.4-2.7-2.7
			c19-2.6,38.2-4.7,56.7-10.3c26.7-8,47.7-23.1,60.8-48.5c11.6-22.5,12.5-46.4,10.9-70.8c-2.6-40.2-22-69.2-58.2-86.7
			c-23-11.1-47.5-17.1-73-17.1c-81.5-0.2-162.9-0.1-244.4-0.1c-1.7,0-3.5,0-5.2,0c-2.1,0-2.9,0.9-3.4,3
			c-2.4,11.6-0.2,14.5,11.4,14.5c3,0,6,0,9,0.2c25.2,1.6,38,15.2,38,40.5c0,96,0,191.9,0,287.9c0,2.7,0,5.5-0.2,8.2
			c-2.2,24.7-21.6,36.8-44.6,28c-8-3.1-15.5-7.1-21.7-13c-15.4-14.6-30-30.1-45.8-44.2C593.8,631.6,564,594,520.9,570.2z"/>
		<path class="st1" d="M520.9,570.2C564,594,593.8,631.6,629,663c15.8,14.1,30.4,29.6,45.8,44.2c6.2,5.9,13.7,10,21.7,13
			c23,8.8,42.4-3.3,44.6-28c0.2-2.7,0.2-5.5,0.2-8.2c0-96,0-191.9,0-287.9c0-25.3-12.8-38.9-38-40.5c-3-0.2-6-0.1-9-0.2
			c-11.6,0-13.8-2.9-11.4-14.5c0.4-2.1,1.3-3.1,3.4-3c1.7,0,3.5,0,5.2,0c81.5,0,162.9-0.2,244.4,0.1c25.5,0.1,50,6,73,17.1
			c36.3,17.5,55.6,46.6,58.2,86.7c1.6,24.4,0.6,48.3-10.9,70.8c-13.1,25.4-34.1,40.5-60.8,48.5c-18.5,5.6-37.6,7.6-56.7,10.3
			c-0.4,2.3,1.6,2.3,2.7,2.7c19.9,7.5,35.5,21,50.5,35.4c29.6,28.4,57.5,58.3,87.8,86c12.1,11.1,25.7,19.8,41.3,25
			c19.1,6.3,31.5-1.8,33.3-21.8c0.2-2.2,0.2-4.5,0.2-6.7c0-99.7,0-199.4,0-299.1c0-20.3-12.6-34.6-32.8-36.9
			c-6.4-0.7-13-0.8-19.5-0.5c-4.6,0.2-6-1.1-6-5.8c0-12.1-0.2-12.1,11.6-12.1c54.7,0,109.5,0.2,164.2-0.2c8.4-0.1,8.7,3,9.1,9.7
			c0.4,8-2.9,8.8-9.4,8.5c-9.2-0.3-18.5-1.1-27.3,2.9c-14.3,6.5-22.4,17.6-22.5,33.3c-0.2,99.2-0.1,198.4-0.1,297.6
			c0,18.9,16,34.7,34.9,35c6.2,0.1,12.5,0.3,18.7-0.1c4.3-0.2,5.4,1.3,5.4,5.5c0.1,12.5,0.3,12.5-11.8,12.5
			c-74.5,0-149-0.1-223.4,0.1c-5.5,0-9.2-1.7-13-5.5c-49.3-49.8-102.2-95.5-156.3-139.8c-16.4-13.5-35.5-22.1-56.8-25.3
			c-11.8-1.8-11.8-1.9-11.8,9.8c0,35,0,70,0,105c0,22,15.7,37.8,37.6,37.9c3.5,0,7,0.4,10.5-0.1c7.5-1,10.2,1.2,10.1,9.4
			c-0.1,7.5-2.3,8.8-9.3,8.7c-76.7-0.3-153.4-0.2-230.2,0c-5.5,0-9.1-1.8-12.9-5.5c-51.8-51.1-104.9-100.6-161.9-145.9
			c-16-12.7-34.7-19.5-55.5-19.7c-4.2,0-5.6,1.1-5.6,5.4c0.2,37.2-0.2,74.5,0.3,111.7c0.3,20.7,16.8,35.9,37.4,36c3,0,6-0.1,9,0
			c11.4,0.2,9.5-1.8,10.2,9.7c0.4,6.3-1.1,8.4-8,8.3c-121.5-0.2-242.9-0.2-364.4-0.3c-2.5,0-6.6,1.7-7.3-1.5
			c-1.1-5-1.3-10.4,0.2-15.5c0.5-1.7,3.2-0.8,4.8-0.9c6.2-0.1,12.5,0.1,18.7-0.1c19.2-0.7,33.7-19.3,33.6-35.5
			c-0.5-98.7-0.3-197.4-0.3-296.1c0-21.6-14.9-36.8-36.5-37.3c-3.2-0.1-6.5,0-9.7,0c-11.9,0-13.5-2.3-11.5-14.3
			c0.9-5.1,4.5-3.1,7-3.1c39.2-0.1,78.5-0.1,117.7-0.1c17.7,0,35.5,0.4,53.2-0.2c8.2-0.3,6.5,4.5,6.5,9c0,4.6,1.4,9.6-6.7,8.9
			c-7.9-0.7-16.1-1-23.9,0.7c-18.1,4-28.9,18.6-28.9,38.5c0,89.7,0,179.4,0,269.1c0,9.2-0.5,18.4,1,27.7c1.8,10.9,7.5,19,16.5,24.7
			c6.8,4.3,14.5,7.4,22.5,7.6c17.9,0.5,36,1.9,53.8-1.1c24-4,36.4-18.5,36.4-42.5c0-97,0-193.9,0-290.9c0-18.5-9.2-29.4-27.4-32.5
			c-8.2-1.4-16.4-1.9-24.6-1.5c-4.3,0.2-5.4-1.3-5.5-5.5C265,338,264.8,338,276.8,338c76,0,152,0,227.9,0c24.4,0,48.3,2.9,71.4,11.4
			c41.7,15.3,65,45.7,71.8,88.9c2.7,17.3,2.9,34.8-0.8,52.1c-7.1,32.6-27.6,53.3-57.4,66.1C567.9,565.8,545,568.9,520.9,570.2z
			 M391.3,535.4c-0.2,1.4,0.5,1.9,1.9,1.8c29.2,1.1,58.4,0.1,87.6-0.2c17.5-0.2,34.8-0.8,51.2-8.4c14.2-6.6,23.8-16.5,28-31.9
			c5-18.4,5.2-37,4.1-55.7c-1.8-30.7-14.7-54.7-42.3-70.2c-28.3-15.9-57.7-16.6-87.3-6.1c-31.2,11.1-43.5,30-43.6,63
			c0,11.5,0,23,0,34.4C390.9,486.5,391.1,511,391.3,535.4z M808,474.1c0,19,0.1,37.9-0.1,56.9c-0.1,4.7,0.9,6.4,6,6.4
			c26.5-0.3,52.9,0.1,79.4-0.2c19.4-0.2,38.9-0.2,57-9.2c12.1-6,20.9-14.5,25.3-27.9c7.2-22.2,6.9-44.7,4.5-67.4
			c-3-28.5-17.9-49-42.9-62.7c-27.6-15.2-56.2-15.5-85.3-5.6c-30.4,10.3-44.1,30-44,61.8C808,442.1,808,458.1,808,474.1z"/>
		<path class="st0" d="M808,474.1c0-16,0.1-32,0-47.9c-0.1-31.8,13.6-51.5,44-61.8c29.1-9.8,57.7-9.6,85.3,5.6
			c25,13.7,39.8,34.2,42.9,62.7c2.4,22.7,2.7,45.2-4.5,67.4c-4.3,13.3-13.1,21.9-25.3,27.9c-18.1,9-37.6,9-57,9.2
			c-26.5,0.3-52.9-0.1-79.4,0.2c-5.2,0.1-6.1-1.7-6-6.4C808.1,512,808,493,808,474.1z"/>
		<path class="st0" d="M391.3,535.4c-0.2-24.4-0.3-48.9-0.4-73.3c-0.1-11.5,0-23,0-34.4c0-32.9,12.4-51.9,43.6-63
			c29.7-10.6,59-9.9,87.3,6.1c27.6,15.5,40.6,39.5,42.3,70.2c1.1,18.7,0.9,37.3-4.1,55.7c-4.2,15.4-13.9,25.3-28,31.9
			c-16.4,7.6-33.7,8.2-51.2,8.4c-29.2,0.3-58.4,1.3-87.6,0.2C392.5,536.6,391.9,536,391.3,535.4z"/>
		<path class="st2" d="M391.3,535.4c0.6,0.6,1.2,1.2,1.9,1.8C391.8,537.4,391.1,536.9,391.3,535.4z"/>
	</g>
</g>
</svg>
