<svg xmlns="http://www.w3.org/2000/svg" xmlns:xlink="http://www.w3.org/1999/xlink" width="500" zoomAndPan="magnify" viewBox="0 0 375 374.999991" height="500" preserveAspectRatio="xMidYMid meet" version="1.0"><defs><g/></defs><g fill="#000000" fill-opacity="1"><g transform="translate(118.312497, 208.257877)"><g><path d="M 8.25 7.917969 C 8.214844 7.324219 8.175781 6.472656 8.175781 5.625 C 8.175781 3.550781 8.289062 1.257812 8.289062 1 C 8.289062 0.664062 8.472656 0.222656 8.730469 0.0351562 C 9.582031 -0.480469 10.765625 -0.664062 11.914062 -0.664062 C 13.875 -0.664062 15.761719 -0.0742188 15.761719 0.59375 L 15.761719 0.628906 C 15.796875 1.257812 15.796875 1.851562 15.796875 2.40625 C 15.796875 4.402344 15.648438 5.992188 15.613281 8.066406 C 15.722656 9.101562 16.464844 9.546875 17.242188 9.546875 C 18.386719 9.546875 19.683594 8.695312 19.757812 7.398438 C 20.089844 4.921875 20.347656 1.367188 20.347656 -2.441406 C 20.347656 -10.507812 19.238281 -19.832031 15.390625 -23.269531 C 14.390625 -24.195312 13.132812 -24.601562 11.875 -24.601562 C 10.542969 -24.601562 9.175781 -24.085938 8.101562 -23.125 C 4.21875 -19.535156 1.148438 -9.136719 1.148438 0.40625 C 1.148438 2.921875 1.367188 5.363281 1.8125 7.621094 C 2.183594 9.433594 3.589844 10.210938 4.996094 10.210938 C 6.4375 10.210938 7.917969 9.359375 8.25 7.917969 Z M 10.953125 -18.5 C 11.320312 -19.277344 11.988281 -19.609375 12.652344 -19.609375 C 13.394531 -19.609375 14.097656 -19.238281 14.503906 -18.683594 C 15.796875 -16.464844 16.167969 -10.285156 16.167969 -5.773438 C 16.167969 -4.921875 16.167969 -4.144531 16.132812 -3.476562 C 16.132812 -3.253906 16.019531 -3.109375 15.871094 -3.109375 C 15.835938 -3.109375 15.761719 -3.144531 15.722656 -3.144531 C 15.390625 -3.183594 14.613281 -3.21875 13.652344 -3.21875 C 11.988281 -3.21875 9.839844 -3.144531 9.136719 -3.109375 C 8.769531 -3.109375 8.582031 -3.109375 8.582031 -3.550781 L 8.582031 -4.292969 C 8.582031 -7.917969 9.136719 -14.945312 10.953125 -18.5 Z M 10.953125 -18.5 "/></g></g></g><g fill="#000000" fill-opacity="1"><g transform="translate(140.880096, 208.257877)"><g><path d="M 9.839844 -13.058594 C 9.804688 -12.914062 9.804688 -12.726562 9.804688 -12.578125 C 9.804688 -12.28125 9.839844 -11.988281 9.839844 -11.800781 C 9.839844 -11.691406 9.804688 -11.652344 9.804688 -11.652344 L 9.765625 -11.652344 C 8.65625 -12.914062 7.105469 -13.613281 5.550781 -13.613281 C 2.960938 -13.613281 0.40625 -11.652344 0.0351562 -7.03125 C -0.0351562 -6.289062 -0.0742188 -5.511719 -0.0742188 -4.773438 C -0.0742188 -3.109375 0.148438 -1.480469 0.738281 0.109375 C 1.628906 2.441406 3.328125 3.253906 4.996094 3.253906 C 6.105469 3.253906 7.175781 2.921875 7.953125 2.441406 C 8.433594 2.183594 8.878906 1.851562 9.472656 1.480469 C 9.359375 3.328125 9.285156 12.839844 6.4375 13.246094 C 6.214844 13.28125 6.03125 13.28125 5.84375 13.28125 C 1.886719 13.28125 4.328125 6.992188 2.109375 6.992188 L 1.886719 6.992188 C 1.40625 7.066406 1.109375 7.363281 1.035156 7.804688 L 1.035156 8.363281 C 1.035156 13.207031 3.738281 15.390625 5.957031 15.390625 L 6.066406 15.390625 C 14.28125 15.355469 15.910156 4.476562 15.910156 -3.921875 C 15.910156 -8.953125 15.316406 -13.058594 15.207031 -13.394531 C 14.910156 -14.171875 13.875 -14.539062 12.765625 -14.539062 C 11.46875 -14.539062 10.101562 -14.023438 9.839844 -13.058594 Z M 6.511719 0.703125 L 6.402344 0.703125 C 4.660156 0.703125 3.664062 -2.144531 3.664062 -5.105469 C 3.664062 -8.214844 4.773438 -11.394531 7.175781 -11.507812 L 7.324219 -11.507812 C 8.324219 -11.507812 9.472656 -10.765625 9.472656 -9.839844 L 9.472656 -9.804688 C 9.472656 -7.511719 9.546875 -5.179688 9.546875 -2.847656 C 9.546875 -1.40625 8.582031 0.59375 6.511719 0.703125 Z M 6.511719 0.703125 "/></g></g></g><g fill="#000000" fill-opacity="1"><g transform="translate(158.157263, 208.257877)"><g><path d="M 17.316406 -6.289062 L 17.390625 -6.289062 C 17.871094 -6.289062 19.421875 -6.695312 19.644531 -8.25 C 19.683594 -8.433594 19.71875 -8.695312 19.71875 -9.027344 C 19.71875 -10.914062 18.722656 -14.464844 15.429688 -15.132812 C 15.09375 -15.207031 14.761719 -15.242188 14.464844 -15.242188 C 12.023438 -15.242188 10.46875 -13.320312 9.691406 -13.320312 C 9.433594 -13.320312 9.25 -13.578125 9.210938 -14.28125 C 8.84375 -16.464844 7.363281 -17.460938 5.734375 -17.460938 C 3.589844 -17.460938 1.292969 -15.722656 1.292969 -12.949219 L 1.292969 -12.28125 C 1.292969 -9.691406 1.515625 3.476562 2.738281 7.695312 C 2.996094 8.65625 4.328125 9.285156 5.476562 9.285156 C 6.214844 9.285156 6.882812 9.027344 7.214844 8.433594 C 8.101562 7.140625 9.101562 -0.222656 9.546875 -7.621094 C 9.621094 -9.359375 11.765625 -11.914062 13.578125 -11.914062 C 14.023438 -11.914062 14.429688 -11.765625 14.800781 -11.433594 C 16.351562 -9.988281 16.203125 -8.695312 16.5 -7.105469 C 16.574219 -6.660156 16.90625 -6.289062 17.316406 -6.289062 Z M 17.316406 -6.289062 "/></g></g></g><g fill="#000000" fill-opacity="1"><g transform="translate(178.431111, 208.257877)"><g><path d="M 7.917969 -14.355469 C 2.886719 -14.355469 0.628906 -9.324219 0.628906 -4.144531 C 0.628906 1.40625 3.21875 7.175781 7.769531 7.175781 L 8.175781 7.175781 C 13.320312 6.808594 16.167969 1.148438 16.167969 -4.253906 C 16.167969 -9.398438 13.578125 -14.355469 7.917969 -14.355469 Z M 7.472656 4.402344 L 7.363281 4.402344 C 5.585938 4.402344 4.734375 0.371094 4.734375 -3.550781 C 4.734375 -7.289062 5.511719 -10.914062 7.105469 -10.988281 L 7.214844 -10.988281 C 9.433594 -10.988281 10.285156 -7.84375 10.285156 -4.402344 C 10.285156 -0.222656 9.027344 4.402344 7.472656 4.402344 Z M 7.472656 4.402344 "/></g></g></g><g fill="#000000" fill-opacity="1"><g transform="translate(195.967246, 208.257877)"><g><path d="M 7.214844 12.949219 C 7.324219 12.394531 7.4375 12.171875 7.621094 12.171875 C 8.066406 12.171875 8.953125 13.28125 11.542969 13.28125 L 11.617188 13.28125 C 17.277344 13.28125 20.386719 7.472656 20.679688 2.699219 C 20.71875 2.332031 20.71875 1.8125 20.71875 1.257812 C 20.71875 -2.441406 19.792969 -9.324219 12.503906 -9.324219 L 12.246094 -9.324219 C 9.472656 -9.25 8.621094 -7.585938 8.433594 -7.585938 C 8.398438 -7.585938 8.398438 -7.660156 8.398438 -7.769531 C 8.433594 -10.394531 8.878906 -15.796875 8.878906 -21.457031 C 8.878906 -22.789062 8.878906 -24.121094 8.804688 -25.453125 C 8.730469 -27.191406 7.324219 -28.191406 5.882812 -28.191406 C 4.585938 -28.191406 3.21875 -27.339844 2.886719 -25.453125 C 2.070312 -21.164062 1.222656 -14.023438 1.222656 -5.808594 C 1.222656 0.0351562 1.664062 6.4375 2.886719 12.765625 C 3.109375 13.910156 4.03125 14.390625 4.957031 14.390625 C 5.992188 14.390625 7.03125 13.835938 7.214844 12.949219 Z M 8.25 -4.699219 C 8.289062 -5.402344 9.914062 -6.546875 11.582031 -6.546875 C 12.28125 -6.546875 12.984375 -6.328125 13.578125 -5.84375 C 14.429688 -5.105469 14.984375 -2.21875 14.984375 0.960938 C 14.984375 5.511719 13.875 10.65625 10.953125 10.839844 L 10.730469 10.839844 C 9.621094 10.839844 8.695312 10.324219 7.769531 9.765625 C 7.621094 9.65625 7.585938 9.546875 7.585938 9.433594 C 7.585938 9.285156 7.621094 9.136719 7.621094 9.027344 L 7.621094 8.433594 C 7.621094 7.734375 7.695312 6.84375 8.25 -4.699219 Z M 8.25 -4.699219 "/></g></g></g><g fill="#000000" fill-opacity="1"><g transform="translate(217.350976, 208.257877)"><g><path d="M 7.917969 -14.355469 C 2.886719 -14.355469 0.628906 -9.324219 0.628906 -4.144531 C 0.628906 1.40625 3.21875 7.175781 7.769531 7.175781 L 8.175781 7.175781 C 13.320312 6.808594 16.167969 1.148438 16.167969 -4.253906 C 16.167969 -9.398438 13.578125 -14.355469 7.917969 -14.355469 Z M 7.472656 4.402344 L 7.363281 4.402344 C 5.585938 4.402344 4.734375 0.371094 4.734375 -3.550781 C 4.734375 -7.289062 5.511719 -10.914062 7.105469 -10.988281 L 7.214844 -10.988281 C 9.433594 -10.988281 10.285156 -7.84375 10.285156 -4.402344 C 10.285156 -0.222656 9.027344 4.402344 7.472656 4.402344 Z M 7.472656 4.402344 "/></g></g></g><g fill="#000000" fill-opacity="1"><g transform="translate(234.887112, 208.257877)"><g><path d="M 11.46875 11.507812 C 19.386719 11.507812 20.71875 3.589844 20.71875 0.8125 C 20.71875 0.59375 20.679688 0.40625 20.679688 0.257812 C 20.570312 -0.703125 19.460938 -1.332031 18.3125 -1.332031 C 17.128906 -1.332031 15.910156 -0.628906 15.910156 1.074219 L 15.910156 1.40625 C 15.910156 4.179688 14.652344 8.992188 11.875 9.027344 L 11.839844 9.027344 C 10.0625 9.027344 9.546875 4.253906 9.546875 -0.960938 C 9.546875 -7.105469 10.285156 -13.800781 10.507812 -13.800781 C 12.023438 -13.835938 15.613281 -14.28125 16.277344 -14.726562 C 16.539062 -14.910156 16.648438 -15.132812 16.648438 -15.355469 C 16.648438 -15.871094 16.058594 -16.351562 15.648438 -16.5 C 15.132812 -16.648438 11.691406 -16.90625 10.988281 -17.019531 C 10.617188 -17.019531 10.46875 -17.09375 10.46875 -17.425781 L 10.46875 -17.574219 C 10.691406 -19.203125 11.171875 -21.71875 11.171875 -23.789062 C 11.171875 -24.601562 11.097656 -25.34375 10.914062 -25.933594 C 10.691406 -26.5625 9.472656 -26.933594 8.324219 -26.933594 C 7.175781 -26.933594 6.105469 -26.601562 5.992188 -25.859375 C 5.734375 -25.378906 5.144531 -18.128906 4.996094 -16.945312 C 2.886719 -16.945312 1 -15.945312 1 -15.28125 L 1 -15.242188 C 1.222656 -14.132812 2.960938 -13.875 4.660156 -13.6875 C 4.476562 -8.804688 4.253906 -4.550781 4.253906 -1.035156 C 4.253906 7.140625 5.476562 11.507812 11.285156 11.507812 Z M 11.46875 11.507812 "/></g></g></g><g fill="#000000" fill-opacity="1"><g transform="translate(101.217454, 232.821899)"><g><path d="M 3.140625 0 L 2.3125 0 L 2.3125 -6.3125 L 0.09375 -6.3125 L 0.09375 -7.03125 L 5.359375 -7.03125 L 5.359375 -6.3125 L 3.140625 -6.3125 Z M 3.140625 0 "/></g></g></g><g fill="#000000" fill-opacity="1"><g transform="translate(108.990046, 232.821899)"><g><path d="M 4.453125 0 L 4.453125 -3.40625 C 4.453125 -3.84375 4.351562 -4.164062 4.15625 -4.375 C 3.96875 -4.582031 3.664062 -4.6875 3.25 -4.6875 C 2.6875 -4.6875 2.273438 -4.535156 2.015625 -4.234375 C 1.765625 -3.929688 1.640625 -3.441406 1.640625 -2.765625 L 1.640625 0 L 0.84375 0 L 0.84375 -7.484375 L 1.640625 -7.484375 L 1.640625 -5.21875 C 1.640625 -4.945312 1.628906 -4.722656 1.609375 -4.546875 L 1.65625 -4.546875 C 1.8125 -4.796875 2.035156 -4.992188 2.328125 -5.140625 C 2.617188 -5.285156 2.953125 -5.359375 3.328125 -5.359375 C 3.972656 -5.359375 4.453125 -5.203125 4.765625 -4.890625 C 5.085938 -4.585938 5.25 -4.101562 5.25 -3.4375 L 5.25 0 Z M 4.453125 0 "/></g></g></g><g fill="#000000" fill-opacity="1"><g transform="translate(117.358645, 232.821899)"><g><path d="M 3.078125 0.09375 C 2.296875 0.09375 1.675781 -0.140625 1.21875 -0.609375 C 0.769531 -1.085938 0.546875 -1.75 0.546875 -2.59375 C 0.546875 -3.445312 0.753906 -4.125 1.171875 -4.625 C 1.597656 -5.125 2.164062 -5.375 2.875 -5.375 C 3.53125 -5.375 4.050781 -5.15625 4.4375 -4.71875 C 4.820312 -4.28125 5.015625 -3.707031 5.015625 -3 L 5.015625 -2.5 L 1.375 -2.5 C 1.394531 -1.875 1.550781 -1.398438 1.84375 -1.078125 C 2.144531 -0.765625 2.566406 -0.609375 3.109375 -0.609375 C 3.671875 -0.609375 4.234375 -0.722656 4.796875 -0.953125 L 4.796875 -0.25 C 4.503906 -0.125 4.234375 -0.0351562 3.984375 0.015625 C 3.734375 0.0664062 3.429688 0.09375 3.078125 0.09375 Z M 2.859375 -4.703125 C 2.429688 -4.703125 2.09375 -4.5625 1.84375 -4.28125 C 1.59375 -4.007812 1.445312 -3.628906 1.40625 -3.140625 L 4.15625 -3.140625 C 4.15625 -3.648438 4.039062 -4.035156 3.8125 -4.296875 C 3.59375 -4.566406 3.273438 -4.703125 2.859375 -4.703125 Z M 2.859375 -4.703125 "/></g></g></g><g fill="#000000" fill-opacity="1"><g transform="translate(125.20814, 232.821899)"><g/></g></g><g fill="#000000" fill-opacity="1"><g transform="translate(130.092015, 232.821899)"><g><path d="M 1.78125 0 L 0.96875 0 L 0.96875 -7.03125 L 4.890625 -7.03125 L 4.890625 -6.3125 L 1.78125 -6.3125 L 1.78125 -3.734375 L 4.703125 -3.734375 L 4.703125 -3.015625 L 1.78125 -3.015625 Z M 1.78125 0 "/></g></g></g><g fill="#000000" fill-opacity="1"><g transform="translate(137.499312, 232.821899)"><g><path d="M 4.09375 0 L 3.9375 -0.75 L 3.890625 -0.75 C 3.628906 -0.414062 3.367188 -0.191406 3.109375 -0.078125 C 2.847656 0.0351562 2.519531 0.09375 2.125 0.09375 C 1.601562 0.09375 1.191406 -0.0390625 0.890625 -0.3125 C 0.597656 -0.582031 0.453125 -0.960938 0.453125 -1.453125 C 0.453125 -2.523438 1.304688 -3.085938 3.015625 -3.140625 L 3.90625 -3.15625 L 3.90625 -3.484375 C 3.90625 -3.898438 3.816406 -4.207031 3.640625 -4.40625 C 3.460938 -4.601562 3.175781 -4.703125 2.78125 -4.703125 C 2.34375 -4.703125 1.847656 -4.566406 1.296875 -4.296875 L 1.046875 -4.90625 C 1.304688 -5.050781 1.585938 -5.160156 1.890625 -5.234375 C 2.203125 -5.316406 2.515625 -5.359375 2.828125 -5.359375 C 3.460938 -5.359375 3.929688 -5.21875 4.234375 -4.9375 C 4.535156 -4.664062 4.6875 -4.21875 4.6875 -3.59375 L 4.6875 0 Z M 2.28125 -0.5625 C 2.78125 -0.5625 3.171875 -0.695312 3.453125 -0.96875 C 3.742188 -1.238281 3.890625 -1.625 3.890625 -2.125 L 3.890625 -2.59375 L 3.078125 -2.5625 C 2.441406 -2.539062 1.984375 -2.441406 1.703125 -2.265625 C 1.429688 -2.085938 1.296875 -1.816406 1.296875 -1.453125 C 1.296875 -1.160156 1.378906 -0.9375 1.546875 -0.78125 C 1.722656 -0.632812 1.96875 -0.5625 2.28125 -0.5625 Z M 2.28125 -0.5625 "/></g></g></g><g fill="#000000" fill-opacity="1"><g transform="translate(145.300743, 232.821899)"><g><path d="M 3.25 -5.375 C 3.488281 -5.375 3.703125 -5.351562 3.890625 -5.3125 L 3.78125 -4.578125 C 3.5625 -4.617188 3.367188 -4.640625 3.203125 -4.640625 C 2.773438 -4.640625 2.40625 -4.46875 2.09375 -4.125 C 1.789062 -3.78125 1.640625 -3.347656 1.640625 -2.828125 L 1.640625 0 L 0.84375 0 L 0.84375 -5.28125 L 1.5 -5.28125 L 1.59375 -4.296875 L 1.640625 -4.296875 C 1.835938 -4.640625 2.070312 -4.90625 2.34375 -5.09375 C 2.625 -5.28125 2.925781 -5.375 3.25 -5.375 Z M 3.25 -5.375 "/></g></g></g><g fill="#000000" fill-opacity="1"><g transform="translate(151.645796, 232.821899)"><g><path d="M 7.578125 0 L 7.578125 -3.4375 C 7.578125 -3.851562 7.484375 -4.164062 7.296875 -4.375 C 7.117188 -4.582031 6.84375 -4.6875 6.46875 -4.6875 C 5.96875 -4.6875 5.597656 -4.546875 5.359375 -4.265625 C 5.117188 -3.984375 5 -3.546875 5 -2.953125 L 5 0 L 4.203125 0 L 4.203125 -3.4375 C 4.203125 -3.851562 4.113281 -4.164062 3.9375 -4.375 C 3.757812 -4.582031 3.476562 -4.6875 3.09375 -4.6875 C 2.59375 -4.6875 2.222656 -4.535156 1.984375 -4.234375 C 1.753906 -3.941406 1.640625 -3.453125 1.640625 -2.765625 L 1.640625 0 L 0.84375 0 L 0.84375 -5.28125 L 1.5 -5.28125 L 1.625 -4.546875 L 1.671875 -4.546875 C 1.816406 -4.804688 2.023438 -5.007812 2.296875 -5.15625 C 2.578125 -5.300781 2.882812 -5.375 3.21875 -5.375 C 4.050781 -5.375 4.59375 -5.078125 4.84375 -4.484375 L 4.875 -4.484375 C 5.039062 -4.753906 5.269531 -4.96875 5.5625 -5.125 C 5.863281 -5.289062 6.203125 -5.375 6.578125 -5.375 C 7.179688 -5.375 7.628906 -5.21875 7.921875 -4.90625 C 8.222656 -4.601562 8.375 -4.113281 8.375 -3.4375 L 8.375 0 Z M 7.578125 0 "/></g></g></g><g fill="#000000" fill-opacity="1"><g transform="translate(163.12902, 232.821899)"><g><path d="M 3.078125 0.09375 C 2.296875 0.09375 1.675781 -0.140625 1.21875 -0.609375 C 0.769531 -1.085938 0.546875 -1.75 0.546875 -2.59375 C 0.546875 -3.445312 0.753906 -4.125 1.171875 -4.625 C 1.597656 -5.125 2.164062 -5.375 2.875 -5.375 C 3.53125 -5.375 4.050781 -5.15625 4.4375 -4.71875 C 4.820312 -4.28125 5.015625 -3.707031 5.015625 -3 L 5.015625 -2.5 L 1.375 -2.5 C 1.394531 -1.875 1.550781 -1.398438 1.84375 -1.078125 C 2.144531 -0.765625 2.566406 -0.609375 3.109375 -0.609375 C 3.671875 -0.609375 4.234375 -0.722656 4.796875 -0.953125 L 4.796875 -0.25 C 4.503906 -0.125 4.234375 -0.0351562 3.984375 0.015625 C 3.734375 0.0664062 3.429688 0.09375 3.078125 0.09375 Z M 2.859375 -4.703125 C 2.429688 -4.703125 2.09375 -4.5625 1.84375 -4.28125 C 1.59375 -4.007812 1.445312 -3.628906 1.40625 -3.140625 L 4.15625 -3.140625 C 4.15625 -3.648438 4.039062 -4.035156 3.8125 -4.296875 C 3.59375 -4.566406 3.273438 -4.703125 2.859375 -4.703125 Z M 2.859375 -4.703125 "/></g></g></g><g fill="#000000" fill-opacity="1"><g transform="translate(170.978516, 232.821899)"><g><path d="M 3.25 -5.375 C 3.488281 -5.375 3.703125 -5.351562 3.890625 -5.3125 L 3.78125 -4.578125 C 3.5625 -4.617188 3.367188 -4.640625 3.203125 -4.640625 C 2.773438 -4.640625 2.40625 -4.46875 2.09375 -4.125 C 1.789062 -3.78125 1.640625 -3.347656 1.640625 -2.828125 L 1.640625 0 L 0.84375 0 L 0.84375 -5.28125 L 1.5 -5.28125 L 1.59375 -4.296875 L 1.640625 -4.296875 C 1.835938 -4.640625 2.070312 -4.90625 2.34375 -5.09375 C 2.625 -5.28125 2.925781 -5.375 3.25 -5.375 Z M 3.25 -5.375 "/></g></g></g><g fill="#000000" fill-opacity="1"><g transform="translate(177.323573, 232.821899)"><g><path d="M 4.25 -1.4375 C 4.25 -0.945312 4.066406 -0.566406 3.703125 -0.296875 C 3.335938 -0.0351562 2.820312 0.09375 2.15625 0.09375 C 1.457031 0.09375 0.914062 -0.015625 0.53125 -0.234375 L 0.53125 -0.984375 C 0.78125 -0.847656 1.050781 -0.742188 1.34375 -0.671875 C 1.632812 -0.597656 1.914062 -0.5625 2.1875 -0.5625 C 2.601562 -0.5625 2.921875 -0.628906 3.140625 -0.765625 C 3.367188 -0.898438 3.484375 -1.101562 3.484375 -1.375 C 3.484375 -1.582031 3.394531 -1.757812 3.21875 -1.90625 C 3.039062 -2.050781 2.691406 -2.222656 2.171875 -2.421875 C 1.679688 -2.597656 1.332031 -2.753906 1.125 -2.890625 C 0.914062 -3.023438 0.757812 -3.179688 0.65625 -3.359375 C 0.5625 -3.535156 0.515625 -3.742188 0.515625 -3.984375 C 0.515625 -4.410156 0.6875 -4.75 1.03125 -5 C 1.382812 -5.25 1.863281 -5.375 2.46875 -5.375 C 3.039062 -5.375 3.597656 -5.257812 4.140625 -5.03125 L 3.859375 -4.375 C 3.328125 -4.59375 2.847656 -4.703125 2.421875 -4.703125 C 2.035156 -4.703125 1.742188 -4.640625 1.546875 -4.515625 C 1.359375 -4.398438 1.265625 -4.238281 1.265625 -4.03125 C 1.265625 -3.894531 1.300781 -3.773438 1.375 -3.671875 C 1.445312 -3.578125 1.5625 -3.484375 1.71875 -3.390625 C 1.882812 -3.296875 2.195312 -3.164062 2.65625 -3 C 3.28125 -2.769531 3.703125 -2.539062 3.921875 -2.3125 C 4.140625 -2.082031 4.25 -1.789062 4.25 -1.4375 Z M 4.25 -1.4375 "/></g></g></g><g fill="#000000" fill-opacity="1"><g transform="translate(184.346348, 232.821899)"><g><path d="M 1.53125 -7.03125 L 1.34375 -4.5 L 0.84375 -4.5 L 0.640625 -7.03125 Z M 1.53125 -7.03125 "/></g></g></g><g fill="#000000" fill-opacity="1"><g transform="translate(188.850507, 232.821899)"><g/></g></g><g fill="#000000" fill-opacity="1"><g transform="translate(193.734382, 232.821899)"><g><path d="M 3.984375 -6.40625 C 3.210938 -6.40625 2.601562 -6.144531 2.15625 -5.625 C 1.707031 -5.113281 1.484375 -4.410156 1.484375 -3.515625 C 1.484375 -2.597656 1.695312 -1.882812 2.125 -1.375 C 2.550781 -0.875 3.164062 -0.625 3.96875 -0.625 C 4.457031 -0.625 5.019531 -0.710938 5.65625 -0.890625 L 5.65625 -0.171875 C 5.164062 0.00390625 4.5625 0.09375 3.84375 0.09375 C 2.8125 0.09375 2.015625 -0.21875 1.453125 -0.84375 C 0.890625 -1.476562 0.609375 -2.375 0.609375 -3.53125 C 0.609375 -4.25 0.742188 -4.878906 1.015625 -5.421875 C 1.285156 -5.972656 1.675781 -6.394531 2.1875 -6.6875 C 2.695312 -6.988281 3.296875 -7.140625 3.984375 -7.140625 C 4.722656 -7.140625 5.367188 -7.003906 5.921875 -6.734375 L 5.578125 -6.03125 C 5.046875 -6.28125 4.515625 -6.40625 3.984375 -6.40625 Z M 3.984375 -6.40625 "/></g></g></g><g fill="#000000" fill-opacity="1"><g transform="translate(202.271205, 232.821899)"><g><path d="M 5.40625 -2.640625 C 5.40625 -1.785156 5.1875 -1.113281 4.75 -0.625 C 4.320312 -0.144531 3.722656 0.09375 2.953125 0.09375 C 2.484375 0.09375 2.066406 -0.015625 1.703125 -0.234375 C 1.335938 -0.453125 1.050781 -0.769531 0.84375 -1.1875 C 0.644531 -1.601562 0.546875 -2.085938 0.546875 -2.640625 C 0.546875 -3.503906 0.757812 -4.175781 1.1875 -4.65625 C 1.625 -5.132812 2.222656 -5.375 2.984375 -5.375 C 3.722656 -5.375 4.3125 -5.128906 4.75 -4.640625 C 5.1875 -4.148438 5.40625 -3.484375 5.40625 -2.640625 Z M 1.375 -2.640625 C 1.375 -1.960938 1.507812 -1.445312 1.78125 -1.09375 C 2.050781 -0.75 2.445312 -0.578125 2.96875 -0.578125 C 3.5 -0.578125 3.898438 -0.75 4.171875 -1.09375 C 4.441406 -1.445312 4.578125 -1.960938 4.578125 -2.640625 C 4.578125 -3.316406 4.441406 -3.828125 4.171875 -4.171875 C 3.898438 -4.515625 3.5 -4.6875 2.96875 -4.6875 C 2.445312 -4.6875 2.050781 -4.515625 1.78125 -4.171875 C 1.507812 -3.828125 1.375 -3.316406 1.375 -2.640625 Z M 1.375 -2.640625 "/></g></g></g><g fill="#000000" fill-opacity="1"><g transform="translate(210.543669, 232.821899)"><g><path d="M 7.578125 0 L 7.578125 -3.4375 C 7.578125 -3.851562 7.484375 -4.164062 7.296875 -4.375 C 7.117188 -4.582031 6.84375 -4.6875 6.46875 -4.6875 C 5.96875 -4.6875 5.597656 -4.546875 5.359375 -4.265625 C 5.117188 -3.984375 5 -3.546875 5 -2.953125 L 5 0 L 4.203125 0 L 4.203125 -3.4375 C 4.203125 -3.851562 4.113281 -4.164062 3.9375 -4.375 C 3.757812 -4.582031 3.476562 -4.6875 3.09375 -4.6875 C 2.59375 -4.6875 2.222656 -4.535156 1.984375 -4.234375 C 1.753906 -3.941406 1.640625 -3.453125 1.640625 -2.765625 L 1.640625 0 L 0.84375 0 L 0.84375 -5.28125 L 1.5 -5.28125 L 1.625 -4.546875 L 1.671875 -4.546875 C 1.816406 -4.804688 2.023438 -5.007812 2.296875 -5.15625 C 2.578125 -5.300781 2.882812 -5.375 3.21875 -5.375 C 4.050781 -5.375 4.59375 -5.078125 4.84375 -4.484375 L 4.875 -4.484375 C 5.039062 -4.753906 5.269531 -4.96875 5.5625 -5.125 C 5.863281 -5.289062 6.203125 -5.375 6.578125 -5.375 C 7.179688 -5.375 7.628906 -5.21875 7.921875 -4.90625 C 8.222656 -4.601562 8.375 -4.113281 8.375 -3.4375 L 8.375 0 Z M 7.578125 0 "/></g></g></g><g fill="#000000" fill-opacity="1"><g transform="translate(222.026887, 232.821899)"><g><path d="M 3.296875 0.09375 C 2.953125 0.09375 2.640625 0.03125 2.359375 -0.09375 C 2.078125 -0.21875 1.835938 -0.410156 1.640625 -0.671875 L 1.59375 -0.671875 C 1.625 -0.367188 1.640625 -0.078125 1.640625 0.203125 L 1.640625 2.375 L 0.84375 2.375 L 0.84375 -5.28125 L 1.5 -5.28125 L 1.609375 -4.546875 L 1.640625 -4.546875 C 1.847656 -4.835938 2.085938 -5.046875 2.359375 -5.171875 C 2.628906 -5.304688 2.941406 -5.375 3.296875 -5.375 C 4.003906 -5.375 4.546875 -5.132812 4.921875 -4.65625 C 5.304688 -4.175781 5.5 -3.503906 5.5 -2.640625 C 5.5 -1.773438 5.300781 -1.101562 4.90625 -0.625 C 4.519531 -0.144531 3.984375 0.09375 3.296875 0.09375 Z M 3.1875 -4.6875 C 2.644531 -4.6875 2.253906 -4.535156 2.015625 -4.234375 C 1.773438 -3.941406 1.648438 -3.472656 1.640625 -2.828125 L 1.640625 -2.640625 C 1.640625 -1.898438 1.765625 -1.367188 2.015625 -1.046875 C 2.265625 -0.734375 2.660156 -0.578125 3.203125 -0.578125 C 3.660156 -0.578125 4.019531 -0.757812 4.28125 -1.125 C 4.539062 -1.5 4.671875 -2.007812 4.671875 -2.65625 C 4.671875 -3.3125 4.539062 -3.8125 4.28125 -4.15625 C 4.019531 -4.507812 3.65625 -4.6875 3.1875 -4.6875 Z M 3.1875 -4.6875 "/></g></g></g><g fill="#000000" fill-opacity="1"><g transform="translate(230.385869, 232.821899)"><g><path d="M 4.09375 0 L 3.9375 -0.75 L 3.890625 -0.75 C 3.628906 -0.414062 3.367188 -0.191406 3.109375 -0.078125 C 2.847656 0.0351562 2.519531 0.09375 2.125 0.09375 C 1.601562 0.09375 1.191406 -0.0390625 0.890625 -0.3125 C 0.597656 -0.582031 0.453125 -0.960938 0.453125 -1.453125 C 0.453125 -2.523438 1.304688 -3.085938 3.015625 -3.140625 L 3.90625 -3.15625 L 3.90625 -3.484375 C 3.90625 -3.898438 3.816406 -4.207031 3.640625 -4.40625 C 3.460938 -4.601562 3.175781 -4.703125 2.78125 -4.703125 C 2.34375 -4.703125 1.847656 -4.566406 1.296875 -4.296875 L 1.046875 -4.90625 C 1.304688 -5.050781 1.585938 -5.160156 1.890625 -5.234375 C 2.203125 -5.316406 2.515625 -5.359375 2.828125 -5.359375 C 3.460938 -5.359375 3.929688 -5.21875 4.234375 -4.9375 C 4.535156 -4.664062 4.6875 -4.21875 4.6875 -3.59375 L 4.6875 0 Z M 2.28125 -0.5625 C 2.78125 -0.5625 3.171875 -0.695312 3.453125 -0.96875 C 3.742188 -1.238281 3.890625 -1.625 3.890625 -2.125 L 3.890625 -2.59375 L 3.078125 -2.5625 C 2.441406 -2.539062 1.984375 -2.441406 1.703125 -2.265625 C 1.429688 -2.085938 1.296875 -1.816406 1.296875 -1.453125 C 1.296875 -1.160156 1.378906 -0.9375 1.546875 -0.78125 C 1.722656 -0.632812 1.96875 -0.5625 2.28125 -0.5625 Z M 2.28125 -0.5625 "/></g></g></g><g fill="#000000" fill-opacity="1"><g transform="translate(238.187294, 232.821899)"><g><path d="M 4.453125 0 L 4.453125 -3.40625 C 4.453125 -3.84375 4.351562 -4.164062 4.15625 -4.375 C 3.96875 -4.582031 3.664062 -4.6875 3.25 -4.6875 C 2.695312 -4.6875 2.289062 -4.535156 2.03125 -4.234375 C 1.769531 -3.941406 1.640625 -3.453125 1.640625 -2.765625 L 1.640625 0 L 0.84375 0 L 0.84375 -5.28125 L 1.5 -5.28125 L 1.625 -4.546875 L 1.671875 -4.546875 C 1.828125 -4.804688 2.050781 -5.007812 2.34375 -5.15625 C 2.644531 -5.300781 2.976562 -5.375 3.34375 -5.375 C 3.976562 -5.375 4.453125 -5.21875 4.765625 -4.90625 C 5.085938 -4.601562 5.25 -4.113281 5.25 -3.4375 L 5.25 0 Z M 4.453125 0 "/></g></g></g><g fill="#000000" fill-opacity="1"><g transform="translate(246.555889, 232.821899)"><g><path d="M 1.640625 0 L 0.84375 0 L 0.84375 -5.28125 L 1.640625 -5.28125 Z M 0.78125 -6.703125 C 0.78125 -6.890625 0.820312 -7.023438 0.90625 -7.109375 C 1 -7.191406 1.113281 -7.234375 1.25 -7.234375 C 1.375 -7.234375 1.484375 -7.1875 1.578125 -7.09375 C 1.671875 -7.007812 1.71875 -6.878906 1.71875 -6.703125 C 1.71875 -6.523438 1.671875 -6.390625 1.578125 -6.296875 C 1.484375 -6.210938 1.375 -6.171875 1.25 -6.171875 C 1.113281 -6.171875 1 -6.210938 0.90625 -6.296875 C 0.820312 -6.390625 0.78125 -6.523438 0.78125 -6.703125 Z M 0.78125 -6.703125 "/></g></g></g><g fill="#000000" fill-opacity="1"><g transform="translate(251.372466, 232.821899)"><g><path d="M 5.40625 -2.640625 C 5.40625 -1.785156 5.1875 -1.113281 4.75 -0.625 C 4.320312 -0.144531 3.722656 0.09375 2.953125 0.09375 C 2.484375 0.09375 2.066406 -0.015625 1.703125 -0.234375 C 1.335938 -0.453125 1.050781 -0.769531 0.84375 -1.1875 C 0.644531 -1.601562 0.546875 -2.085938 0.546875 -2.640625 C 0.546875 -3.503906 0.757812 -4.175781 1.1875 -4.65625 C 1.625 -5.132812 2.222656 -5.375 2.984375 -5.375 C 3.722656 -5.375 4.3125 -5.128906 4.75 -4.640625 C 5.1875 -4.148438 5.40625 -3.484375 5.40625 -2.640625 Z M 1.375 -2.640625 C 1.375 -1.960938 1.507812 -1.445312 1.78125 -1.09375 C 2.050781 -0.75 2.445312 -0.578125 2.96875 -0.578125 C 3.5 -0.578125 3.898438 -0.75 4.171875 -1.09375 C 4.441406 -1.445312 4.578125 -1.960938 4.578125 -2.640625 C 4.578125 -3.316406 4.441406 -3.828125 4.171875 -4.171875 C 3.898438 -4.515625 3.5 -4.6875 2.96875 -4.6875 C 2.445312 -4.6875 2.050781 -4.515625 1.78125 -4.171875 C 1.507812 -3.828125 1.375 -3.316406 1.375 -2.640625 Z M 1.375 -2.640625 "/></g></g></g><g fill="#000000" fill-opacity="1"><g transform="translate(259.644931, 232.821899)"><g><path d="M 4.453125 0 L 4.453125 -3.40625 C 4.453125 -3.84375 4.351562 -4.164062 4.15625 -4.375 C 3.96875 -4.582031 3.664062 -4.6875 3.25 -4.6875 C 2.695312 -4.6875 2.289062 -4.535156 2.03125 -4.234375 C 1.769531 -3.941406 1.640625 -3.453125 1.640625 -2.765625 L 1.640625 0 L 0.84375 0 L 0.84375 -5.28125 L 1.5 -5.28125 L 1.625 -4.546875 L 1.671875 -4.546875 C 1.828125 -4.804688 2.050781 -5.007812 2.34375 -5.15625 C 2.644531 -5.300781 2.976562 -5.375 3.34375 -5.375 C 3.976562 -5.375 4.453125 -5.21875 4.765625 -4.90625 C 5.085938 -4.601562 5.25 -4.113281 5.25 -3.4375 L 5.25 0 Z M 4.453125 0 "/></g></g></g></svg>