<svg xmlns="http://www.w3.org/2000/svg" xmlns:xlink="http://www.w3.org/1999/xlink" width="500" zoomAndPan="magnify" viewBox="0 0 375 374.999991" height="500" preserveAspectRatio="xMidYMid meet" version="1.0"><defs><g/></defs><g fill="#57e19b" fill-opacity="1"><g transform="translate(118.312497, 188.861121)"><g><path d="M 8.25 7.917969 C 8.214844 7.324219 8.175781 6.472656 8.175781 5.625 C 8.175781 3.550781 8.289062 1.257812 8.289062 1 C 8.289062 0.664062 8.472656 0.222656 8.730469 0.0351562 C 9.582031 -0.480469 10.765625 -0.664062 11.914062 -0.664062 C 13.875 -0.664062 15.761719 -0.0742188 15.761719 0.59375 L 15.761719 0.628906 C 15.796875 1.257812 15.796875 1.851562 15.796875 2.40625 C 15.796875 4.402344 15.648438 5.992188 15.613281 8.066406 C 15.722656 9.101562 16.464844 9.546875 17.242188 9.546875 C 18.386719 9.546875 19.683594 8.695312 19.757812 7.398438 C 20.089844 4.921875 20.347656 1.367188 20.347656 -2.441406 C 20.347656 -10.507812 19.238281 -19.832031 15.390625 -23.269531 C 14.390625 -24.195312 13.132812 -24.601562 11.875 -24.601562 C 10.542969 -24.601562 9.175781 -24.085938 8.101562 -23.125 C 4.21875 -19.535156 1.148438 -9.136719 1.148438 0.40625 C 1.148438 2.921875 1.367188 5.363281 1.8125 7.621094 C 2.183594 9.433594 3.589844 10.210938 4.996094 10.210938 C 6.4375 10.210938 7.917969 9.359375 8.25 7.917969 Z M 10.953125 -18.5 C 11.320312 -19.277344 11.988281 -19.609375 12.652344 -19.609375 C 13.394531 -19.609375 14.097656 -19.238281 14.503906 -18.683594 C 15.796875 -16.464844 16.167969 -10.285156 16.167969 -5.773438 C 16.167969 -4.921875 16.167969 -4.144531 16.132812 -3.476562 C 16.132812 -3.253906 16.019531 -3.109375 15.871094 -3.109375 C 15.835938 -3.109375 15.761719 -3.144531 15.722656 -3.144531 C 15.390625 -3.183594 14.613281 -3.21875 13.652344 -3.21875 C 11.988281 -3.21875 9.839844 -3.144531 9.136719 -3.109375 C 8.769531 -3.109375 8.582031 -3.109375 8.582031 -3.550781 L 8.582031 -4.292969 C 8.582031 -7.917969 9.136719 -14.945312 10.953125 -18.5 Z M 10.953125 -18.5 "/></g></g></g><g fill="#57e19b" fill-opacity="1"><g transform="translate(140.880096, 188.861121)"><g><path d="M 9.839844 -13.058594 C 9.804688 -12.914062 9.804688 -12.726562 9.804688 -12.578125 C 9.804688 -12.28125 9.839844 -11.988281 9.839844 -11.800781 C 9.839844 -11.691406 9.804688 -11.652344 9.804688 -11.652344 L 9.765625 -11.652344 C 8.65625 -12.914062 7.105469 -13.613281 5.550781 -13.613281 C 2.960938 -13.613281 0.40625 -11.652344 0.0351562 -7.03125 C -0.0351562 -6.289062 -0.0742188 -5.511719 -0.0742188 -4.773438 C -0.0742188 -3.109375 0.148438 -1.480469 0.738281 0.109375 C 1.628906 2.441406 3.328125 3.253906 4.996094 3.253906 C 6.105469 3.253906 7.175781 2.921875 7.953125 2.441406 C 8.433594 2.183594 8.878906 1.851562 9.472656 1.480469 C 9.359375 3.328125 9.285156 12.839844 6.4375 13.246094 C 6.214844 13.28125 6.03125 13.28125 5.84375 13.28125 C 1.886719 13.28125 4.328125 6.992188 2.109375 6.992188 L 1.886719 6.992188 C 1.40625 7.066406 1.109375 7.363281 1.035156 7.804688 L 1.035156 8.363281 C 1.035156 13.207031 3.738281 15.390625 5.957031 15.390625 L 6.066406 15.390625 C 14.28125 15.355469 15.910156 4.476562 15.910156 -3.921875 C 15.910156 -8.953125 15.316406 -13.058594 15.207031 -13.394531 C 14.910156 -14.171875 13.875 -14.539062 12.765625 -14.539062 C 11.46875 -14.539062 10.101562 -14.023438 9.839844 -13.058594 Z M 6.511719 0.703125 L 6.402344 0.703125 C 4.660156 0.703125 3.664062 -2.144531 3.664062 -5.105469 C 3.664062 -8.214844 4.773438 -11.394531 7.175781 -11.507812 L 7.324219 -11.507812 C 8.324219 -11.507812 9.472656 -10.765625 9.472656 -9.839844 L 9.472656 -9.804688 C 9.472656 -7.511719 9.546875 -5.179688 9.546875 -2.847656 C 9.546875 -1.40625 8.582031 0.59375 6.511719 0.703125 Z M 6.511719 0.703125 "/></g></g></g><g fill="#57e19b" fill-opacity="1"><g transform="translate(158.157263, 188.861121)"><g><path d="M 17.316406 -6.289062 L 17.390625 -6.289062 C 17.871094 -6.289062 19.421875 -6.695312 19.644531 -8.25 C 19.683594 -8.433594 19.71875 -8.695312 19.71875 -9.027344 C 19.71875 -10.914062 18.722656 -14.464844 15.429688 -15.132812 C 15.09375 -15.207031 14.761719 -15.242188 14.464844 -15.242188 C 12.023438 -15.242188 10.46875 -13.320312 9.691406 -13.320312 C 9.433594 -13.320312 9.25 -13.578125 9.210938 -14.28125 C 8.84375 -16.464844 7.363281 -17.460938 5.734375 -17.460938 C 3.589844 -17.460938 1.292969 -15.722656 1.292969 -12.949219 L 1.292969 -12.28125 C 1.292969 -9.691406 1.515625 3.476562 2.738281 7.695312 C 2.996094 8.65625 4.328125 9.285156 5.476562 9.285156 C 6.214844 9.285156 6.882812 9.027344 7.214844 8.433594 C 8.101562 7.140625 9.101562 -0.222656 9.546875 -7.621094 C 9.621094 -9.359375 11.765625 -11.914062 13.578125 -11.914062 C 14.023438 -11.914062 14.429688 -11.765625 14.800781 -11.433594 C 16.351562 -9.988281 16.203125 -8.695312 16.5 -7.105469 C 16.574219 -6.660156 16.90625 -6.289062 17.316406 -6.289062 Z M 17.316406 -6.289062 "/></g></g></g><g fill="#57e19b" fill-opacity="1"><g transform="translate(178.431111, 188.861121)"><g><path d="M 7.917969 -14.355469 C 2.886719 -14.355469 0.628906 -9.324219 0.628906 -4.144531 C 0.628906 1.40625 3.21875 7.175781 7.769531 7.175781 L 8.175781 7.175781 C 13.320312 6.808594 16.167969 1.148438 16.167969 -4.253906 C 16.167969 -9.398438 13.578125 -14.355469 7.917969 -14.355469 Z M 7.472656 4.402344 L 7.363281 4.402344 C 5.585938 4.402344 4.734375 0.371094 4.734375 -3.550781 C 4.734375 -7.289062 5.511719 -10.914062 7.105469 -10.988281 L 7.214844 -10.988281 C 9.433594 -10.988281 10.285156 -7.84375 10.285156 -4.402344 C 10.285156 -0.222656 9.027344 4.402344 7.472656 4.402344 Z M 7.472656 4.402344 "/></g></g></g><g fill="#57e19b" fill-opacity="1"><g transform="translate(195.967246, 188.861121)"><g><path d="M 7.214844 12.949219 C 7.324219 12.394531 7.4375 12.171875 7.621094 12.171875 C 8.066406 12.171875 8.953125 13.28125 11.542969 13.28125 L 11.617188 13.28125 C 17.277344 13.28125 20.386719 7.472656 20.679688 2.699219 C 20.71875 2.332031 20.71875 1.8125 20.71875 1.257812 C 20.71875 -2.441406 19.792969 -9.324219 12.503906 -9.324219 L 12.246094 -9.324219 C 9.472656 -9.25 8.621094 -7.585938 8.433594 -7.585938 C 8.398438 -7.585938 8.398438 -7.660156 8.398438 -7.769531 C 8.433594 -10.394531 8.878906 -15.796875 8.878906 -21.457031 C 8.878906 -22.789062 8.878906 -24.121094 8.804688 -25.453125 C 8.730469 -27.191406 7.324219 -28.191406 5.882812 -28.191406 C 4.585938 -28.191406 3.21875 -27.339844 2.886719 -25.453125 C 2.070312 -21.164062 1.222656 -14.023438 1.222656 -5.808594 C 1.222656 0.0351562 1.664062 6.4375 2.886719 12.765625 C 3.109375 13.910156 4.03125 14.390625 4.957031 14.390625 C 5.992188 14.390625 7.03125 13.835938 7.214844 12.949219 Z M 8.25 -4.699219 C 8.289062 -5.402344 9.914062 -6.546875 11.582031 -6.546875 C 12.28125 -6.546875 12.984375 -6.328125 13.578125 -5.84375 C 14.429688 -5.105469 14.984375 -2.21875 14.984375 0.960938 C 14.984375 5.511719 13.875 10.65625 10.953125 10.839844 L 10.730469 10.839844 C 9.621094 10.839844 8.695312 10.324219 7.769531 9.765625 C 7.621094 9.65625 7.585938 9.546875 7.585938 9.433594 C 7.585938 9.285156 7.621094 9.136719 7.621094 9.027344 L 7.621094 8.433594 C 7.621094 7.734375 7.695312 6.84375 8.25 -4.699219 Z M 8.25 -4.699219 "/></g></g></g><g fill="#57e19b" fill-opacity="1"><g transform="translate(217.350976, 188.861121)"><g><path d="M 7.917969 -14.355469 C 2.886719 -14.355469 0.628906 -9.324219 0.628906 -4.144531 C 0.628906 1.40625 3.21875 7.175781 7.769531 7.175781 L 8.175781 7.175781 C 13.320312 6.808594 16.167969 1.148438 16.167969 -4.253906 C 16.167969 -9.398438 13.578125 -14.355469 7.917969 -14.355469 Z M 7.472656 4.402344 L 7.363281 4.402344 C 5.585938 4.402344 4.734375 0.371094 4.734375 -3.550781 C 4.734375 -7.289062 5.511719 -10.914062 7.105469 -10.988281 L 7.214844 -10.988281 C 9.433594 -10.988281 10.285156 -7.84375 10.285156 -4.402344 C 10.285156 -0.222656 9.027344 4.402344 7.472656 4.402344 Z M 7.472656 4.402344 "/></g></g></g><g fill="#57e19b" fill-opacity="1"><g transform="translate(234.887112, 188.861121)"><g><path d="M 11.46875 11.507812 C 19.386719 11.507812 20.71875 3.589844 20.71875 0.8125 C 20.71875 0.59375 20.679688 0.40625 20.679688 0.257812 C 20.570312 -0.703125 19.460938 -1.332031 18.3125 -1.332031 C 17.128906 -1.332031 15.910156 -0.628906 15.910156 1.074219 L 15.910156 1.40625 C 15.910156 4.179688 14.652344 8.992188 11.875 9.027344 L 11.839844 9.027344 C 10.0625 9.027344 9.546875 4.253906 9.546875 -0.960938 C 9.546875 -7.105469 10.285156 -13.800781 10.507812 -13.800781 C 12.023438 -13.835938 15.613281 -14.28125 16.277344 -14.726562 C 16.539062 -14.910156 16.648438 -15.132812 16.648438 -15.355469 C 16.648438 -15.871094 16.058594 -16.351562 15.648438 -16.5 C 15.132812 -16.648438 11.691406 -16.90625 10.988281 -17.019531 C 10.617188 -17.019531 10.46875 -17.09375 10.46875 -17.425781 L 10.46875 -17.574219 C 10.691406 -19.203125 11.171875 -21.71875 11.171875 -23.789062 C 11.171875 -24.601562 11.097656 -25.34375 10.914062 -25.933594 C 10.691406 -26.5625 9.472656 -26.933594 8.324219 -26.933594 C 7.175781 -26.933594 6.105469 -26.601562 5.992188 -25.859375 C 5.734375 -25.378906 5.144531 -18.128906 4.996094 -16.945312 C 2.886719 -16.945312 1 -15.945312 1 -15.28125 L 1 -15.242188 C 1.222656 -14.132812 2.960938 -13.875 4.660156 -13.6875 C 4.476562 -8.804688 4.253906 -4.550781 4.253906 -1.035156 C 4.253906 7.140625 5.476562 11.507812 11.285156 11.507812 Z M 11.46875 11.507812 "/></g></g></g><g fill="#57e19b" fill-opacity="1"><g transform="translate(97.70183, 213.425026)"><g><path d="M 3.59375 0 L 2.109375 0 L 2.109375 -5.796875 L 0.203125 -5.796875 L 0.203125 -7.03125 L 5.515625 -7.03125 L 5.515625 -5.796875 L 3.59375 -5.796875 Z M 3.59375 0 "/></g></g></g><g fill="#57e19b" fill-opacity="1"><g transform="translate(105.729166, 213.425026)"><g><path d="M 5.734375 0 L 4.265625 0 L 4.265625 -3.140625 C 4.265625 -3.921875 3.976562 -4.3125 3.40625 -4.3125 C 2.988281 -4.3125 2.6875 -4.171875 2.5 -3.890625 C 2.320312 -3.609375 2.234375 -3.15625 2.234375 -2.53125 L 2.234375 0 L 0.765625 0 L 0.765625 -7.484375 L 2.234375 -7.484375 L 2.234375 -5.96875 C 2.234375 -5.84375 2.222656 -5.5625 2.203125 -5.125 L 2.171875 -4.6875 L 2.25 -4.6875 C 2.570312 -5.21875 3.09375 -5.484375 3.8125 -5.484375 C 4.4375 -5.484375 4.910156 -5.3125 5.234375 -4.96875 C 5.566406 -4.632812 5.734375 -4.148438 5.734375 -3.515625 Z M 5.734375 0 "/></g></g></g><g fill="#57e19b" fill-opacity="1"><g transform="translate(114.525546, 213.425026)"><g><path d="M 3 -4.4375 C 2.6875 -4.4375 2.441406 -4.335938 2.265625 -4.140625 C 2.085938 -3.941406 1.988281 -3.660156 1.96875 -3.296875 L 4.03125 -3.296875 C 4.019531 -3.660156 3.921875 -3.941406 3.734375 -4.140625 C 3.554688 -4.335938 3.3125 -4.4375 3 -4.4375 Z M 3.203125 0.09375 C 2.335938 0.09375 1.660156 -0.144531 1.171875 -0.625 C 0.679688 -1.101562 0.4375 -1.78125 0.4375 -2.65625 C 0.4375 -3.550781 0.660156 -4.242188 1.109375 -4.734375 C 1.566406 -5.234375 2.191406 -5.484375 2.984375 -5.484375 C 3.742188 -5.484375 4.335938 -5.265625 4.765625 -4.828125 C 5.191406 -4.398438 5.40625 -3.800781 5.40625 -3.03125 L 5.40625 -2.328125 L 1.9375 -2.328125 C 1.945312 -1.910156 2.066406 -1.582031 2.296875 -1.34375 C 2.523438 -1.113281 2.851562 -1 3.28125 -1 C 3.601562 -1 3.90625 -1.03125 4.1875 -1.09375 C 4.476562 -1.164062 4.78125 -1.273438 5.09375 -1.421875 L 5.09375 -0.28125 C 4.84375 -0.15625 4.570312 -0.0625 4.28125 0 C 3.988281 0.0625 3.628906 0.09375 3.203125 0.09375 Z M 3.203125 0.09375 "/></g></g></g><g fill="#57e19b" fill-opacity="1"><g transform="translate(122.668239, 213.425026)"><g/></g></g><g fill="#57e19b" fill-opacity="1"><g transform="translate(127.552113, 213.425026)"><g><path d="M 2.359375 0 L 0.890625 0 L 0.890625 -7.03125 L 4.921875 -7.03125 L 4.921875 -5.8125 L 2.359375 -5.8125 L 2.359375 -4 L 4.734375 -4 L 4.734375 -2.78125 L 2.359375 -2.78125 Z M 2.359375 0 "/></g></g></g><g fill="#57e19b" fill-opacity="1"><g transform="translate(135.281447, 213.425026)"><g><path d="M 4.1875 0 L 3.90625 -0.734375 L 3.859375 -0.734375 C 3.617188 -0.421875 3.363281 -0.203125 3.09375 -0.078125 C 2.832031 0.0351562 2.492188 0.09375 2.078125 0.09375 C 1.554688 0.09375 1.144531 -0.0507812 0.84375 -0.34375 C 0.550781 -0.644531 0.40625 -1.066406 0.40625 -1.609375 C 0.40625 -2.179688 0.601562 -2.601562 1 -2.875 C 1.40625 -3.144531 2.015625 -3.296875 2.828125 -3.328125 L 3.75 -3.34375 L 3.75 -3.59375 C 3.75 -4.132812 3.472656 -4.40625 2.921875 -4.40625 C 2.484375 -4.40625 1.976562 -4.273438 1.40625 -4.015625 L 0.921875 -5 C 1.535156 -5.332031 2.21875 -5.5 2.96875 -5.5 C 3.695312 -5.5 4.253906 -5.335938 4.640625 -5.015625 C 5.023438 -4.703125 5.21875 -4.226562 5.21875 -3.59375 L 5.21875 0 Z M 3.75 -2.5 L 3.1875 -2.46875 C 2.757812 -2.457031 2.441406 -2.378906 2.234375 -2.234375 C 2.023438 -2.097656 1.921875 -1.882812 1.921875 -1.59375 C 1.921875 -1.1875 2.160156 -0.984375 2.640625 -0.984375 C 2.972656 -0.984375 3.238281 -1.078125 3.4375 -1.265625 C 3.644531 -1.460938 3.75 -1.722656 3.75 -2.046875 Z M 3.75 -2.5 "/></g></g></g><g fill="#57e19b" fill-opacity="1"><g transform="translate(143.553917, 213.425026)"><g><path d="M 3.78125 -5.484375 C 3.976562 -5.484375 4.140625 -5.46875 4.265625 -5.4375 L 4.15625 -4.0625 C 4.039062 -4.09375 3.894531 -4.109375 3.71875 -4.109375 C 3.25 -4.109375 2.882812 -3.988281 2.625 -3.75 C 2.363281 -3.507812 2.234375 -3.171875 2.234375 -2.734375 L 2.234375 0 L 0.765625 0 L 0.765625 -5.375 L 1.875 -5.375 L 2.09375 -4.484375 L 2.171875 -4.484375 C 2.335938 -4.785156 2.5625 -5.023438 2.84375 -5.203125 C 3.132812 -5.390625 3.445312 -5.484375 3.78125 -5.484375 Z M 3.78125 -5.484375 "/></g></g></g><g fill="#57e19b" fill-opacity="1"><g transform="translate(150.350783, 213.425026)"><g><path d="M 5.59375 0 L 4.125 0 L 4.125 -3.140625 C 4.125 -3.523438 4.054688 -3.816406 3.921875 -4.015625 C 3.796875 -4.210938 3.59375 -4.3125 3.3125 -4.3125 C 2.9375 -4.3125 2.660156 -4.171875 2.484375 -3.890625 C 2.316406 -3.617188 2.234375 -3.164062 2.234375 -2.53125 L 2.234375 0 L 0.765625 0 L 0.765625 -5.375 L 1.890625 -5.375 L 2.09375 -4.6875 L 2.171875 -4.6875 C 2.316406 -4.9375 2.523438 -5.128906 2.796875 -5.265625 C 3.066406 -5.410156 3.378906 -5.484375 3.734375 -5.484375 C 4.535156 -5.484375 5.082031 -5.21875 5.375 -4.6875 L 5.5 -4.6875 C 5.644531 -4.9375 5.859375 -5.128906 6.140625 -5.265625 C 6.421875 -5.410156 6.738281 -5.484375 7.09375 -5.484375 C 7.695312 -5.484375 8.15625 -5.328125 8.46875 -5.015625 C 8.78125 -4.703125 8.9375 -4.203125 8.9375 -3.515625 L 8.9375 0 L 7.46875 0 L 7.46875 -3.140625 C 7.46875 -3.523438 7.398438 -3.816406 7.265625 -4.015625 C 7.140625 -4.210938 6.9375 -4.3125 6.65625 -4.3125 C 6.300781 -4.3125 6.035156 -4.179688 5.859375 -3.921875 C 5.679688 -3.660156 5.59375 -3.253906 5.59375 -2.703125 Z M 5.59375 0 "/></g></g></g><g fill="#57e19b" fill-opacity="1"><g transform="translate(162.343498, 213.425026)"><g><path d="M 3 -4.4375 C 2.6875 -4.4375 2.441406 -4.335938 2.265625 -4.140625 C 2.085938 -3.941406 1.988281 -3.660156 1.96875 -3.296875 L 4.03125 -3.296875 C 4.019531 -3.660156 3.921875 -3.941406 3.734375 -4.140625 C 3.554688 -4.335938 3.3125 -4.4375 3 -4.4375 Z M 3.203125 0.09375 C 2.335938 0.09375 1.660156 -0.144531 1.171875 -0.625 C 0.679688 -1.101562 0.4375 -1.78125 0.4375 -2.65625 C 0.4375 -3.550781 0.660156 -4.242188 1.109375 -4.734375 C 1.566406 -5.234375 2.191406 -5.484375 2.984375 -5.484375 C 3.742188 -5.484375 4.335938 -5.265625 4.765625 -4.828125 C 5.191406 -4.398438 5.40625 -3.800781 5.40625 -3.03125 L 5.40625 -2.328125 L 1.9375 -2.328125 C 1.945312 -1.910156 2.066406 -1.582031 2.296875 -1.34375 C 2.523438 -1.113281 2.851562 -1 3.28125 -1 C 3.601562 -1 3.90625 -1.03125 4.1875 -1.09375 C 4.476562 -1.164062 4.78125 -1.273438 5.09375 -1.421875 L 5.09375 -0.28125 C 4.84375 -0.15625 4.570312 -0.0625 4.28125 0 C 3.988281 0.0625 3.628906 0.09375 3.203125 0.09375 Z M 3.203125 0.09375 "/></g></g></g><g fill="#57e19b" fill-opacity="1"><g transform="translate(170.486192, 213.425026)"><g><path d="M 3.78125 -5.484375 C 3.976562 -5.484375 4.140625 -5.46875 4.265625 -5.4375 L 4.15625 -4.0625 C 4.039062 -4.09375 3.894531 -4.109375 3.71875 -4.109375 C 3.25 -4.109375 2.882812 -3.988281 2.625 -3.75 C 2.363281 -3.507812 2.234375 -3.171875 2.234375 -2.734375 L 2.234375 0 L 0.765625 0 L 0.765625 -5.375 L 1.875 -5.375 L 2.09375 -4.484375 L 2.171875 -4.484375 C 2.335938 -4.785156 2.5625 -5.023438 2.84375 -5.203125 C 3.132812 -5.390625 3.445312 -5.484375 3.78125 -5.484375 Z M 3.78125 -5.484375 "/></g></g></g><g fill="#57e19b" fill-opacity="1"><g transform="translate(177.28306, 213.425026)"><g><path d="M 4.53125 -1.59375 C 4.53125 -1.039062 4.335938 -0.617188 3.953125 -0.328125 C 3.566406 -0.046875 2.992188 0.09375 2.234375 0.09375 C 1.835938 0.09375 1.5 0.0664062 1.21875 0.015625 C 0.945312 -0.0351562 0.691406 -0.113281 0.453125 -0.21875 L 0.453125 -1.4375 C 0.722656 -1.300781 1.03125 -1.191406 1.375 -1.109375 C 1.71875 -1.023438 2.019531 -0.984375 2.28125 -0.984375 C 2.8125 -0.984375 3.078125 -1.132812 3.078125 -1.4375 C 3.078125 -1.550781 3.039062 -1.644531 2.96875 -1.71875 C 2.894531 -1.789062 2.769531 -1.875 2.59375 -1.96875 C 2.425781 -2.0625 2.195312 -2.164062 1.90625 -2.28125 C 1.5 -2.457031 1.195312 -2.617188 1 -2.765625 C 0.800781 -2.910156 0.65625 -3.078125 0.5625 -3.265625 C 0.476562 -3.460938 0.4375 -3.703125 0.4375 -3.984375 C 0.4375 -4.460938 0.625 -4.832031 1 -5.09375 C 1.375 -5.351562 1.898438 -5.484375 2.578125 -5.484375 C 3.222656 -5.484375 3.851562 -5.34375 4.46875 -5.0625 L 4.03125 -4 C 3.757812 -4.113281 3.503906 -4.207031 3.265625 -4.28125 C 3.035156 -4.351562 2.796875 -4.390625 2.546875 -4.390625 C 2.117188 -4.390625 1.90625 -4.273438 1.90625 -4.046875 C 1.90625 -3.910156 1.972656 -3.796875 2.109375 -3.703125 C 2.253906 -3.609375 2.5625 -3.46875 3.03125 -3.28125 C 3.445312 -3.101562 3.753906 -2.941406 3.953125 -2.796875 C 4.148438 -2.648438 4.296875 -2.476562 4.390625 -2.28125 C 4.484375 -2.09375 4.53125 -1.863281 4.53125 -1.59375 Z M 4.53125 -1.59375 "/></g></g></g><g fill="#57e19b" fill-opacity="1"><g transform="translate(184.502903, 213.425026)"><g><path d="M 1.984375 -7.03125 L 1.78125 -4.5 L 0.84375 -4.5 L 0.640625 -7.03125 Z M 1.984375 -7.03125 "/></g></g></g><g fill="#57e19b" fill-opacity="1"><g transform="translate(189.449262, 213.425026)"><g/></g></g><g fill="#57e19b" fill-opacity="1"><g transform="translate(194.333137, 213.425026)"><g><path d="M 3.875 -5.890625 C 3.3125 -5.890625 2.875 -5.675781 2.5625 -5.25 C 2.257812 -4.832031 2.109375 -4.25 2.109375 -3.5 C 2.109375 -1.925781 2.695312 -1.140625 3.875 -1.140625 C 4.363281 -1.140625 4.960938 -1.265625 5.671875 -1.515625 L 5.671875 -0.265625 C 5.085938 -0.0234375 4.441406 0.09375 3.734375 0.09375 C 2.710938 0.09375 1.929688 -0.210938 1.390625 -0.828125 C 0.847656 -1.453125 0.578125 -2.347656 0.578125 -3.515625 C 0.578125 -4.242188 0.707031 -4.882812 0.96875 -5.4375 C 1.238281 -5.988281 1.625 -6.410156 2.125 -6.703125 C 2.625 -6.992188 3.207031 -7.140625 3.875 -7.140625 C 4.5625 -7.140625 5.25 -6.972656 5.9375 -6.640625 L 5.453125 -5.4375 C 5.191406 -5.5625 4.925781 -5.664062 4.65625 -5.75 C 4.394531 -5.84375 4.132812 -5.890625 3.875 -5.890625 Z M 3.875 -5.890625 "/></g></g></g><g fill="#57e19b" fill-opacity="1"><g transform="translate(202.932444, 213.425026)"><g><path d="M 1.9375 -2.703125 C 1.9375 -2.171875 2.023438 -1.765625 2.203125 -1.484375 C 2.378906 -1.210938 2.664062 -1.078125 3.0625 -1.078125 C 3.445312 -1.078125 3.722656 -1.210938 3.890625 -1.484375 C 4.066406 -1.753906 4.15625 -2.160156 4.15625 -2.703125 C 4.15625 -3.234375 4.066406 -3.628906 3.890625 -3.890625 C 3.722656 -4.160156 3.441406 -4.296875 3.046875 -4.296875 C 2.648438 -4.296875 2.363281 -4.160156 2.1875 -3.890625 C 2.019531 -3.628906 1.9375 -3.234375 1.9375 -2.703125 Z M 5.65625 -2.703125 C 5.65625 -1.828125 5.425781 -1.140625 4.96875 -0.640625 C 4.507812 -0.148438 3.863281 0.09375 3.03125 0.09375 C 2.519531 0.09375 2.066406 -0.015625 1.671875 -0.234375 C 1.273438 -0.460938 0.96875 -0.789062 0.75 -1.21875 C 0.539062 -1.644531 0.4375 -2.140625 0.4375 -2.703125 C 0.4375 -3.578125 0.664062 -4.257812 1.125 -4.75 C 1.582031 -5.238281 2.226562 -5.484375 3.0625 -5.484375 C 3.582031 -5.484375 4.039062 -5.367188 4.4375 -5.140625 C 4.832031 -4.921875 5.132812 -4.597656 5.34375 -4.171875 C 5.550781 -3.753906 5.65625 -3.265625 5.65625 -2.703125 Z M 5.65625 -2.703125 "/></g></g></g><g fill="#57e19b" fill-opacity="1"><g transform="translate(211.35391, 213.425026)"><g><path d="M 5.59375 0 L 4.125 0 L 4.125 -3.140625 C 4.125 -3.523438 4.054688 -3.816406 3.921875 -4.015625 C 3.796875 -4.210938 3.59375 -4.3125 3.3125 -4.3125 C 2.9375 -4.3125 2.660156 -4.171875 2.484375 -3.890625 C 2.316406 -3.617188 2.234375 -3.164062 2.234375 -2.53125 L 2.234375 0 L 0.765625 0 L 0.765625 -5.375 L 1.890625 -5.375 L 2.09375 -4.6875 L 2.171875 -4.6875 C 2.316406 -4.9375 2.523438 -5.128906 2.796875 -5.265625 C 3.066406 -5.410156 3.378906 -5.484375 3.734375 -5.484375 C 4.535156 -5.484375 5.082031 -5.21875 5.375 -4.6875 L 5.5 -4.6875 C 5.644531 -4.9375 5.859375 -5.128906 6.140625 -5.265625 C 6.421875 -5.410156 6.738281 -5.484375 7.09375 -5.484375 C 7.695312 -5.484375 8.15625 -5.328125 8.46875 -5.015625 C 8.78125 -4.703125 8.9375 -4.203125 8.9375 -3.515625 L 8.9375 0 L 7.46875 0 L 7.46875 -3.140625 C 7.46875 -3.523438 7.398438 -3.816406 7.265625 -4.015625 C 7.140625 -4.210938 6.9375 -4.3125 6.65625 -4.3125 C 6.300781 -4.3125 6.035156 -4.179688 5.859375 -3.921875 C 5.679688 -3.660156 5.59375 -3.253906 5.59375 -2.703125 Z M 5.59375 0 "/></g></g></g><g fill="#57e19b" fill-opacity="1"><g transform="translate(223.34662, 213.425026)"><g><path d="M 3.71875 0.09375 C 3.09375 0.09375 2.597656 -0.132812 2.234375 -0.59375 L 2.15625 -0.59375 C 2.207031 -0.144531 2.234375 0.113281 2.234375 0.1875 L 2.234375 2.375 L 0.765625 2.375 L 0.765625 -5.375 L 1.96875 -5.375 L 2.171875 -4.6875 L 2.234375 -4.6875 C 2.578125 -5.21875 3.085938 -5.484375 3.765625 -5.484375 C 4.398438 -5.484375 4.894531 -5.238281 5.25 -4.75 C 5.613281 -4.257812 5.796875 -3.578125 5.796875 -2.703125 C 5.796875 -2.128906 5.710938 -1.628906 5.546875 -1.203125 C 5.378906 -0.773438 5.140625 -0.453125 4.828125 -0.234375 C 4.515625 -0.015625 4.144531 0.09375 3.71875 0.09375 Z M 3.296875 -4.3125 C 2.929688 -4.3125 2.664062 -4.195312 2.5 -3.96875 C 2.332031 -3.75 2.242188 -3.382812 2.234375 -2.875 L 2.234375 -2.703125 C 2.234375 -2.128906 2.316406 -1.71875 2.484375 -1.46875 C 2.660156 -1.21875 2.9375 -1.09375 3.3125 -1.09375 C 3.96875 -1.09375 4.296875 -1.632812 4.296875 -2.71875 C 4.296875 -3.25 4.210938 -3.644531 4.046875 -3.90625 C 3.890625 -4.175781 3.640625 -4.3125 3.296875 -4.3125 Z M 3.296875 -4.3125 "/></g></g></g><g fill="#57e19b" fill-opacity="1"><g transform="translate(231.902669, 213.425026)"><g><path d="M 4.1875 0 L 3.90625 -0.734375 L 3.859375 -0.734375 C 3.617188 -0.421875 3.363281 -0.203125 3.09375 -0.078125 C 2.832031 0.0351562 2.492188 0.09375 2.078125 0.09375 C 1.554688 0.09375 1.144531 -0.0507812 0.84375 -0.34375 C 0.550781 -0.644531 0.40625 -1.066406 0.40625 -1.609375 C 0.40625 -2.179688 0.601562 -2.601562 1 -2.875 C 1.40625 -3.144531 2.015625 -3.296875 2.828125 -3.328125 L 3.75 -3.34375 L 3.75 -3.59375 C 3.75 -4.132812 3.472656 -4.40625 2.921875 -4.40625 C 2.484375 -4.40625 1.976562 -4.273438 1.40625 -4.015625 L 0.921875 -5 C 1.535156 -5.332031 2.21875 -5.5 2.96875 -5.5 C 3.695312 -5.5 4.253906 -5.335938 4.640625 -5.015625 C 5.023438 -4.703125 5.21875 -4.226562 5.21875 -3.59375 L 5.21875 0 Z M 3.75 -2.5 L 3.1875 -2.46875 C 2.757812 -2.457031 2.441406 -2.378906 2.234375 -2.234375 C 2.023438 -2.097656 1.921875 -1.882812 1.921875 -1.59375 C 1.921875 -1.1875 2.160156 -0.984375 2.640625 -0.984375 C 2.972656 -0.984375 3.238281 -1.078125 3.4375 -1.265625 C 3.644531 -1.460938 3.75 -1.722656 3.75 -2.046875 Z M 3.75 -2.5 "/></g></g></g><g fill="#57e19b" fill-opacity="1"><g transform="translate(240.175133, 213.425026)"><g><path d="M 5.734375 0 L 4.265625 0 L 4.265625 -3.140625 C 4.265625 -3.523438 4.195312 -3.816406 4.0625 -4.015625 C 3.925781 -4.210938 3.707031 -4.3125 3.40625 -4.3125 C 2.988281 -4.3125 2.6875 -4.171875 2.5 -3.890625 C 2.320312 -3.617188 2.234375 -3.164062 2.234375 -2.53125 L 2.234375 0 L 0.765625 0 L 0.765625 -5.375 L 1.890625 -5.375 L 2.09375 -4.6875 L 2.171875 -4.6875 C 2.335938 -4.945312 2.5625 -5.144531 2.84375 -5.28125 C 3.132812 -5.414062 3.460938 -5.484375 3.828125 -5.484375 C 4.453125 -5.484375 4.925781 -5.3125 5.25 -4.96875 C 5.570312 -4.632812 5.734375 -4.148438 5.734375 -3.515625 Z M 5.734375 0 "/></g></g></g><g fill="#57e19b" fill-opacity="1"><g transform="translate(248.971508, 213.425026)"><g><path d="M 0.703125 -6.78125 C 0.703125 -7.25 0.96875 -7.484375 1.5 -7.484375 C 2.039062 -7.484375 2.3125 -7.25 2.3125 -6.78125 C 2.3125 -6.550781 2.242188 -6.367188 2.109375 -6.234375 C 1.972656 -6.109375 1.769531 -6.046875 1.5 -6.046875 C 0.96875 -6.046875 0.703125 -6.289062 0.703125 -6.78125 Z M 2.234375 0 L 0.765625 0 L 0.765625 -5.375 L 2.234375 -5.375 Z M 2.234375 0 "/></g></g></g><g fill="#57e19b" fill-opacity="1"><g transform="translate(254.302383, 213.425026)"><g><path d="M 1.9375 -2.703125 C 1.9375 -2.171875 2.023438 -1.765625 2.203125 -1.484375 C 2.378906 -1.210938 2.664062 -1.078125 3.0625 -1.078125 C 3.445312 -1.078125 3.722656 -1.210938 3.890625 -1.484375 C 4.066406 -1.753906 4.15625 -2.160156 4.15625 -2.703125 C 4.15625 -3.234375 4.066406 -3.628906 3.890625 -3.890625 C 3.722656 -4.160156 3.441406 -4.296875 3.046875 -4.296875 C 2.648438 -4.296875 2.363281 -4.160156 2.1875 -3.890625 C 2.019531 -3.628906 1.9375 -3.234375 1.9375 -2.703125 Z M 5.65625 -2.703125 C 5.65625 -1.828125 5.425781 -1.140625 4.96875 -0.640625 C 4.507812 -0.148438 3.863281 0.09375 3.03125 0.09375 C 2.519531 0.09375 2.066406 -0.015625 1.671875 -0.234375 C 1.273438 -0.460938 0.96875 -0.789062 0.75 -1.21875 C 0.539062 -1.644531 0.4375 -2.140625 0.4375 -2.703125 C 0.4375 -3.578125 0.664062 -4.257812 1.125 -4.75 C 1.582031 -5.238281 2.226562 -5.484375 3.0625 -5.484375 C 3.582031 -5.484375 4.039062 -5.367188 4.4375 -5.140625 C 4.832031 -4.921875 5.132812 -4.597656 5.34375 -4.171875 C 5.550781 -3.753906 5.65625 -3.265625 5.65625 -2.703125 Z M 5.65625 -2.703125 "/></g></g></g><g fill="#57e19b" fill-opacity="1"><g transform="translate(262.723849, 213.425026)"><g><path d="M 5.734375 0 L 4.265625 0 L 4.265625 -3.140625 C 4.265625 -3.523438 4.195312 -3.816406 4.0625 -4.015625 C 3.925781 -4.210938 3.707031 -4.3125 3.40625 -4.3125 C 2.988281 -4.3125 2.6875 -4.171875 2.5 -3.890625 C 2.320312 -3.617188 2.234375 -3.164062 2.234375 -2.53125 L 2.234375 0 L 0.765625 0 L 0.765625 -5.375 L 1.890625 -5.375 L 2.09375 -4.6875 L 2.171875 -4.6875 C 2.335938 -4.945312 2.5625 -5.144531 2.84375 -5.28125 C 3.132812 -5.414062 3.460938 -5.484375 3.828125 -5.484375 C 4.453125 -5.484375 4.925781 -5.3125 5.25 -4.96875 C 5.570312 -4.632812 5.734375 -4.148438 5.734375 -3.515625 Z M 5.734375 0 "/></g></g></g></svg>