<svg xmlns="http://www.w3.org/2000/svg" xmlns:xlink="http://www.w3.org/1999/xlink" width="500" zoomAndPan="magnify" viewBox="0 0 375 374.999991" height="500" preserveAspectRatio="xMidYMid meet" version="1.0"><defs><g/></defs><g fill="#57e19b" fill-opacity="1"><g transform="translate(118.312497, 188.861004)"><g><path d="M 8.25 7.917969 C 8.214844 7.324219 8.175781 6.472656 8.175781 5.625 C 8.175781 3.550781 8.289062 1.257812 8.289062 1 C 8.289062 0.664062 8.472656 0.222656 8.730469 0.0351562 C 9.582031 -0.480469 10.765625 -0.664062 11.914062 -0.664062 C 13.875 -0.664062 15.761719 -0.0742188 15.761719 0.59375 L 15.761719 0.628906 C 15.796875 1.257812 15.796875 1.851562 15.796875 2.40625 C 15.796875 4.402344 15.648438 5.992188 15.613281 8.066406 C 15.722656 9.101562 16.464844 9.546875 17.242188 9.546875 C 18.386719 9.546875 19.683594 8.695312 19.757812 7.398438 C 20.089844 4.921875 20.347656 1.367188 20.347656 -2.441406 C 20.347656 -10.507812 19.238281 -19.832031 15.390625 -23.269531 C 14.390625 -24.195312 13.132812 -24.601562 11.875 -24.601562 C 10.542969 -24.601562 9.175781 -24.085938 8.101562 -23.125 C 4.21875 -19.535156 1.148438 -9.136719 1.148438 0.40625 C 1.148438 2.921875 1.367188 5.363281 1.8125 7.621094 C 2.183594 9.433594 3.589844 10.210938 4.996094 10.210938 C 6.4375 10.210938 7.917969 9.359375 8.25 7.917969 Z M 10.953125 -18.5 C 11.320312 -19.277344 11.988281 -19.609375 12.652344 -19.609375 C 13.394531 -19.609375 14.097656 -19.238281 14.503906 -18.683594 C 15.796875 -16.464844 16.167969 -10.285156 16.167969 -5.773438 C 16.167969 -4.921875 16.167969 -4.144531 16.132812 -3.476562 C 16.132812 -3.253906 16.019531 -3.109375 15.871094 -3.109375 C 15.835938 -3.109375 15.761719 -3.144531 15.722656 -3.144531 C 15.390625 -3.183594 14.613281 -3.21875 13.652344 -3.21875 C 11.988281 -3.21875 9.839844 -3.144531 9.136719 -3.109375 C 8.769531 -3.109375 8.582031 -3.109375 8.582031 -3.550781 L 8.582031 -4.292969 C 8.582031 -7.917969 9.136719 -14.945312 10.953125 -18.5 Z M 10.953125 -18.5 "/></g></g></g><g fill="#57e19b" fill-opacity="1"><g transform="translate(140.880096, 188.861004)"><g><path d="M 9.839844 -13.058594 C 9.804688 -12.914062 9.804688 -12.726562 9.804688 -12.578125 C 9.804688 -12.28125 9.839844 -11.988281 9.839844 -11.800781 C 9.839844 -11.691406 9.804688 -11.652344 9.804688 -11.652344 L 9.765625 -11.652344 C 8.65625 -12.914062 7.105469 -13.613281 5.550781 -13.613281 C 2.960938 -13.613281 0.40625 -11.652344 0.0351562 -7.03125 C -0.0351562 -6.289062 -0.0742188 -5.511719 -0.0742188 -4.773438 C -0.0742188 -3.109375 0.148438 -1.480469 0.738281 0.109375 C 1.628906 2.441406 3.328125 3.253906 4.996094 3.253906 C 6.105469 3.253906 7.175781 2.921875 7.953125 2.441406 C 8.433594 2.183594 8.878906 1.851562 9.472656 1.480469 C 9.359375 3.328125 9.285156 12.839844 6.4375 13.246094 C 6.214844 13.28125 6.03125 13.28125 5.84375 13.28125 C 1.886719 13.28125 4.328125 6.992188 2.109375 6.992188 L 1.886719 6.992188 C 1.40625 7.066406 1.109375 7.363281 1.035156 7.804688 L 1.035156 8.363281 C 1.035156 13.207031 3.738281 15.390625 5.957031 15.390625 L 6.066406 15.390625 C 14.28125 15.355469 15.910156 4.476562 15.910156 -3.921875 C 15.910156 -8.953125 15.316406 -13.058594 15.207031 -13.394531 C 14.910156 -14.171875 13.875 -14.539062 12.765625 -14.539062 C 11.46875 -14.539062 10.101562 -14.023438 9.839844 -13.058594 Z M 6.511719 0.703125 L 6.402344 0.703125 C 4.660156 0.703125 3.664062 -2.144531 3.664062 -5.105469 C 3.664062 -8.214844 4.773438 -11.394531 7.175781 -11.507812 L 7.324219 -11.507812 C 8.324219 -11.507812 9.472656 -10.765625 9.472656 -9.839844 L 9.472656 -9.804688 C 9.472656 -7.511719 9.546875 -5.179688 9.546875 -2.847656 C 9.546875 -1.40625 8.582031 0.59375 6.511719 0.703125 Z M 6.511719 0.703125 "/></g></g></g><g fill="#57e19b" fill-opacity="1"><g transform="translate(158.157263, 188.861004)"><g><path d="M 17.316406 -6.289062 L 17.390625 -6.289062 C 17.871094 -6.289062 19.421875 -6.695312 19.644531 -8.25 C 19.683594 -8.433594 19.71875 -8.695312 19.71875 -9.027344 C 19.71875 -10.914062 18.722656 -14.464844 15.429688 -15.132812 C 15.09375 -15.207031 14.761719 -15.242188 14.464844 -15.242188 C 12.023438 -15.242188 10.46875 -13.320312 9.691406 -13.320312 C 9.433594 -13.320312 9.25 -13.578125 9.210938 -14.28125 C 8.84375 -16.464844 7.363281 -17.460938 5.734375 -17.460938 C 3.589844 -17.460938 1.292969 -15.722656 1.292969 -12.949219 L 1.292969 -12.28125 C 1.292969 -9.691406 1.515625 3.476562 2.738281 7.695312 C 2.996094 8.65625 4.328125 9.285156 5.476562 9.285156 C 6.214844 9.285156 6.882812 9.027344 7.214844 8.433594 C 8.101562 7.140625 9.101562 -0.222656 9.546875 -7.621094 C 9.621094 -9.359375 11.765625 -11.914062 13.578125 -11.914062 C 14.023438 -11.914062 14.429688 -11.765625 14.800781 -11.433594 C 16.351562 -9.988281 16.203125 -8.695312 16.5 -7.105469 C 16.574219 -6.660156 16.90625 -6.289062 17.316406 -6.289062 Z M 17.316406 -6.289062 "/></g></g></g><g fill="#57e19b" fill-opacity="1"><g transform="translate(178.431111, 188.861004)"><g><path d="M 7.917969 -14.355469 C 2.886719 -14.355469 0.628906 -9.324219 0.628906 -4.144531 C 0.628906 1.40625 3.21875 7.175781 7.769531 7.175781 L 8.175781 7.175781 C 13.320312 6.808594 16.167969 1.148438 16.167969 -4.253906 C 16.167969 -9.398438 13.578125 -14.355469 7.917969 -14.355469 Z M 7.472656 4.402344 L 7.363281 4.402344 C 5.585938 4.402344 4.734375 0.371094 4.734375 -3.550781 C 4.734375 -7.289062 5.511719 -10.914062 7.105469 -10.988281 L 7.214844 -10.988281 C 9.433594 -10.988281 10.285156 -7.84375 10.285156 -4.402344 C 10.285156 -0.222656 9.027344 4.402344 7.472656 4.402344 Z M 7.472656 4.402344 "/></g></g></g><g fill="#57e19b" fill-opacity="1"><g transform="translate(195.967246, 188.861004)"><g><path d="M 7.214844 12.949219 C 7.324219 12.394531 7.4375 12.171875 7.621094 12.171875 C 8.066406 12.171875 8.953125 13.28125 11.542969 13.28125 L 11.617188 13.28125 C 17.277344 13.28125 20.386719 7.472656 20.679688 2.699219 C 20.71875 2.332031 20.71875 1.8125 20.71875 1.257812 C 20.71875 -2.441406 19.792969 -9.324219 12.503906 -9.324219 L 12.246094 -9.324219 C 9.472656 -9.25 8.621094 -7.585938 8.433594 -7.585938 C 8.398438 -7.585938 8.398438 -7.660156 8.398438 -7.769531 C 8.433594 -10.394531 8.878906 -15.796875 8.878906 -21.457031 C 8.878906 -22.789062 8.878906 -24.121094 8.804688 -25.453125 C 8.730469 -27.191406 7.324219 -28.191406 5.882812 -28.191406 C 4.585938 -28.191406 3.21875 -27.339844 2.886719 -25.453125 C 2.070312 -21.164062 1.222656 -14.023438 1.222656 -5.808594 C 1.222656 0.0351562 1.664062 6.4375 2.886719 12.765625 C 3.109375 13.910156 4.03125 14.390625 4.957031 14.390625 C 5.992188 14.390625 7.03125 13.835938 7.214844 12.949219 Z M 8.25 -4.699219 C 8.289062 -5.402344 9.914062 -6.546875 11.582031 -6.546875 C 12.28125 -6.546875 12.984375 -6.328125 13.578125 -5.84375 C 14.429688 -5.105469 14.984375 -2.21875 14.984375 0.960938 C 14.984375 5.511719 13.875 10.65625 10.953125 10.839844 L 10.730469 10.839844 C 9.621094 10.839844 8.695312 10.324219 7.769531 9.765625 C 7.621094 9.65625 7.585938 9.546875 7.585938 9.433594 C 7.585938 9.285156 7.621094 9.136719 7.621094 9.027344 L 7.621094 8.433594 C 7.621094 7.734375 7.695312 6.84375 8.25 -4.699219 Z M 8.25 -4.699219 "/></g></g></g><g fill="#57e19b" fill-opacity="1"><g transform="translate(217.350976, 188.861004)"><g><path d="M 7.917969 -14.355469 C 2.886719 -14.355469 0.628906 -9.324219 0.628906 -4.144531 C 0.628906 1.40625 3.21875 7.175781 7.769531 7.175781 L 8.175781 7.175781 C 13.320312 6.808594 16.167969 1.148438 16.167969 -4.253906 C 16.167969 -9.398438 13.578125 -14.355469 7.917969 -14.355469 Z M 7.472656 4.402344 L 7.363281 4.402344 C 5.585938 4.402344 4.734375 0.371094 4.734375 -3.550781 C 4.734375 -7.289062 5.511719 -10.914062 7.105469 -10.988281 L 7.214844 -10.988281 C 9.433594 -10.988281 10.285156 -7.84375 10.285156 -4.402344 C 10.285156 -0.222656 9.027344 4.402344 7.472656 4.402344 Z M 7.472656 4.402344 "/></g></g></g><g fill="#57e19b" fill-opacity="1"><g transform="translate(234.887112, 188.861004)"><g><path d="M 11.46875 11.507812 C 19.386719 11.507812 20.71875 3.589844 20.71875 0.8125 C 20.71875 0.59375 20.679688 0.40625 20.679688 0.257812 C 20.570312 -0.703125 19.460938 -1.332031 18.3125 -1.332031 C 17.128906 -1.332031 15.910156 -0.628906 15.910156 1.074219 L 15.910156 1.40625 C 15.910156 4.179688 14.652344 8.992188 11.875 9.027344 L 11.839844 9.027344 C 10.0625 9.027344 9.546875 4.253906 9.546875 -0.960938 C 9.546875 -7.105469 10.285156 -13.800781 10.507812 -13.800781 C 12.023438 -13.835938 15.613281 -14.28125 16.277344 -14.726562 C 16.539062 -14.910156 16.648438 -15.132812 16.648438 -15.355469 C 16.648438 -15.871094 16.058594 -16.351562 15.648438 -16.5 C 15.132812 -16.648438 11.691406 -16.90625 10.988281 -17.019531 C 10.617188 -17.019531 10.46875 -17.09375 10.46875 -17.425781 L 10.46875 -17.574219 C 10.691406 -19.203125 11.171875 -21.71875 11.171875 -23.789062 C 11.171875 -24.601562 11.097656 -25.34375 10.914062 -25.933594 C 10.691406 -26.5625 9.472656 -26.933594 8.324219 -26.933594 C 7.175781 -26.933594 6.105469 -26.601562 5.992188 -25.859375 C 5.734375 -25.378906 5.144531 -18.128906 4.996094 -16.945312 C 2.886719 -16.945312 1 -15.945312 1 -15.28125 L 1 -15.242188 C 1.222656 -14.132812 2.960938 -13.875 4.660156 -13.6875 C 4.476562 -8.804688 4.253906 -4.550781 4.253906 -1.035156 C 4.253906 7.140625 5.476562 11.507812 11.285156 11.507812 Z M 11.46875 11.507812 "/></g></g></g></svg>